<?xml version="1.0" encoding="UTF-8"?>
<!-- Generated by jsxcad -->
<!DOCTYPE svg PUBLIC "-//W3C//DTD SVG 1.1 Tiny//EN" "http://www.w3.org/Graphics/SVG/1.1/DTD/svg11-tiny.dtd">
<svg viewBox="-250 -250 500 500" width="500" height="500" xmlns="http://www.w3.org/2000/svg"><path d="M-92.48708484153916,48.42002754268878L-92.60373280245865,48.19430393519407L-169.20919738511196,-72.84912585579501z" style="fill:rgb(237,191,120)"/><path d="M-92.40466701348527,48.66425693765257L-92.48708484153916,48.42002754268878L-169.1019154283639,-72.63314798100359z" style="fill:rgb(241,183,129)"/><path d="M-92.35734645737323,48.92449942185058L-92.40466701348527,48.66425693765257L-169.03308829214944,-72.39650066333274z" style="fill:rgb(244,175,139)"/><path d="M-176.50615840250532,-68.41545658057514L-99.0550067788976,52.22908363797067L-98.90692202698608,52.435344096338916z" style="fill:rgb(22,56,144)"/><path d="M-92.34564723447569,49.19809036237232L-92.35734645737323,48.92449942185058L-169.00347395746837,-72.14160610340276z" style="fill:rgb(246,167,149)"/><path d="M-176.3635472000941,-68.22071121419798L-98.90692202698608,52.435344096338916L-98.72713407518903,52.61887431212767z" style="fill:rgb(29,50,153)"/><path d="M-92.3697137888959,49.48223571452944L-92.34564723447569,49.19809036237232L-169.01341957682612,-71.87106925134837z" style="fill:rgb(247,158,158)"/><path d="M-176.1848310412114,-68.05063742897183L-98.72713407518903,52.61887431212767L-98.5174783904473,52.77776237928116z" style="fill:rgb(36,45,162)"/><path d="M-92.42932409294428,49.774010490550275L-92.3697137888959,49.48223571452944L-169.06284102241582,-71.58764918763659z" style="fill:rgb(246,149,167)"/><path d="M-175.97181880905342,-67.90698639430956L-98.5174783904473,52.77776237928116L-98.28007410411702,52.910360535648664z" style="fill:rgb(44,40,171)"/><path d="M-92.52389748834159,50.07041573173516L-92.42932409294428,49.774010490550275L-169.15126338361847,-71.2942609602246z" style="fill:rgb(244,139,175)"/><path d="M-175.72666928530379,-67.79127884735448L-98.28007410411702,52.910360535648664L-98.01737105155652,53.01526907996344z" style="fill:rgb(54,37,179)"/><path d="M-92.65247674262977,50.368404965347914L-92.52389748834159,50.07041573173516L-169.2778269392579,-70.99392055080851z" style="fill:rgb(241,129,183)"/><path d="M-175.45187040295008,-67.7047274144919L-98.01737105155652,53.01526907996344L-97.73203575904235,53.0914018330197z" style="fill:rgb(64,34,187)"/><path d="M-92.81376103116303,50.664904816870866L-92.65247674262977,50.368404965347914L-169.4412485831552,-70.68970650537864z" style="fill:rgb(237,120,191)"/><path d="M-175.1502460487867,-67.64823746213183L-97.73203575904235,53.0914018330197L-97.4270138685674,53.137949252552325z" style="fill:rgb(74,32,194)"/><path d="M-93.0061102781387,50.95685326322296L-92.81376103116303,50.664904816870866L-169.63985443111952,-70.38477575119249z" style="fill:rgb(232,110,198)"/><path d="M-174.8248956857781,-67.62242026252584L-97.4270138685674,53.137949252552325L-97.10543860929543,53.154409100681036z" style="fill:rgb(85,32,201)"/><path d="M-93.22754523193522,51.241232473962675L-93.0061102781387,50.95685326322296L-169.87164620239412,-70.08225997131872z" style="fill:rgb(225,101,204)"/><path d="M-174.47916061007314,-67.62756775214413L-97.10543860929543,53.154409100681036L-96.77061993754668,53.140605434293185z" style="fill:rgb(97,32,207)"/><path d="M-93.47580383515267,51.515098688029966L-93.22754523193522,51.241232473962675L-170.13421450510833,-69.78529253912386z" style="fill:rgb(218,92,209)"/><path d="M-174.1166003498641,-67.66363297183096L-96.77061993754668,53.140605434293185L-96.42602141099921,53.09665828599327z" style="fill:rgb(109,33,211)"/><path d="M-93.74832558676412,51.77562168779588L-93.47580383515267,51.515098688029966L-170.42489791663803,-69.49695031299422z" style="fill:rgb(210,83,214)"/><path d="M-173.74097114842715,-67.73027012312382L-96.42602141099921,53.09665828599327L-96.07518334830493,53.023015510258766z" style="fill:rgb(121,35,215)"/><path d="M-94.04230026735586,52.020098764936456L-93.74832558676412,51.77562168779588L-170.74067024603426,-69.22021495120346z" style="fill:rgb(200,75,217)"/><path d="M-173.356123143436,-67.8267957809651L-96.07518334830493,53.023015510258766L-95.72174765257348,52.92042898450439z" style="fill:rgb(133,39,219)"/><path d="M-94.35469961681173,52.245997659335956L-94.04230026735586,52.020098764936456L-171.07829937346298,-68.95795945740925z" style="fill:rgb(190,67,220)"/><path d="M-172.9660539655149,-67.95222214701218L-95.72174765257348,52.92042898450439L-95.36936275891426,52.78994839311954z" style="fill:rgb(145,43,221)"/><path d="M-171.80492756745127,-68.48757942849444L-94.68228245438297,52.450983275930966L-94.35469961681173,52.245997659335956z" style="fill:rgb(180,60,222)"/><path d="M-172.57480456088715,-68.1052639880194L-95.36936275891426,52.78994839311954L-95.02168112088155,52.632926340787506z" style="fill:rgb(157,47,222)"/><path d="M-172.1864211359459,-68.2843334052822L-95.02168112088155,52.632926340787506L-94.68228245438297,52.450983275930966z" style="fill:rgb(169,53,222)"/><path d="M-169.20919738511196,-72.84912585579501L-169.1019154283639,-72.63314798100359L-92.48708484153916,48.42002754268878z" style="fill:rgb(237,191,120)"/><path d="M-169.1019154283639,-72.63314798100359L-169.03308829214944,-72.39650066333274L-92.40466701348527,48.66425693765257z" style="fill:rgb(241,183,129)"/><path d="M-169.03308829214944,-72.39650066333274L-169.00347395746837,-72.14160610340276L-92.35734645737323,48.92449942185058z" style="fill:rgb(244,175,139)"/><path d="M-98.90692202698608,52.435344096338916L-176.3635472000941,-68.22071121419798L-176.50615840250532,-68.41545658057514z" style="fill:rgb(22,56,144)"/><path d="M-169.00347395746837,-72.14160610340276L-169.01341957682612,-71.87106925134837L-92.34564723447569,49.19809036237232z" style="fill:rgb(246,167,149)"/><path d="M-98.72713407518903,52.61887431212767L-176.1848310412114,-68.05063742897183L-176.3635472000941,-68.22071121419798z" style="fill:rgb(29,50,153)"/><path d="M-169.01341957682612,-71.87106925134837L-169.06284102241582,-71.58764918763659L-92.3697137888959,49.48223571452944z" style="fill:rgb(247,158,158)"/><path d="M-98.5174783904473,52.77776237928116L-175.97181880905342,-67.90698639430956L-176.1848310412114,-68.05063742897183z" style="fill:rgb(36,45,162)"/><path d="M-169.06284102241582,-71.58764918763659L-169.15126338361847,-71.2942609602246L-92.42932409294428,49.774010490550275z" style="fill:rgb(246,149,167)"/><path d="M-98.28007410411702,52.910360535648664L-175.72666928530379,-67.79127884735448L-175.97181880905342,-67.90698639430956z" style="fill:rgb(44,40,171)"/><path d="M-169.15126338361847,-71.2942609602246L-169.2778269392579,-70.99392055080851L-92.52389748834159,50.07041573173516z" style="fill:rgb(244,139,175)"/><path d="M-98.01737105155652,53.01526907996344L-175.45187040295008,-67.7047274144919L-175.72666928530379,-67.79127884735448z" style="fill:rgb(54,37,179)"/><path d="M-169.2778269392579,-70.99392055080851L-169.4412485831552,-70.68970650537864L-92.65247674262977,50.368404965347914z" style="fill:rgb(241,129,183)"/><path d="M-97.73203575904235,53.0914018330197L-175.1502460487867,-67.64823746213183L-175.45187040295008,-67.7047274144919z" style="fill:rgb(64,34,187)"/><path d="M-169.4412485831552,-70.68970650537864L-169.63985443111952,-70.38477575119249L-92.81376103116303,50.664904816870866z" style="fill:rgb(237,120,191)"/><path d="M-97.4270138685674,53.137949252552325L-174.8248956857781,-67.62242026252584L-175.1502460487867,-67.64823746213183z" style="fill:rgb(74,32,194)"/><path d="M-169.63985443111952,-70.38477575119249L-169.87164620239412,-70.08225997131872L-93.0061102781387,50.95685326322296z" style="fill:rgb(232,110,198)"/><path d="M-97.10543860929543,53.154409100681036L-174.47916061007314,-67.62756775214413L-174.8248956857781,-67.62242026252584z" style="fill:rgb(85,32,201)"/><path d="M-169.87164620239412,-70.08225997131872L-170.13421450510833,-69.78529253912386L-93.22754523193522,51.241232473962675z" style="fill:rgb(225,101,204)"/><path d="M-96.77061993754668,53.140605434293185L-174.1166003498641,-67.66363297183096L-174.47916061007314,-67.62756775214413z" style="fill:rgb(97,32,207)"/><path d="M-170.13421450510833,-69.78529253912386L-170.42489791663803,-69.49695031299422L-93.47580383515267,51.515098688029966z" style="fill:rgb(218,92,209)"/><path d="M-96.42602141099921,53.09665828599327L-173.74097114842715,-67.73027012312382L-174.1166003498641,-67.66363297183096z" style="fill:rgb(109,33,211)"/><path d="M-170.42489791663803,-69.49695031299422L-170.74067024603426,-69.22021495120346L-93.74832558676412,51.77562168779588z" style="fill:rgb(210,83,214)"/><path d="M-96.07518334830493,53.023015510258766L-173.356123143436,-67.8267957809651L-173.74097114842715,-67.73027012312382z" style="fill:rgb(121,35,215)"/><path d="M-170.74067024603426,-69.22021495120346L-171.07829937346298,-68.95795945740925L-94.04230026735586,52.020098764936456z" style="fill:rgb(200,75,217)"/><path d="M-95.72174765257348,52.92042898450439L-172.9660539655149,-67.95222214701218L-173.356123143436,-67.8267957809651z" style="fill:rgb(133,39,219)"/><path d="M-171.07829937346298,-68.95795945740925L-171.43427207015026,-68.71290199525075L-94.35469961681173,52.245997659335956z" style="fill:rgb(190,67,220)"/><path d="M-95.36936275891426,52.78994839311954L-172.57480456088715,-68.1052639880194L-172.9660539655149,-67.95222214701218z" style="fill:rgb(145,43,221)"/><path d="M-94.35469961681173,52.245997659335956L-171.43427207015026,-68.71290199525075L-171.80492756745127,-68.48757942849444z" style="fill:rgb(180,60,222)"/><path d="M-95.02168112088155,52.632926340787506L-172.1864211359459,-68.2843334052822L-172.57480456088715,-68.1052639880194z" style="fill:rgb(157,47,222)"/><path d="M-94.68228245438297,52.450983275930966L-171.80492756745127,-68.48757942849444L-172.1864211359459,-68.2843334052822z" style="fill:rgb(169,53,222)"/><path d="M-173.1360353149663,-73.145787097941L-173.52204653011046,-72.96768737974759L-173.90123913643424,-72.76570907570168zM-173.1360353149663,-73.145787097941L-173.90123913643424,-72.76570907570168L-174.62386212290392,-72.29854092007953zM-173.90123913643424,-72.76570907570168L-174.26975911126496,-72.54190037865405L-174.62386212290392,-72.29854092007953zM-172.3593001198175,-73.4233548522704L-172.74714515513,-73.29819695146371L-173.1360353149663,-73.145787097941zM-171.602537614457,-73.58710045044032L-172.3593001198175,-73.4233548522704L-173.1360353149663,-73.145787097941zM-174.62386212290392,-72.29854092007953L-174.9599382467794,-72.03809795752295L-175.27455169162428,-71.76321578112726zM-173.1360353149663,-73.145787097941L-174.62386212290392,-72.29854092007953L-175.8268373605868,-71.18143151241343zM-171.602537614457,-73.58710045044032L-171.97646378426444,-73.5199868480163L-172.3593001198175,-73.4233548522704zM-174.62386212290392,-72.29854092007953L-175.27455169162428,-71.76321578112726L-175.8268373605868,-71.18143151241343zM-175.27455169162428,-71.76321578112726L-175.5645039193423,-71.47669117146953L-175.8268373605868,-71.18143151241343zM-170.27002337459723,-73.55102406496734L-171.602537614457,-73.58710045044032L-173.1360353149663,-73.145787097941zM-170.89652220874783,-73.63028442181832L-171.2413277730828,-73.62399287955346L-171.602537614457,-73.58710045044032zM-170.27002337459723,-73.55102406496734L-173.1360353149663,-73.145787097941L-175.8268373605868,-71.18143151241343zM-170.27002337459723,-73.55102406496734L-170.89652220874783,-73.63028442181832L-171.602537614457,-73.58710045044032zM-175.8268373605868,-71.18143151241343L-176.05886177797296,-70.88045019058941L-176.25817133223723,-70.57679860959867zM-170.27002337459723,-73.55102406496734L-170.57164241805202,-73.60588131861839L-170.89652220874783,-73.63028442181832zM-175.8268373605868,-71.18143151241343L-176.25817133223723,-70.57679860959867L-176.69268941484106,-69.3972930731656zM-176.25817133223723,-70.57679860959867L-176.4227388096069,-70.27358174750476L-176.55084349854044,-69.97389002979996zM-169.74864561127447,-73.352375067433L-169.9947389732723,-73.4662379290097L-170.27002337459723,-73.55102406496734zM-176.25817133223723,-70.57679860959867L-176.55084349854044,-69.97389002979996L-176.69268941484106,-69.3972930731656zM-169.35382774819394,-73.04225690489585L-169.74864561127447,-73.352375067433L-170.27002337459723,-73.55102406496734zM-176.55084349854044,-69.97389002979996L-176.64113917587474,-69.68079463478917L-176.69268941484106,-69.3972930731656zM-169.35382774819394,-73.04225690489585L-169.53425775166397,-73.21057292121705L-169.74864561127447,-73.352375067433zM-169.00347395746837,-72.14160610340276L-169.35382774819394,-73.04225690489585L-170.27002337459723,-73.55102406496734zM-175.8268373605868,-71.18143151241343L-176.69268941484106,-69.3972930731656L-175.72666928530379,-67.79127884735448zM-176.69268941484106,-69.3972930731656L-176.70493214143232,-69.126303723078L-176.67768895047448,-68.87060409109937zM-170.13421450510833,-69.78529253912386L-170.27002337459723,-73.55102406496734L-175.8268373605868,-71.18143151241343zM-169.1019154283639,-72.63314798100359L-169.20919738511196,-72.84912585579501L-169.35382774819394,-73.04225690489585z" style="fill:rgb(83,212,212)"/><path d="M-176.61121069320956,-68.63283888611058L-176.74589998443165,-69.11460358757657L-176.67768895047448,-68.87060409109937z" style="fill:rgb(103,220,211)"/><path d="M-176.69268941484106,-69.3972930731656L-176.67768895047448,-68.87060409109937L-176.50615840250532,-68.41545658057514zM-169.00347395746837,-72.14160610340276L-169.1019154283639,-72.63314798100359L-169.35382774819394,-73.04225690489585zM-176.67768895047448,-68.87060409109937L-176.61121069320956,-68.63283888611058L-176.50615840250532,-68.41545658057514zM-169.00347395746837,-72.14160610340276L-169.03308829214944,-72.39650066333274L-169.1019154283639,-72.63314798100359z" style="fill:rgb(83,212,212)"/><path d="M-176.3635472000941,-68.22071121419798L-176.8000499281202,-68.81681288142913L-176.50615840250532,-68.41545658057514z" style="fill:rgb(158,237,183)"/><path d="M-176.69268941484106,-69.3972930731656L-176.50615840250532,-68.41545658057514L-175.72666928530379,-67.79127884735448zM-170.13421450510833,-69.78529253912386L-169.00347395746837,-72.14160610340276L-170.27002337459723,-73.55102406496734z" style="fill:rgb(83,212,212)"/><path d="M-176.1848310412114,-68.05063742897183L-176.8280578843897,-68.66278178651537L-176.3635472000941,-68.22071121419798z" style="fill:rgb(37,157,212)"/><path d="M-168.54950068884747,-74.52111875895874L-169.1888747910834,-70.85444735707877L-169.16202391796617,-71.00842816510655z" style="fill:rgb(255,127,127)"/><path d="M-175.8268373605868,-71.18143151241343L-175.72666928530379,-67.79127884735448L-170.13421450510833,-69.78529253912386zM-176.50615840250532,-68.41545658057514L-176.3635472000941,-68.22071121419798L-176.1848310412114,-68.05063742897183z" style="fill:rgb(83,212,212)"/><path d="M-168.54950068884747,-74.52111875895874L-169.2453334424826,-70.53066898652841L-169.21657742535427,-70.6955770124462z" style="fill:rgb(255,127,127)"/><path d="M-169.06284102241582,-71.58764918763659L-169.01341957682612,-71.87106925134837L-169.00347395746837,-72.14160610340276zM-176.50615840250532,-68.41545658057514L-176.1848310412114,-68.05063742897183L-175.72666928530379,-67.79127884735448zM-169.2778269392579,-70.99392055080851L-169.06284102241582,-71.58764918763659L-169.00347395746837,-72.14160610340276z" style="fill:rgb(83,212,212)"/><path d="M-168.54950068884747,-74.52111875895874L-169.34034271695526,-69.98580935914337L-169.30693778025525,-70.17737795054715z" style="fill:rgb(255,127,127)"/><path d="M-175.45187040295008,-67.7047274144919L-176.9182782202173,-68.1666211659684L-175.72666928530379,-67.79127884735448z" style="fill:rgb(78,204,216)"/><path d="M-176.1848310412114,-68.05063742897183L-175.97181880905342,-67.90698639430956L-175.72666928530379,-67.79127884735448zM-169.2778269392579,-70.99392055080851L-169.15126338361847,-71.2942609602246L-169.06284102241582,-71.58764918763659z" style="fill:rgb(83,212,212)"/><path d="M-168.54950068884747,-74.52111875895874L-169.41414997837362,-69.56254202001149L-169.3759377574983,-69.7816777394935z" style="fill:rgb(255,127,127)"/><path d="M-170.13421450510833,-69.78529253912386L-169.2778269392579,-70.99392055080851L-169.00347395746837,-72.14160610340276zM-175.72666928530379,-67.79127884735448L-175.45187040295008,-67.7047274144919L-175.1502460487867,-67.64823746213183z" style="fill:rgb(83,212,212)"/><path d="M-168.54950068884747,-74.52111875895874L-169.5257435891077,-68.92257637166797L-169.5006358136843,-69.06655925274174z" style="fill:rgb(255,127,127)"/><path d="M-174.47916061007314,-67.62756775214413L-177.02318173328018,-67.58971627101145L-174.8248956857781,-67.62242026252584z" style="fill:rgb(70,82,232)"/><path d="M-169.63985443111952,-70.38477575119249L-169.4412485831552,-70.68970650537864L-169.2778269392579,-70.99392055080851zM-175.72666928530379,-67.79127884735448L-175.1502460487867,-67.64823746213183L-174.47916061007314,-67.62756775214413z" style="fill:rgb(83,212,212)"/><path d="M-169.16202391796617,-71.00842816510655L-169.87164620239412,-70.08225997131872L-169.63985443111952,-70.38477575119249z" style="fill:rgb(115,203,228)"/><path d="M-170.13421450510833,-69.78529253912386L-169.63985443111952,-70.38477575119249L-169.2778269392579,-70.99392055080851zM-175.1502460487867,-67.64823746213183L-174.8248956857781,-67.62242026252584L-174.47916061007314,-67.62756775214413z" style="fill:rgb(83,212,212)"/><path d="M-173.60305071248837,-67.7547336927283L-177.10617265382731,-67.13331333197347L-174.1166003498641,-67.66363297183096z" style="fill:rgb(100,52,227)"/><path d="M-175.72666928530379,-67.79127884735448L-174.47916061007314,-67.62756775214413L-172.9660539655149,-67.95222214701218zM-175.72666928530379,-67.79127884735448L-172.9660539655149,-67.95222214701218L-170.13421450510833,-69.78529253912386zM-170.13421450510833,-69.78529253912386L-169.87164620239412,-70.08225997131872L-169.63985443111952,-70.38477575119249z" style="fill:rgb(83,212,212)"/><path d="M-169.21657742535427,-70.6955770124462L-170.42489791663803,-69.49695031299422L-170.13421450510833,-69.78529253912386z" style="fill:rgb(126,189,238)"/><path d="M-174.47916061007314,-67.62756775214413L-174.1166003498641,-67.66363297183096L-173.74097114842715,-67.73027012312382zM-170.74067024603426,-69.22021495120346L-170.42489791663803,-69.49695031299422L-170.13421450510833,-69.78529253912386z" style="fill:rgb(83,212,212)"/><path d="M-169.27536799942683,-70.35842718360547L-171.07829937346298,-68.95795945740925L-170.74067024603426,-69.22021495120346z" style="fill:rgb(142,156,250)"/><path d="M-174.47916061007314,-67.62756775214413L-173.74097114842715,-67.73027012312382L-172.9660539655149,-67.95222214701218zM-171.43427207015026,-68.71290199525075L-170.74067024603426,-69.22021495120346L-170.13421450510833,-69.78529253912386zM-172.9660539655149,-67.95222214701218L-171.43427207015026,-68.71290199525075L-170.13421450510833,-69.78529253912386z" style="fill:rgb(83,212,212)"/><path d="M-173.31861213442346,-67.83620430252533L-173.74097114842715,-67.73027012312382L-173.356123143436,-67.8267957809651z" style="fill:rgb(145,4,157)"/><path d="M-173.74097114842715,-67.73027012312382L-173.356123143436,-67.8267957809651L-172.9660539655149,-67.95222214701218zM-171.43427207015026,-68.71290199525075L-171.07829937346298,-68.95795945740925L-170.74067024603426,-69.22021495120346z" style="fill:rgb(83,212,212)"/><path d="M-169.34034271695526,-69.98580935914337L-171.80492756745127,-68.48757942849444L-171.43427207015026,-68.71290199525075z" style="fill:rgb(140,129,254)"/><path d="M-172.9660539655149,-67.95222214701218L-172.1864211359459,-68.2843334052822L-171.43427207015026,-68.71290199525075zM-172.9660539655149,-67.95222214701218L-172.57480456088715,-68.1052639880194L-172.1864211359459,-68.2843334052822zM-172.1864211359459,-68.2843334052822L-171.80492756745127,-68.48757942849444L-171.43427207015026,-68.71290199525075z" style="fill:rgb(83,212,212)"/><path d="M-169.41414997837362,-69.56254202001149L-172.57480456088715,-68.1052639880194L-172.1864211359459,-68.2843334052822z" style="fill:rgb(121,122,254)"/><path d="M-169.5006358136843,-69.06655925274174L-173.356123143436,-67.8267957809651L-172.9660539655149,-67.95222214701218z" style="fill:rgb(103,114,252)"/><path d="M90.49287237643873,-143.39809836933986L-190.5143446369629,-62.910936361815594L-177.1794418607265,-66.73036943014131z" style="fill:rgb(114,65,238)"/><path d="M90.49287237643873,-143.39809836933986L-173.356123143436,-67.8267957809651L-173.31861213442346,-67.83620430252533z" style="fill:rgb(83,212,212)"/><path d="M-211.5172496586123,44.922305641802616L-189.42314066330343,-68.51378285173283L-190.51532677804704,-62.91243172405249z" style="fill:rgb(247,158,158)"/><path d="M134.45662148505187,-179.31013391975816L-191.41841479074037,-84.15415556421799L-216.03996535023967,38.93693604635081z" style="fill:rgb(83,212,212)"/><path d="M136.77855402297104,-172.2376389065556L136.77492793311237,-172.2625787698059L136.77435199560082,-172.26433207943865zM138.26139767866033,-162.8198837515632L136.77492793311237,-172.2625787698059L136.77855402297104,-172.2376389065556zM138.26139767866033,-162.8198837515632L136.77855402297104,-172.2376389065556L138.260817648097,-162.82164235526767zM136.77855402297104,-172.2376389065556L138.260817648097,-162.82164235526767L138.26139767866033,-162.8198837515632zM136.77855402297104,-172.2376389065556L139.12538327687767,-157.32952462469552L139.12596519758625,-157.32776254717407zM139.12596519758625,-157.32776254717407L138.26139767866033,-162.8198837515632L138.260817648097,-162.82164235526767zM139.12596519758625,-157.32776254717407L138.260817648097,-162.82164235526767L139.12538327687767,-157.32952462469552z" style="fill:rgb(247,158,158)"/><path d="M178.4087303102331,80.9400721816379L178.54996655203865,81.25345733231117L126.72016781284084,-57.96388668068868z" style="fill:rgb(10,79,115)"/><path d="M178.54996655203865,81.25345733231117L178.73293000658262,81.54862400883684L126.91063814216422,-57.677026620246956z" style="fill:rgb(13,71,125)"/><path d="M178.73293000658262,81.54862400883684L178.95576738819793,81.82251391560317L127.14681399256025,-57.414394366114095z" style="fill:rgb(17,63,134)"/><path d="M178.95576738819793,81.82251391560317L179.21621720564363,82.0723109701783L127.42632939361958,-57.17871734894482z" style="fill:rgb(22,56,144)"/><path d="M136.22584334150943,-61.519931151076285L186.90840686405966,78.30313657061747L186.8074758697116,77.97511741400001z" style="fill:rgb(246,167,149)"/><path d="M179.21621720564363,82.0723109701783L179.5116538490434,82.29541134713072L127.74634484894351,-56.97245084996879z" style="fill:rgb(29,50,153)"/><path d="M136.27323965489455,-61.179101541751635L186.96519207926718,78.6432326216852L186.90840686405966,78.30313657061747z" style="fill:rgb(247,158,158)"/><path d="M179.5116538490434,82.29541134713072L179.8390540411869,82.48949609397933L128.1036222401631,-56.79774103300515z" style="fill:rgb(36,45,162)"/><path d="M136.2700727662425,-60.82651212141521L186.97720629459346,78.991905493358L186.96519207926718,78.6432326216852z" style="fill:rgb(246,149,167)"/><path d="M179.8390540411869,82.48949609397933L180.19509257221628,82.6525406924375L128.49450968127167,-56.65643153746839z" style="fill:rgb(44,40,171)"/><path d="M136.21630211155238,-60.4657875691571L186.94429497721958,79.34557513453707L186.97720629459346,78.991905493358z" style="fill:rgb(244,139,175)"/><path d="M180.19509257221628,82.6525406924375L180.5760963083461,82.78284099916009L128.9150039930182,-56.55000824879959z" style="fill:rgb(54,37,179)"/><path d="M136.11244221619566,-60.10063939405617L186.86675450080844,79.70059083735437L186.94429497721958,79.34557513453707z" style="fill:rgb(241,129,183)"/><path d="M180.5760963083461,82.78284099916009L180.97818185846583,82.87901647849218L129.36079243921637,-56.4795983959645z" style="fill:rgb(64,34,187)"/><path d="M135.95954424725778,-59.73484651697507L186.745366996257,80.05329522556141L186.86675450080844,79.70059083735437z" style="fill:rgb(237,120,191)"/><path d="M180.97818185846583,82.87901647849218L181.3971940770059,82.94006181783672L129.82729910575216,-56.44596854192653z" style="fill:rgb(74,32,194)"/><path d="M135.75911057239344,-59.37218018496743L186.5813251904713,80.40003385874488L186.745366996257,80.05329522556141z" style="fill:rgb(232,110,198)"/><path d="M181.3971940770059,82.94006181783672L181.82881976077908,82.96531050449694L130.30969508897937,-56.449488808577875z" style="fill:rgb(85,32,201)"/><path d="M135.51320710122712,-59.01640283075759L186.3763331809361,80.73723295613225L186.5813251904713,80.40003385874488z" style="fill:rgb(225,101,204)"/><path d="M181.82881976077908,82.96531050449694L182.26860504212362,82.95449159274159L130.80299619384945,-56.490151739295705z" style="fill:rgb(97,32,207)"/><path d="M135.22435401514346,-58.67119974242232L186.13244922826658,81.06138912876483L186.3763331809361,80.73723295613225z" style="fill:rgb(218,92,209)"/><path d="M182.26860504212362,82.95449159274159L182.71200279954164,82.90768624837281L131.30212450000667,-56.5675551878183z" style="fill:rgb(109,33,211)"/><path d="M134.89551266171543,-58.34015095810783L185.85221240219295,81.36914738112335L186.13244922826658,81.06138912876483z" style="fill:rgb(210,83,214)"/><path d="M182.71200279954164,82.90768624837281L183.15441747968137,82.82537038791499L131.80190274883657,-56.6809235333276z" style="fill:rgb(121,35,215)"/><path d="M134.5300564234474,-58.02669917694809L185.5384817134512,81.6573101531961L185.85221240219295,81.36914738112335z" style="fill:rgb(200,75,217)"/><path d="M183.15441747968137,82.82537038791499L183.59128980529073,82.70838235608593L132.29714571227976,-56.82908610489924z" style="fill:rgb(133,39,219)"/><path d="M134.13177594392002,-57.734100003816174L185.19452168774228,81.92288857959937L185.5384817134512,81.6573101531961z" style="fill:rgb(190,67,220)"/><path d="M183.59128980529073,82.70838235608593L184.01807633390112,82.55791844892988L132.78270926245287,-57.01052729268114z" style="fill:rgb(145,43,221)"/><path d="M184.82386607211424,82.16313107084918L185.19452168774228,81.92288857959937L134.13177594392002,-57.734100003816174z" style="fill:rgb(180,60,222)"/><path d="M184.01807633390112,82.55791844892988L184.43035969042865,82.37553957054483L133.25354549745236,-57.22336229235462z" style="fill:rgb(157,47,222)"/><path d="M184.43035969042865,82.37553957054483L184.82386607211424,82.16313107084918L133.70479845289634,-57.46538808529444z" style="fill:rgb(169,53,222)"/><path d="M153.41948745841938,-57.76667852186009L136.77855402297104,-172.2376389065556L136.77435199560082,-172.26433207943865zM153.41948745841938,-57.76667852186009L136.77435199560082,-172.26433207943865L134.45662148505187,-179.31013391975816z" style="fill:rgb(247,158,158)"/><path d="M136.77855402297104,-172.2376389065556L155.93717124640557,-50.53346216330475L139.12538327687767,-157.32952462469552z" style="fill:rgb(0,127,127)"/><path d="M155.93717124640557,-50.53346216330475L139.12596519758625,-157.32776254717407L139.12538327687767,-157.32952462469552z" style="fill:rgb(247,158,158)"/><path d="M-216.03996535023967,38.93693604635081L153.41948745841938,-57.76667852186009L134.45662148505187,-179.31013391975816z" style="fill:rgb(83,212,212)"/><path d="M126.72016781284084,-57.96388668068868L126.57732305139952,-58.27200477347369L178.4087303102331,80.9400721816379z" style="fill:rgb(10,79,115)"/><path d="M126.91063814216422,-57.677026620246956L126.72016781284084,-57.96388668068868L178.54996655203865,81.25345733231117z" style="fill:rgb(13,71,125)"/><path d="M127.14681399256025,-57.414394366114095L126.91063814216422,-57.677026620246956L178.73293000658262,81.54862400883684z" style="fill:rgb(17,63,134)"/><path d="M127.42632939361958,-57.17871734894482L127.14681399256025,-57.414394366114095L178.95576738819793,81.82251391560317z" style="fill:rgb(22,56,144)"/><path d="M186.8074758697116,77.97511741400001L136.12842248352922,-61.845506088342454L136.22584334150943,-61.519931151076285z" style="fill:rgb(246,167,149)"/><path d="M127.74634484894351,-56.97245084996879L127.42632939361958,-57.17871734894482L179.21621720564363,82.0723109701783z" style="fill:rgb(29,50,153)"/><path d="M186.90840686405966,78.30313657061747L136.22584334150943,-61.519931151076285L136.27323965489455,-61.179101541751635z" style="fill:rgb(247,158,158)"/><path d="M128.1036222401631,-56.79774103300515L127.74634484894351,-56.97245084996879L179.5116538490434,82.29541134713072z" style="fill:rgb(36,45,162)"/><path d="M186.96519207926718,78.6432326216852L136.27323965489455,-61.179101541751635L136.2700727662425,-60.82651212141521z" style="fill:rgb(246,149,167)"/><path d="M128.49450968127167,-56.65643153746839L128.1036222401631,-56.79774103300515L179.8390540411869,82.48949609397933z" style="fill:rgb(44,40,171)"/><path d="M186.97720629459346,78.991905493358L136.2700727662425,-60.82651212141521L136.21630211155238,-60.4657875691571z" style="fill:rgb(244,139,175)"/><path d="M128.9150039930182,-56.55000824879959L128.49450968127167,-56.65643153746839L180.19509257221628,82.6525406924375z" style="fill:rgb(54,37,179)"/><path d="M186.94429497721958,79.34557513453707L136.21630211155238,-60.4657875691571L136.11244221619566,-60.10063939405617z" style="fill:rgb(241,129,183)"/><path d="M129.36079243921637,-56.4795983959645L128.9150039930182,-56.55000824879959L180.5760963083461,82.78284099916009z" style="fill:rgb(64,34,187)"/><path d="M186.86675450080844,79.70059083735437L136.11244221619566,-60.10063939405617L135.95954424725778,-59.73484651697507z" style="fill:rgb(237,120,191)"/><path d="M129.82729910575216,-56.44596854192653L129.36079243921637,-56.4795983959645L180.97818185846583,82.87901647849218z" style="fill:rgb(74,32,194)"/><path d="M186.745366996257,80.05329522556141L135.95954424725778,-59.73484651697507L135.75911057239344,-59.37218018496743z" style="fill:rgb(232,110,198)"/><path d="M130.30969508897937,-56.449488808577875L129.82729910575216,-56.44596854192653L181.3971940770059,82.94006181783672z" style="fill:rgb(85,32,201)"/><path d="M186.5813251904713,80.40003385874488L135.75911057239344,-59.37218018496743L135.51320710122712,-59.01640283075759z" style="fill:rgb(225,101,204)"/><path d="M130.80299619384945,-56.490151739295705L130.30969508897937,-56.449488808577875L181.82881976077908,82.96531050449694z" style="fill:rgb(97,32,207)"/><path d="M186.3763331809361,80.73723295613225L135.51320710122712,-59.01640283075759L135.22435401514346,-58.67119974242232z" style="fill:rgb(218,92,209)"/><path d="M131.30212450000667,-56.5675551878183L130.80299619384945,-56.490151739295705L182.26860504212362,82.95449159274159z" style="fill:rgb(109,33,211)"/><path d="M186.13244922826658,81.06138912876483L135.22435401514346,-58.67119974242232L134.89551266171543,-58.34015095810783z" style="fill:rgb(210,83,214)"/><path d="M131.80190274883657,-56.6809235333276L131.30212450000667,-56.5675551878183L182.71200279954164,82.90768624837281z" style="fill:rgb(121,35,215)"/><path d="M185.85221240219295,81.36914738112335L134.89551266171543,-58.34015095810783L134.5300564234474,-58.02669917694809z" style="fill:rgb(200,75,217)"/><path d="M132.29714571227976,-56.82908610489924L131.80190274883657,-56.6809235333276L183.15441747968137,82.82537038791499z" style="fill:rgb(133,39,219)"/><path d="M185.5384817134512,81.6573101531961L134.5300564234474,-58.02669917694809L134.13177594392002,-57.734100003816174z" style="fill:rgb(190,67,220)"/><path d="M132.78270926245287,-57.01052729268114L132.29714571227976,-56.82908610489924L183.59128980529073,82.70838235608593z" style="fill:rgb(145,43,221)"/><path d="M134.13177594392002,-57.734100003816174L133.70479845289634,-57.46538808529444L184.82386607211424,82.16313107084918z" style="fill:rgb(180,60,222)"/><path d="M133.25354549745236,-57.22336229235462L132.78270926245287,-57.01052729268114L184.01807633390112,82.55791844892988z" style="fill:rgb(157,47,222)"/><path d="M133.70479845289634,-57.46538808529444L133.25354549745236,-57.22336229235462L184.43035969042865,82.37553957054483z" style="fill:rgb(169,53,222)"/><path d="M155.93779579000267,-50.5316670289091L-211.52401037941928,44.957018680589826L-211.522888023028,44.958516883645814zM155.83651167079685,-50.50730196778328L-216.03996535023967,38.93693604635081L-211.52401037941928,44.957018680589826z" style="fill:rgb(127,37,217)"/><path d="M136.77855402297104,-172.2376389065556L153.41948745841938,-57.76667852186009L155.93717124640557,-50.53346216330475zM155.93717124640557,-50.53346216330475L155.93779579000267,-50.5316670289091L139.12596519758625,-157.32776254717407z" style="fill:rgb(247,158,158)"/><path d="M155.93779579000267,-50.5316670289091L155.83651167079685,-50.50730196778328L-211.52401037941928,44.957018680589826zM-216.03996535023967,38.93693604635081L155.83651167079685,-50.50730196778328L155.93717124640557,-50.53346216330475zM-216.03996535023967,38.93693604635081L155.93717124640557,-50.53346216330475L153.41948745841938,-57.76667852186009z" style="fill:rgb(127,37,217)"/><path d="M129.92718436141567,-63.08286445056838L129.4598277883968,-62.87139750126534L129.01179031624386,-62.63116335098791zM129.01179031624386,-62.63116335098791L128.58762476801718,-62.36460468368139L128.1916602340502,-62.07441703388816zM130.900813282533,-63.411218776887075L129.92718436141567,-63.08286445056838L129.01179031624386,-62.63116335098791zM130.900813282533,-63.411218776887075L130.40914631301987,-63.26341720997405L129.92718436141567,-63.08286445056838zM129.01179031624386,-62.63116335098791L128.1916602340502,-62.07441703388816L127.50008990062153,-61.435145602690696zM130.900813282533,-63.411218776887075L129.01179031624386,-62.63116335098791L127.50008990062153,-61.435145602690696zM128.1916602340502,-62.07441703388816L127.82791408578598,-61.763547677937254L127.50008990062153,-61.435145602690696zM131.89322342838386,-63.60285375714714L131.3971876086373,-63.524752955406925L130.900813282533,-63.411218776887075zM132.86415832780543,-63.64988001294565L131.89322342838386,-63.60285375714714L130.900813282533,-63.411218776887075zM127.50008990062153,-61.435145602690696L127.21153835300844,-61.092539345615L126.96522353036096,-60.73920264492241zM132.86415832780543,-63.64988001294565L132.38387015189014,-63.644713212852935L131.89322342838386,-63.60285375714714zM134.5861943312539,-63.3076328326896L130.900813282533,-63.411218776887075L127.50008990062153,-61.435145602690696zM127.50008990062153,-61.435145602690696L126.96522353036096,-60.73920264492241L126.44605279086888,-59.291292926938205zM126.96522353036096,-60.73920264492241L126.76366362823616,-60.378730508923105L126.60895539028915,-60.01478029525481zM134.5861943312539,-63.3076328326896L132.86415832780543,-63.64988001294565L130.900813282533,-63.411218776887075zM133.7741971242246,-63.5502024026482L133.32918245236678,-63.6182794717752L132.86415832780543,-63.64988001294565zM126.96522353036096,-60.73920264492241L126.60895539028915,-60.01478029525481L126.44605279086888,-59.291292926938205zM134.5861943312539,-63.3076328326896L133.7741971242246,-63.5502024026482L132.86415832780543,-63.64988001294565zM126.60895539028915,-60.01478029525481L126.5027040632237,-59.651065708883245L126.44605279086888,-59.291292926938205zM134.5861943312539,-63.3076328326896L134.19464301097327,-63.44630848057335L133.7741971242246,-63.5502024026482zM126.44605279086888,-59.291292926938205L126.43960551938271,-58.93913539498021L126.48349399871609,-58.598207675430636zM127.50008990062153,-61.435145602690696L126.44605279086888,-59.291292926938205L127.74634484894351,-56.97245084996879zM135.26687445612905,-62.93179476075623L134.94483568135996,-63.13555339887185L134.5861943312539,-63.3076328326896zM126.44605279086888,-59.291292926938205L126.48349399871609,-58.598207675430636L126.72016781284084,-57.96388668068868zM135.78817591500354,-62.437766087873655L135.26687445612905,-62.93179476075623L134.5861943312539,-63.3076328326896zM126.48349399871609,-58.598207675430636L126.57732305139952,-58.27200477347369L126.72016781284084,-57.96388668068868zM135.78817591500354,-62.437766087873655L135.5489746819362,-62.698411884394524L135.26687445612905,-62.93179476075623zM134.89551266171543,-58.34015095810783L134.5861943312539,-63.3076328326896L127.50008990062153,-61.435145602690696zM126.44605279086888,-59.291292926938205L126.72016781284084,-57.96388668068868L127.74634484894351,-56.97245084996879zM136.27323965489455,-61.179101541751635L135.78817591500354,-62.437766087873655L134.5861943312539,-63.3076328326896zM126.72016781284084,-57.96388668068868L126.91063814216422,-57.677026620246956L127.14681399256025,-57.414394366114095zM136.12842248352922,-61.845506088342454L135.98201109479078,-62.15249591770304L135.78817591500354,-62.437766087873655zM127.50008990062153,-61.435145602690696L127.74634484894351,-56.97245084996879L134.89551266171543,-58.34015095810783zM126.72016781284084,-57.96388668068868L127.14681399256025,-57.414394366114095L127.74634484894351,-56.97245084996879zM136.27323965489455,-61.179101541751635L136.12842248352922,-61.845506088342454L135.78817591500354,-62.437766087873655zM127.14681399256025,-57.414394366114095L127.42632939361958,-57.17871734894482L127.74634484894351,-56.97245084996879zM136.27323965489455,-61.179101541751635L136.22584334150943,-61.519931151076285L136.12842248352922,-61.845506088342454zM134.89551266171543,-58.34015095810783L136.27323965489455,-61.179101541751635L134.5861943312539,-63.3076328326896zM127.74634484894351,-56.97245084996879L128.1036222401631,-56.79774103300515L128.49450968127167,-56.65643153746839zM136.21630211155238,-60.4657875691571L136.2700727662425,-60.82651212141521L136.27323965489455,-61.179101541751635zM127.74634484894351,-56.97245084996879L128.49450968127167,-56.65643153746839L129.36079243921637,-56.4795983959645zM135.95954424725778,-59.73484651697507L136.21630211155238,-60.4657875691571L136.27323965489455,-61.179101541751635zM128.49450968127167,-56.65643153746839L128.9150039930182,-56.55000824879959L129.36079243921637,-56.4795983959645zM135.95954424725778,-59.73484651697507L136.11244221619566,-60.10063939405617L136.21630211155238,-60.4657875691571zM127.74634484894351,-56.97245084996879L129.36079243921637,-56.4795983959645L131.30212450000667,-56.5675551878183zM134.89551266171543,-58.34015095810783L135.95954424725778,-59.73484651697507L136.27323965489455,-61.179101541751635zM127.74634484894351,-56.97245084996879L131.30212450000667,-56.5675551878183L134.89551266171543,-58.34015095810783zM129.36079243921637,-56.4795983959645L129.82729910575216,-56.44596854192653L130.30969508897937,-56.449488808577875zM135.51320710122712,-59.01640283075759L135.75911057239344,-59.37218018496743L135.95954424725778,-59.73484651697507zM129.36079243921637,-56.4795983959645L130.30969508897937,-56.449488808577875L131.30212450000667,-56.5675551878183zM134.89551266171543,-58.34015095810783L135.51320710122712,-59.01640283075759L135.95954424725778,-59.73484651697507zM130.30969508897937,-56.449488808577875L130.80299619384945,-56.490151739295705L131.30212450000667,-56.5675551878183zM134.89551266171543,-58.34015095810783L135.22435401514346,-58.67119974242232L135.51320710122712,-59.01640283075759zM131.30212450000667,-56.5675551878183L131.80190274883657,-56.6809235333276L132.29714571227976,-56.82908610489924zM131.30212450000667,-56.5675551878183L133.25354549745236,-57.22336229235462L134.89551266171543,-58.34015095810783zM134.13177594392002,-57.734100003816174L134.5300564234474,-58.02669917694809L134.89551266171543,-58.34015095810783zM131.30212450000667,-56.5675551878183L132.29714571227976,-56.82908610489924L133.25354549745236,-57.22336229235462zM133.25354549745236,-57.22336229235462L134.13177594392002,-57.734100003816174L134.89551266171543,-58.34015095810783zM132.29714571227976,-56.82908610489924L132.78270926245287,-57.01052729268114L133.25354549745236,-57.22336229235462zM133.25354549745236,-57.22336229235462L133.70479845289634,-57.46538808529444L134.13177594392002,-57.734100003816174z" style="fill:rgb(83,212,212)"/><path d="M155.83651167079685,-50.50730196778328L155.93779579000267,-50.5316670289091L155.93717124640557,-50.53346216330475z" style="fill:rgb(127,37,217)"/></svg>
