<?xml version="1.0" encoding="UTF-8"?>
<!-- Generated by jsxcad -->
<!DOCTYPE svg PUBLIC "-//W3C//DTD SVG 1.1 Tiny//EN" "http://www.w3.org/Graphics/SVG/1.1/DTD/svg11-tiny.dtd">
<svg viewBox="-250 -250 500 500" width="500" height="500" xmlns="http://www.w3.org/2000/svg"><path d="M134.24920386427362,-180.6395807941929L-191.14610935692582,-85.51550166260184L-215.69316578014417,37.2031728720951z" style="fill:rgb(83,212,212)"/><path d="M-31.670680794306225,-4.362260443843696L38.53680597140464,124.97750258439991L38.40204873238383,124.67572358134959z" style="fill:rgb(241,183,129)"/><path d="M30.818311784055616,128.7636535782271L30.98964698606921,129.04576672573913L-40.295472725179216,0.25732053438287905z" style="fill:rgb(17,63,134)"/><path d="M-31.587701138831573,-4.043123382378573L38.63133970216508,125.29733970743051L38.53680597140464,124.97750258439991z" style="fill:rgb(244,175,139)"/><path d="M30.98964698606921,129.04576672573913L31.198265741561396,129.304170130778L-40.082486268324516,0.5068872009757023z" style="fill:rgb(22,56,144)"/><path d="M-31.551340389942748,-3.706265891867941L38.68463343443856,125.63199500569944L38.63133970216508,125.29733970743051z" style="fill:rgb(246,167,149)"/><path d="M31.198265741561396,129.304170130778L31.442061586900056,129.5361928268036L-39.82876765427198,0.7273835352051239z" style="fill:rgb(29,50,153)"/><path d="M-31.562019335028378,-3.3551366868501704L38.69610621990429,125.97802964617627L38.68463343443856,125.63199500569944z" style="fill:rgb(247,158,158)"/><path d="M31.442061586900056,129.5361928268036L31.718558299258632,129.7394049578935L-39.536886383303724,0.9165093831751302z" style="fill:rgb(36,45,162)"/><path d="M-31.619675964754137,-2.99333848802122L38.6656028680526,126.33187577475513L38.69610621990429,125.97802964617627z" style="fill:rgb(246,149,167)"/><path d="M31.718558299258632,129.7394049578935L32.02493265734859,129.91168925155347L-39.20981647312198,1.0722843591765487z" style="fill:rgb(44,40,171)"/><path d="M-31.72376304940398,-2.624591702448295L38.59339698109017,126.6898928637325L38.6656028680526,126.33187577475513z" style="fill:rgb(244,139,175)"/><path d="M32.02493265734859,129.91168925155347L32.3580507094785,130.0512599898593L-38.85089931344632,1.193069698747446z" style="fill:rgb(54,37,179)"/><path d="M-31.873251506824705,-2.252695528757528L38.4802070353364,127.048411391173L38.59339698109017,126.6898928637325z" style="fill:rgb(241,129,183)"/><path d="M32.3580507094785,130.0512599898593L32.714497765956914,130.15664211561193L-38.46381122702494,1.2775870638160503z" style="fill:rgb(64,34,187)"/><path d="M-32.06663080135937,-1.8814890798940678L38.32716616513045,127.40372419762075L38.4802070353364,127.048411391173z" style="fill:rgb(237,120,191)"/><path d="M32.714497765956914,130.15664211561193L33.0906120883048,130.22672924479528L-38.052525682131964,1.3249327316516324z" style="fill:rgb(74,32,194)"/><path d="M-32.30194271152513,-1.514810261320998L38.13582444254615,127.75215678634244L38.32716616513045,127.40372419762075z" style="fill:rgb(232,110,198)"/><path d="M33.0906120883048,130.22672924479528L33.48251888682907,130.26074896788546L-37.62128159627265,1.3345892200914873z" style="fill:rgb(85,32,201)"/><path d="M-32.5767769137815,-1.156455954101575L37.908140807844774,128.0901111393946L38.13582444254615,127.75215678634244z" style="fill:rgb(225,101,204)"/><path d="M33.48251888682907,130.26074896788546L33.88617791998008,130.25835975686465L-37.174525531858535,1.3064308544478338z" style="fill:rgb(97,32,207)"/><path d="M-32.88831509853962,-0.810141030745331L37.64644496772331,128.41407022322244L37.908140807844774,128.0901111393946z" style="fill:rgb(218,92,209)"/><path d="M33.88617791998008,130.25835975686465L34.29741815409406,130.2195494477176L-36.71687620657982,1.2407268797295314z" style="fill:rgb(109,33,211)"/><path d="M-33.23335397959074,-0.4794590825174901L37.35343490967991,128.72068103650142L37.64644496772331,128.41407022322244z" style="fill:rgb(210,83,214)"/><path d="M34.29741815409406,130.2195494477176L34.71198584555886,130.14471751096949L-36.253071773407285,1.1381394786773031z" style="fill:rgb(121,35,215)"/><path d="M-33.6083325787598,-0.16784367941597672L37.03212129252829,129.00677187522473L37.35343490967991,128.72068103650142z" style="fill:rgb(200,75,217)"/><path d="M34.71198584555886,130.14471751096949L35.125592885053344,130.0345987940479L-35.787910811128164,0.9997172143241149z" style="fill:rgb(133,39,219)"/><path d="M-34.00936851810119,0.12146849027323135L36.68583053474386,129.269368928206L37.03212129252829,129.00677187522473z" style="fill:rgb(190,67,220)"/><path d="M35.125592885053344,130.0345987940479L35.53395863340777,129.89035773014126L-35.32622370260134,0.8268844407064495z" style="fill:rgb(145,43,221)"/><path d="M36.31813824730982,129.50575203926638L36.68583053474386,129.269368928206L-34.00936851810119,0.12146849027323135z" style="fill:rgb(180,60,222)"/><path d="M35.53395863340777,129.89035773014126L35.93285166685568,129.71347048569615L-34.872788936398976,0.6214268606535035z" style="fill:rgb(157,47,222)"/><path d="M35.93285166685568,129.71347048569615L36.31813824730982,129.50575203926638L-34.43231543966489,0.38547235227392135z" style="fill:rgb(169,53,222)"/><path d="M38.40204873238383,124.67572358134959L-31.7993807058171,-4.660419284359224L-31.670680794306225,-4.362260443843696z" style="fill:rgb(241,183,129)"/><path d="M-40.295472725179216,0.25732053438287905L-40.4655865940162,-0.018721552710027522L30.818311784055616,128.7636535782271z" style="fill:rgb(17,63,134)"/><path d="M38.53680597140464,124.97750258439991L-31.670680794306225,-4.362260443843696L-31.587701138831573,-4.043123382378573z" style="fill:rgb(244,175,139)"/><path d="M-40.082486268324516,0.5068872009757023L-40.295472725179216,0.25732053438287905L30.98964698606921,129.04576672573913z" style="fill:rgb(22,56,144)"/><path d="M38.63133970216508,125.29733970743051L-31.587701138831573,-4.043123382378573L-31.551340389942748,-3.706265891867941z" style="fill:rgb(246,167,149)"/><path d="M-39.82876765427198,0.7273835352051239L-40.082486268324516,0.5068872009757023L31.198265741561396,129.304170130778z" style="fill:rgb(29,50,153)"/><path d="M38.68463343443856,125.63199500569944L-31.551340389942748,-3.706265891867941L-31.562019335028378,-3.3551366868501704z" style="fill:rgb(247,158,158)"/><path d="M-39.536886383303724,0.9165093831751302L-39.82876765427198,0.7273835352051239L31.442061586900056,129.5361928268036z" style="fill:rgb(36,45,162)"/><path d="M38.69610621990429,125.97802964617627L-31.562019335028378,-3.3551366868501704L-31.619675964754137,-2.99333848802122z" style="fill:rgb(246,149,167)"/><path d="M-39.20981647312198,1.0722843591765487L-39.536886383303724,0.9165093831751302L31.718558299258632,129.7394049578935z" style="fill:rgb(44,40,171)"/><path d="M38.6656028680526,126.33187577475513L-31.619675964754137,-2.99333848802122L-31.72376304940398,-2.624591702448295z" style="fill:rgb(244,139,175)"/><path d="M-38.85089931344632,1.193069698747446L-39.20981647312198,1.0722843591765487L32.02493265734859,129.91168925155347z" style="fill:rgb(54,37,179)"/><path d="M38.59339698109017,126.6898928637325L-31.72376304940398,-2.624591702448295L-31.873251506824705,-2.252695528757528z" style="fill:rgb(241,129,183)"/><path d="M-38.46381122702494,1.2775870638160503L-38.85089931344632,1.193069698747446L32.3580507094785,130.0512599898593z" style="fill:rgb(64,34,187)"/><path d="M38.4802070353364,127.048411391173L-31.873251506824705,-2.252695528757528L-32.06663080135937,-1.8814890798940678z" style="fill:rgb(237,120,191)"/><path d="M-38.052525682131964,1.3249327316516324L-38.46381122702494,1.2775870638160503L32.714497765956914,130.15664211561193z" style="fill:rgb(74,32,194)"/><path d="M38.32716616513045,127.40372419762075L-32.06663080135937,-1.8814890798940678L-32.30194271152513,-1.514810261320998z" style="fill:rgb(232,110,198)"/><path d="M-37.62128159627265,1.3345892200914873L-38.052525682131964,1.3249327316516324L33.0906120883048,130.22672924479528z" style="fill:rgb(85,32,201)"/><path d="M38.13582444254615,127.75215678634244L-32.30194271152513,-1.514810261320998L-32.5767769137815,-1.156455954101575z" style="fill:rgb(225,101,204)"/><path d="M-37.174525531858535,1.3064308544478338L-37.62128159627265,1.3345892200914873L33.48251888682907,130.26074896788546z" style="fill:rgb(97,32,207)"/><path d="M37.908140807844774,128.0901111393946L-32.5767769137815,-1.156455954101575L-32.88831509853962,-0.810141030745331z" style="fill:rgb(218,92,209)"/><path d="M-36.71687620657982,1.2407268797295314L-37.174525531858535,1.3064308544478338L33.88617791998008,130.25835975686465z" style="fill:rgb(109,33,211)"/><path d="M37.64644496772331,128.41407022322244L-32.88831509853962,-0.810141030745331L-33.23335397959074,-0.4794590825174901z" style="fill:rgb(210,83,214)"/><path d="M-36.253071773407285,1.1381394786773031L-36.71687620657982,1.2407268797295314L34.29741815409406,130.2195494477176z" style="fill:rgb(121,35,215)"/><path d="M37.35343490967991,128.72068103650142L-33.23335397959074,-0.4794590825174901L-33.6083325787598,-0.16784367941597672z" style="fill:rgb(200,75,217)"/><path d="M-35.787910811128164,0.9997172143241149L-36.253071773407285,1.1381394786773031L34.71198584555886,130.14471751096949z" style="fill:rgb(133,39,219)"/><path d="M37.03212129252829,129.00677187522473L-33.6083325787598,-0.16784367941597672L-34.00936851810119,0.12146849027323135z" style="fill:rgb(190,67,220)"/><path d="M-35.32622370260134,0.8268844407064495L-35.787910811128164,0.9997172143241149L35.125592885053344,130.0345987940479z" style="fill:rgb(145,43,221)"/><path d="M-34.00936851810119,0.12146849027323135L-34.43231543966489,0.38547235227392135L36.31813824730982,129.50575203926638z" style="fill:rgb(180,60,222)"/><path d="M-34.872788936398976,0.6214268606535035L-35.32622370260134,0.8268844407064495L35.53395863340777,129.89035773014126z" style="fill:rgb(157,47,222)"/><path d="M-34.43231543966489,0.38547235227392135L-34.872788936398976,0.6214268606535035L35.93285166685568,129.71347048569615z" style="fill:rgb(169,53,222)"/><path d="M136.56515014329563,-173.59518586546537L134.24920386427362,-180.6395807941929L153.1494985223476,-59.497190314145264z" style="fill:rgb(247,158,158)"/><path d="M-215.69316578014417,37.2031728720951L153.1494985223476,-59.497190314145264L134.24920386427362,-180.6395807941929z" style="fill:rgb(83,212,212)"/><path d="M-215.69316578014417,37.2031728720951L-211.18537559097655,43.225541834405426L155.66517804967978,-52.26345799047782z" style="fill:rgb(127,37,217)"/><path d="M-36.932354503267064,-5.484358996352219L-37.38255987338551,-5.280174196336634L-37.8199689336929,-5.045926389990337zM-37.8199689336929,-5.045926389990337L-38.240141789585536,-4.783992953408512L-38.638807675152385,-4.497030809989634zM-36.0119298413036,-5.794559135783623L-36.932354503267064,-5.484358996352219L-37.8199689336929,-5.045926389990337zM-36.0119298413036,-5.794559135783623L-36.47392576144985,-5.656405316008564L-36.932354503267064,-5.484358996352219zM-37.8199689336929,-5.045926389990337L-38.638807675152385,-4.497030809989634L-39.35566027948038,-3.8598786782159693zM-36.0119298413036,-5.794559135783623L-37.8199689336929,-5.045926389990337L-39.35566027948038,-3.8598786782159693zM-38.638807675152385,-4.497030809989634L-39.01191346675338,-4.187948395729002L-39.35566027948038,-3.8598786782159693zM-35.09598791660937,-5.963890412716211L-35.551052701018186,-5.897406882373008L-36.0119298413036,-5.794559135783623zM-34.22169410492187,-5.985358912852347L-35.09598791660937,-5.963890412716211L-36.0119298413036,-5.794559135783623zM-39.35566027948038,-3.8598786782159693L-39.66654106799456,-3.516148363487571L-39.94137212465929,-3.1602452267816274zM-34.22169410492187,-5.985358912852347L-34.651356723984584,-5.993314684356902L-35.09598791660937,-5.963890412716211zM-32.73731568388695,-5.5864905209911635L-36.0119298413036,-5.794559135783623L-39.35566027948038,-3.8598786782159693zM-39.35566027948038,-3.8598786782159693L-39.94137212465929,-3.1602452267816274L-40.62980181125755,-1.6883460638153687zM-39.94137212465929,-3.1602452267816274L-40.17733419905094,-2.7957840004256793L-40.37200151142628,-2.4264704413816087zM-32.73731568388695,-5.5864905209911635L-34.22169410492187,-5.985358912852347L-36.0119298413036,-5.794559135783623zM-33.42462155276423,-5.857907877268872L-33.811383426275995,-5.940078707638359L-34.22169410492187,-5.985358912852347zM-39.94137212465929,-3.1602452267816274L-40.37200151142628,-2.4264704413816087L-40.62980181125755,-1.6883460638153687zM-32.73731568388695,-5.5864905209911635L-33.42462155276423,-5.857907877268872L-34.22169410492187,-5.985358912852347zM-40.37200151142628,-2.4264704413816087L-40.52334972951245,-2.0560651780003156L-40.62980181125755,-1.6883460638153687zM-32.73731568388695,-5.5864905209911635L-33.06536648909805,-5.7396535359911836L-33.42462155276423,-5.857907877268872zM-40.62980181125755,-1.6883460638153687L-40.690232343336405,-1.3270704861971725L-40.70397310153866,-0.9759374809508033zM-39.35566027948038,-3.8598786782159693L-40.62980181125755,-1.6883460638153687L-39.82876765427198,0.7273835352051239zM-32.188000628077326,-5.1819079240965396L-32.443849700426426,-5.399950270941646L-32.73731568388695,-5.5864905209911635zM-40.62980181125755,-1.6883460638153687L-40.70397310153866,-0.9759374809508033L-40.59111965714718,-0.31837756806676415zM-31.7993807058171,-4.660419284359224L-32.188000628077326,-5.1819079240965396L-32.73731568388695,-5.5864905209911635zM-40.70397310153866,-0.9759374809508033L-40.67083683491006,-0.638549847604381L-40.59111965714718,-0.31837756806676415zM-31.7993807058171,-4.660419284359224L-31.97242510842934,-4.9345628815475076L-32.188000628077326,-5.1819079240965396zM-33.23335397959074,-0.4794590825174901L-32.73731568388695,-5.5864905209911635L-39.35566027948038,-3.8598786782159693zM-40.62980181125755,-1.6883460638153687L-40.59111965714718,-0.31837756806676415L-39.82876765427198,0.7273835352051239zM-31.562019335028378,-3.3551366868501704L-31.7993807058171,-4.660419284359224L-32.73731568388695,-5.5864905209911635zM-40.59111965714718,-0.31837756806676415L-40.4655865940162,-0.018721552710027522L-40.295472725179216,0.25732053438287905zM-31.587701138831573,-4.043123382378573L-31.670680794306225,-4.362260443843696L-31.7993807058171,-4.660419284359224zM-39.35566027948038,-3.8598786782159693L-39.82876765427198,0.7273835352051239L-33.23335397959074,-0.4794590825174901zM-40.59111965714718,-0.31837756806676415L-40.295472725179216,0.25732053438287905L-39.82876765427198,0.7273835352051239zM-31.562019335028378,-3.3551366868501704L-31.587701138831573,-4.043123382378573L-31.7993807058171,-4.660419284359224zM-40.295472725179216,0.25732053438287905L-40.082486268324516,0.5068872009757023L-39.82876765427198,0.7273835352051239zM-31.562019335028378,-3.3551366868501704L-31.551340389942748,-3.706265891867941L-31.587701138831573,-4.043123382378573zM-33.23335397959074,-0.4794590825174901L-31.562019335028378,-3.3551366868501704L-32.73731568388695,-5.5864905209911635zM-39.82876765427198,0.7273835352051239L-39.536886383303724,0.9165093831751302L-39.20981647312198,1.0722843591765487zM-31.72376304940398,-2.624591702448295L-31.619675964754137,-2.99333848802122L-31.562019335028378,-3.3551366868501704zM-39.82876765427198,0.7273835352051239L-39.20981647312198,1.0722843591765487L-38.46381122702494,1.2775870638160503zM-32.06663080135937,-1.8814890798940678L-31.72376304940398,-2.624591702448295L-31.562019335028378,-3.3551366868501704zM-39.20981647312198,1.0722843591765487L-38.85089931344632,1.193069698747446L-38.46381122702494,1.2775870638160503zM-32.06663080135937,-1.8814890798940678L-31.873251506824705,-2.252695528757528L-31.72376304940398,-2.624591702448295zM-39.82876765427198,0.7273835352051239L-38.46381122702494,1.2775870638160503L-36.71687620657982,1.2407268797295314zM-33.23335397959074,-0.4794590825174901L-32.06663080135937,-1.8814890798940678L-31.562019335028378,-3.3551366868501704zM-39.82876765427198,0.7273835352051239L-36.71687620657982,1.2407268797295314L-33.23335397959074,-0.4794590825174901zM-38.46381122702494,1.2775870638160503L-38.052525682131964,1.3249327316516324L-37.62128159627265,1.3345892200914873zM-32.5767769137815,-1.156455954101575L-32.30194271152513,-1.514810261320998L-32.06663080135937,-1.8814890798940678zM-38.46381122702494,1.2775870638160503L-37.62128159627265,1.3345892200914873L-36.71687620657982,1.2407268797295314zM-33.23335397959074,-0.4794590825174901L-32.5767769137815,-1.156455954101575L-32.06663080135937,-1.8814890798940678zM-37.62128159627265,1.3345892200914873L-37.174525531858535,1.3064308544478338L-36.71687620657982,1.2407268797295314zM-33.23335397959074,-0.4794590825174901L-32.88831509853962,-0.810141030745331L-32.5767769137815,-1.156455954101575zM-36.71687620657982,1.2407268797295314L-36.253071773407285,1.1381394786773031L-35.787910811128164,0.9997172143241149zM-36.71687620657982,1.2407268797295314L-34.872788936398976,0.6214268606535035L-33.23335397959074,-0.4794590825174901zM-34.00936851810119,0.12146849027323135L-33.6083325787598,-0.16784367941597672L-33.23335397959074,-0.4794590825174901zM-36.71687620657982,1.2407268797295314L-35.787910811128164,0.9997172143241149L-34.872788936398976,0.6214268606535035zM-34.872788936398976,0.6214268606535035L-34.00936851810119,0.12146849027323135L-33.23335397959074,-0.4794590825174901zM-35.787910811128164,0.9997172143241149L-35.32622370260134,0.8268844407064495L-34.872788936398976,0.6214268606535035zM-34.872788936398976,0.6214268606535035L-34.43231543966489,0.38547235227392135L-34.00936851810119,0.12146849027323135z" style="fill:rgb(83,212,212)"/><path d="M153.1494985223476,-59.497190314145264L155.66517804967978,-52.26345799047782L136.56515014329563,-173.59518586546537z" style="fill:rgb(247,158,158)"/><path d="M155.66517804967978,-52.26345799047782L153.1494985223476,-59.497190314145264L-215.69316578014417,37.2031728720951z" style="fill:rgb(127,37,217)"/></svg>
