<?xml version="1.0" encoding="UTF-8"?>
<!-- Generated by jsxcad -->
<!DOCTYPE svg PUBLIC "-//W3C//DTD SVG 1.1 Tiny//EN" "http://www.w3.org/Graphics/SVG/1.1/DTD/svg11-tiny.dtd">
<svg viewBox="-250 -250 500 500" width="500" height="500" xmlns="http://www.w3.org/2000/svg"><path d="M177.805564999946,-41.219987700390654L-114.92598457401049,33.81163981927419L-127.88392582909725,155.01015762151533z" style="fill:rgb(83,212,212)"/><path d="M179.62840664841536,-35.71074334342202L177.805564999946,-41.219987700390654L199.52824313640647,80.93835872312603z" style="fill:rgb(247,158,158)"/><path d="M-127.88392582909725,155.01015762151533L199.52824313640647,80.93835872312603L177.805564999946,-41.219987700390654z" style="fill:rgb(83,212,212)"/><path d="M-127.88392582909725,155.01015762151533L-124.38591446216012,159.68087124790796L201.44855705063296,86.41976457717112z" style="fill:rgb(127,37,217)"/><path d="M199.52824313640647,80.93835872312603L201.44855705063296,86.41976457717112L179.62840664841536,-35.71074334342202z" style="fill:rgb(247,158,158)"/><path d="M201.44855705063296,86.41976457717112L199.52824313640647,80.93835872312603L-127.88392582909725,155.01015762151533z" style="fill:rgb(127,37,217)"/><path d="M200.61682812523387,81.76446530054892L200.83845409744322,83.00493085516396L200.84114045497105,83.00716805601753z" style="fill:rgb(84,212,212)"/><path d="M200.61682812523387,81.76446530054892L201.23738828495934,85.23782612040858L201.23965497640967,85.23767877110559z" style="fill:rgb(83,212,212)"/><path d="M193.48638376494446,82.30701626939477L195.43690054477605,87.77143681734104L195.43841121949353,87.77287585089104z" style="fill:rgb(22,56,144)"/><path d="M193.48638376494446,82.30701626939477L195.40378321176786,87.67871772885157L195.43690054477605,87.77143681734104z" style="fill:rgb(27,52,151)"/><path d="M195.43841121949353,87.77287585089104L195.52478974172334,87.85469973742629L193.5605614010166,82.37607020604842z" style="fill:rgb(22,56,144)"/><path d="M201.39685839661064,78.53744987652875L203.309524327398,84.04235526320245L203.20224021299217,83.70868535215607z" style="fill:rgb(246,167,149)"/><path d="M195.8287761703333,88.08221623712997L193.5725521197802,82.38737533164158L195.52478974172334,87.85469973742629z" style="fill:rgb(29,50,153)"/><path d="M201.46111662462556,78.88302917491163L203.3720148517797,84.38819480259927L203.309524327398,84.04235526320245z" style="fill:rgb(247,158,158)"/><path d="M196.16493092006093,88.28031825287516L193.87766805009772,82.61447920681945L195.8287761703333,88.08221623712997z" style="fill:rgb(36,45,162)"/><path d="M197.31267261111753,76.19052917625358L197.7406349240782,76.17890090965612L197.76054344023763,76.17835914928459z" style="fill:rgb(111,12,179)"/><path d="M201.4796896455468,79.23749823569372L203.38902734945464,84.74264497889743L203.3720148517797,84.38819480259927z" style="fill:rgb(246,149,167)"/><path d="M196.5298267382593,88.44694650183904L194.2151727685508,82.81205840884282L196.16493092006093,88.28031825287516z" style="fill:rgb(44,40,171)"/><path d="M201.45233173142256,79.5972061707223L203.3603276402469,85.1020593810581L203.38902734945464,84.74264497889743z" style="fill:rgb(244,139,175)"/><path d="M196.91973954913126,88.58033862952266L194.58159814251601,82.97805192054524L196.5298267382593,88.44694650183904z" style="fill:rgb(54,37,179)"/><path d="M201.37928721147406,79.95845128886688L203.28618081811163,85.46274119800955L203.3603276402469,85.1020593810581z" style="fill:rgb(241,129,183)"/><path d="M197.3306538781563,88.67910865271479L194.97321704163366,83.11072349583156L196.91973954913126,88.58033862952266z" style="fill:rgb(64,34,187)"/><path d="M201.26128134544706,80.31750348677569L203.16733254733956,85.82096723424345L203.28618081811163,85.46274119800955z" style="fill:rgb(237,120,191)"/><path d="M197.75833566867618,88.74220302688323L195.38598271312313,83.20866702963531L197.3306538781563,88.67910865271479z" style="fill:rgb(74,32,194)"/><path d="M201.2559433272205,80.33347006980802L203.0571431586657,86.05987552516076L203.16733254733956,85.82096723424345zM201.14485048701079,80.57292695684613L203.00494907544817,86.17303273066396L203.0571431586657,86.05987552516076z" style="fill:rgb(232,110,198)"/><path d="M198.1983828528058,88.76894049113751L195.8156712457174,83.27085857845094L197.75833566867618,88.74220302688323z" style="fill:rgb(85,32,201)"/><path d="M195.43841121949353,87.77287585089104L193.48589380310366,82.30564027519657L193.48638376494446,82.30701626939477z" style="fill:rgb(127,37,217)"/><path d="M195.43841121949353,87.77287585089104L193.5605614010166,82.37607020604842L193.48589380310366,82.30564027519657zM193.48638376494446,82.30701626939477L193.4848542665181,82.30557889936244L195.40378321176786,87.67871772885157z" style="fill:rgb(22,56,144)"/><path d="M201.39685839661064,78.53744987652875L203.20224021299217,83.70868535215607L201.29431959764187,78.21845916713437z" style="fill:rgb(246,167,149)"/><path d="M200.89557979647253,81.01425149775771L202.80070303332033,86.515294800221L203.00494907544817,86.17303273066396z" style="fill:rgb(225,101,204)"/><path d="M193.5605614010166,82.37607020604842L195.52478974172334,87.85469973742629L193.5725521197802,82.38737533164158z" style="fill:rgb(22,56,144)"/><path d="M198.64624000541266,88.75903405853306L196.25784354302203,83.29661796731789L198.1983828528058,88.76894049113751z" style="fill:rgb(97,32,207)"/><path d="M203.309524327398,84.04235526320245L201.39685839661064,78.53744987652875L201.40162624412824,78.55229587280496z" style="fill:rgb(246,167,149)"/><path d="M200.65161767815272,81.34473585931315L202.55668471583908,86.84420384452397L202.80070303332033,86.515294800221z" style="fill:rgb(218,92,209)"/><path d="M199.0973031033967,88.71255480427048L196.70793772212016,83.28566905023625L198.64624000541266,88.75903405853306z" style="fill:rgb(109,33,211)"/><path d="M195.8287761703333,88.08221623712997L193.86410205333388,82.60438073689228L193.5725521197802,82.38737533164158z" style="fill:rgb(29,50,153)"/><path d="M201.46111662462556,78.88302917491163L203.309524327398,84.04235526320245L201.40162624412824,78.55229587280496z" style="fill:rgb(247,158,158)"/><path d="M200.3701012401122,81.65867242535381L202.27539345191244,87.15635506571846L202.55668471583908,86.84420384452397z" style="fill:rgb(210,83,214)"/><path d="M193.86410205333388,82.60438073689228L195.8287761703333,88.08221623712997L193.87766805009772,82.61447920681945z" style="fill:rgb(29,50,153)"/><path d="M199.5468965625836,88.62997496516057L197.1612992938702,83.23809347006664L199.0973031033967,88.71255480427048z" style="fill:rgb(121,35,215)"/><path d="M200.05394479056292,81.95280601477117L201.95971352674212,87.44850536377942L202.27539345191244,87.15635506571846z" style="fill:rgb(200,75,217)"/><path d="M199.9903591241743,88.5121353106471L197.61324042995477,83.15437393040959L199.5468965625836,88.62997496516057z" style="fill:rgb(133,39,219)"/><path d="M203.3720148517797,84.38819480259927L201.46111662462556,78.88302917491163L201.46388540001223,78.89842186075887z" style="fill:rgb(247,158,158)"/><path d="M199.7064095347546,82.22408615832859L201.61291431815758,87.71762324254829L201.95971352674212,87.44850536377942z" style="fill:rgb(190,67,220)"/><path d="M196.16493092006093,88.28031825287516L194.20015457132592,82.80326913411662L193.87766805009772,82.61447920681945z" style="fill:rgb(36,45,162)"/><path d="M200.42309225370673,88.36024091076125L198.05906351553656,83.03536378896669L199.9903591241743,88.5121353106471z" style="fill:rgb(145,43,221)"/><path d="M201.61291431815758,87.71762324254829L199.3143357893158,82.48057359035336L201.238587645557,87.96092074665364z" style="fill:rgb(180,60,222)"/><path d="M201.4796896455468,79.23749823569372L203.3720148517797,84.38819480259927L201.46388540001223,78.89842186075887z" style="fill:rgb(246,149,167)"/><path d="M200.8406020925812,88.17586729562261L198.49417197594593,82.88227991024414L200.42309225370673,88.36024091076125z" style="fill:rgb(157,47,222)"/><path d="M201.238587645557,87.96092074665364L198.9140470478551,82.69671026210332L200.8406020925812,88.17586729562261z" style="fill:rgb(169,53,222)"/><path d="M192.732353775041,81.23494452768563L192.7328448656328,81.23632068161186L192.73943506791636,81.25049206944858z" style="fill:rgb(10,79,115)"/><path d="M194.20015457132592,82.80326913411662L196.16493092006093,88.28031825287516L194.2151727685508,82.81205840884282z" style="fill:rgb(36,45,162)"/><path d="M192.732353775041,81.23494452768563L192.73943506791636,81.25049206944858L192.73894524670487,81.24912329416107zM192.88070737641976,81.55390256606516L192.73894524670487,81.24912329416107L192.73943506791636,81.25049206944858z" style="fill:rgb(10,79,115)"/><path d="M203.38902734945464,84.74264497889743L201.4796896455468,79.23749823569372L201.48041518917537,79.25327549197812z" style="fill:rgb(246,149,167)"/><path d="M196.5298267382593,88.44694650183904L194.56530358301168,82.97066657422644L194.2151727685508,82.81205840884282z" style="fill:rgb(44,40,171)"/><path d="M192.88070737641976,81.55390256606516L192.73943506791636,81.25049206944858L192.88119841379722,81.55527870923987z" style="fill:rgb(10,79,115)"/><path d="M201.45233173142256,79.5972061707223L203.38902734945464,84.74264497889743L201.48041518917537,79.25327549197812z" style="fill:rgb(244,139,175)"/><path d="M194.56530358301168,82.97066657422644L196.5298267382593,88.44694650183904L194.58159814251601,82.97805192054524z" style="fill:rgb(44,40,171)"/><path d="M193.0635385760806,81.84234160396375L192.88070737641976,81.55390256606516L192.88119841379722,81.55527870923987z" style="fill:rgb(13,71,125)"/><path d="M203.3603276402469,85.1020593810581L201.45233173142256,79.5972061707223L201.45101247931686,79.61321284442094z" style="fill:rgb(244,139,175)"/><path d="M196.91973954913126,88.58033862952266L194.95579629672508,83.10482370623359L194.58159814251601,82.97805192054524z" style="fill:rgb(54,37,179)"/><path d="M201.37928721147406,79.95845128886688L203.3603276402469,85.1020593810581L201.45101247931686,79.61321284442094z" style="fill:rgb(241,129,183)"/><path d="M193.0635385760806,81.84234160396375L193.0630470115441,81.8409651736164L192.88070737641976,81.55390256606516z" style="fill:rgb(13,71,125)"/><path d="M194.95579629672508,83.10482370623359L196.91973954913126,88.58033862952266L194.97321704163366,83.11072349583156z" style="fill:rgb(54,37,179)"/><path d="M193.0715319552648,81.85432836857012L193.0630470115441,81.8409651736164L193.0635385760806,81.84234160396375zM193.0715319552648,81.85432836857012L193.0635385760806,81.84234160396375L193.07202224480764,81.85569741297645z" style="fill:rgb(13,71,125)"/><path d="M203.28618081811163,85.46274119800955L201.37928721147406,79.95845128886688L201.37595058696488,79.97451864010392z" style="fill:rgb(241,129,183)"/><path d="M197.3306538781563,88.67910865271479L195.36762505955488,83.20431274071795L194.97321704163366,83.11072349583156z" style="fill:rgb(64,34,187)"/><path d="M193.29313242305636,82.1220887752829L193.0715319552648,81.85432836857012L193.07202224480764,81.85569741297645z" style="fill:rgb(17,63,134)"/><path d="M201.26128134544706,80.31750348677569L203.28618081811163,85.46274119800955L201.37595058696488,79.97451864010392z" style="fill:rgb(237,120,191)"/><path d="M195.36762505955488,83.20431274071795L197.3306538781563,88.67910865271479L195.38598271312313,83.20866702963531z" style="fill:rgb(64,34,187)"/><path d="M193.29313242305636,82.1220887752829L193.29264166212693,82.12071256602302L193.0715319552648,81.85432836857012z" style="fill:rgb(17,63,134)"/><path d="M203.16733254733956,85.82096723424345L201.26128134544706,80.31750348677569L201.2559433272205,80.33347006980802z" style="fill:rgb(237,120,191)"/><path d="M193.30293379797953,82.1331080371528L193.29264166212693,82.12071256602302L193.29313242305636,82.1220887752829zM193.30293379797953,82.1331080371528L193.29313242305636,82.1220887752829L193.30342455128311,82.1344842485889z" style="fill:rgb(17,63,134)"/><path d="M197.75833566867618,88.74220302688323L195.79656388118758,83.26809482667772L195.38598271312313,83.20866702963531z" style="fill:rgb(74,32,194)"/><path d="M201.2559433272205,80.33347006980802L201.14485048701079,80.57292695684613L203.0571431586657,86.05987552516076z" style="fill:rgb(232,110,198)"/><path d="M193.30293379797953,82.1331080371528L193.30342455128311,82.1344842485889L193.4848542665181,82.30557889936244z" style="fill:rgb(22,56,144)"/><path d="M195.79656388118758,83.26809482667772L197.75833566867618,88.74220302688323L195.8156712457174,83.27085857845094z" style="fill:rgb(74,32,194)"/><path d="M193.30293379797953,82.1331080371528L193.4848542665181,82.30557889936244L193.48638376494446,82.30701626939477z" style="fill:rgb(14,90,173)"/><path d="M193.30293379797953,82.1331080371528L193.48638376494446,82.30701626939477L193.48589380310366,82.30564027519657z" style="fill:rgb(22,56,144)"/><path d="M201.14485048701079,80.57292695684613L201.09950247255927,80.67065651165545L203.00494907544817,86.17303273066396zM203.00494907544817,86.17303273066396L201.09950247255927,80.67065651165545L201.09222189359866,80.68634737226826z" style="fill:rgb(232,110,198)"/><path d="M198.1983828528058,88.76894049113751L196.23818721293986,83.29547563222799L195.8156712457174,83.27085857845094z" style="fill:rgb(85,32,201)"/><path d="M200.89557979647253,81.01425149775771L203.00494907544817,86.17303273066396L201.09222189359866,80.68634737226826z" style="fill:rgb(225,101,204)"/><path d="M196.23818721293986,83.29547563222799L198.1983828528058,88.76894049113751L196.25784354302203,83.29661796731789z" style="fill:rgb(85,32,201)"/><path d="M202.80070303332033,86.515294800221L200.89557979647253,81.01425149775771L200.8864316125749,81.0295128213942z" style="fill:rgb(225,101,204)"/><path d="M198.64624000541266,88.75903405853306L196.68793035830564,83.28615682713452L196.25784354302203,83.29661796731789z" style="fill:rgb(97,32,207)"/><path d="M200.65161767815272,81.34473585931315L202.80070303332033,86.515294800221L200.8864316125749,81.0295128213942z" style="fill:rgb(218,92,209)"/><path d="M196.68793035830564,83.28615682713452L198.64624000541266,88.75903405853306L196.70793772212016,83.28566905023625z" style="fill:rgb(97,32,207)"/><path d="M202.55668471583908,86.84420384452397L200.65161767815272,81.34473585931315L200.64069432157265,81.35940125056756z" style="fill:rgb(218,92,209)"/><path d="M199.0973031033967,88.71255480427048L197.14113723465678,83.24021209931412L196.70793772212016,83.28566905023625z" style="fill:rgb(109,33,211)"/><path d="M200.3701012401122,81.65867242535381L202.55668471583908,86.84420384452397L200.64069432157265,81.35940125056756z" style="fill:rgb(210,83,214)"/><path d="M197.14113723465678,83.24021209931412L199.0973031033967,88.71255480427048L197.1612992938702,83.23809347006664z" style="fill:rgb(109,33,211)"/><path d="M202.27539345191244,87.15635506571846L200.3701012401122,81.65867242535381L200.35751130491673,81.67259678851438z" style="fill:rgb(210,83,214)"/><path d="M199.5468965625836,88.62997496516057L197.59314516847027,83.1580952798242L197.1612992938702,83.23809347006664z" style="fill:rgb(121,35,215)"/><path d="M200.05394479056292,81.95280601477117L202.27539345191244,87.15635506571846L200.35751130491673,81.67259678851438z" style="fill:rgb(200,75,217)"/><path d="M197.59314516847027,83.1580952798242L199.5468965625836,88.62997496516057L197.61324042995477,83.15437393040959z" style="fill:rgb(121,35,215)"/><path d="M201.95971352674212,87.44850536377942L200.05394479056292,81.95280601477117L200.03982742583463,81.96584529981645z" style="fill:rgb(200,75,217)"/><path d="M199.9903591241743,88.5121353106471L198.0392403986558,83.04065143439003L197.61324042995477,83.15437393040959z" style="fill:rgb(133,39,219)"/><path d="M199.7064095347546,82.22408615832859L201.95971352674212,87.44850536377942L200.03982742583463,81.96584529981645z" style="fill:rgb(190,67,220)"/><path d="M198.0392403986558,83.04065143439003L199.9903591241743,88.5121353106471L198.05906351553656,83.03536378896669z" style="fill:rgb(133,39,219)"/><path d="M201.61291431815758,87.71762324254829L199.7064095347546,82.22408615832859L199.69089385755993,82.23610457917493z" style="fill:rgb(190,67,220)"/><path d="M199.67415320835326,82.24697301951572L201.61291431815758,87.71762324254829L199.69089385755993,82.23610457917493z" style="fill:rgb(180,60,222)"/><path d="M200.42309225370673,88.36024091076125L198.4748369273778,82.88908885715439L198.05906351553656,83.03536378896669z" style="fill:rgb(145,43,221)"/><path d="M201.61291431815758,87.71762324254829L199.67415320835326,82.24697301951572L199.3143357893158,82.48057359035336z" style="fill:rgb(180,60,222)"/><path d="M198.4748369273778,82.88908885715439L200.42309225370673,88.36024091076125L198.49417197594593,82.88227991024414z" style="fill:rgb(145,43,221)"/><path d="M200.8406020925812,88.17586729562261L198.89538589617305,82.7049597456615L198.49417197594593,82.88227991024414z" style="fill:rgb(157,47,222)"/><path d="M199.29654539194883,82.49018145128456L201.238587645557,87.96092074665364L199.3143357893158,82.48057359035336zM201.238587645557,87.96092074665364L199.29654539194883,82.49018145128456L198.9140470478551,82.69671026210332z" style="fill:rgb(169,53,222)"/><path d="M198.89538589617305,82.7049597456615L200.8406020925812,88.17586729562261L198.9140470478551,82.69671026210332z" style="fill:rgb(157,47,222)"/><path d="M192.73894524670487,81.24912329416107L144.55177457806408,-53.52902409870459L192.732353775041,81.23494452768563zM144.70317489268444,-53.215022542641556L192.73894524670487,81.24912329416107L192.88070737641976,81.55390256606516z" style="fill:rgb(10,79,115)"/><path d="M193.0630470115441,81.8409651736164L144.70317489268444,-53.215022542641556L192.88070737641976,81.55390256606516zM144.70317489268444,-53.215022542641556L193.0630470115441,81.8409651736164L193.0715319552648,81.85432836857012z" style="fill:rgb(13,71,125)"/><path d="M193.29264166212693,82.12071256602302L144.90288927646242,-52.92254995620232L193.0715319552648,81.85432836857012zM144.90288927646242,-52.92254995620232L193.29264166212693,82.12071256602302L193.30293379797953,82.1331080371528z" style="fill:rgb(17,63,134)"/><path d="M193.5605614010166,82.37607020604842L145.1489041522078,-52.654634341431766L193.30293379797953,82.1331080371528zM145.1489041522078,-52.654634341431766L193.5605614010166,82.37607020604842L193.5725521197802,82.38737533164158z" style="fill:rgb(22,56,144)"/><path d="M154.25430989117658,-57.144302138701846L201.39685839661064,78.53744987652875L201.29431959764187,78.21845916713437z" style="fill:rgb(246,167,149)"/><path d="M193.86410205333388,82.60438073689228L145.4387771999725,-52.414050456339154L193.5725521197802,82.38737533164158z" style="fill:rgb(29,50,153)"/><path d="M201.39685839661064,78.53744987652875L154.3596331106595,-56.81265343315624L201.40162624412824,78.55229587280496z" style="fill:rgb(246,167,149)"/><path d="M145.4387771999725,-52.414050456339154L193.86410205333388,82.60438073689228L193.87766805009772,82.61447920681945z" style="fill:rgb(29,50,153)"/><path d="M154.3596331106595,-56.81265343315624L201.46111662462556,78.88302917491163L201.40162624412824,78.55229587280496z" style="fill:rgb(247,158,158)"/><path d="M194.20015457132592,82.80326913411662L145.76953201326972,-52.203304998004626L193.87766805009772,82.61447920681945z" style="fill:rgb(36,45,162)"/><path d="M201.46111662462556,78.88302917491163L154.41405951937668,-56.46558900492839L201.46388540001223,78.89842186075887z" style="fill:rgb(247,158,158)"/><path d="M145.76953201326972,-52.203304998004626L194.20015457132592,82.80326913411662L194.2151727685508,82.81205840884282z" style="fill:rgb(36,45,162)"/><path d="M154.41405951937668,-56.46558900492839L201.4796896455468,79.23749823569372L201.46388540001223,78.89842186075887z" style="fill:rgb(246,149,167)"/><path d="M194.56530358301168,82.97066657422644L146.13785231059373,-52.02460275026188L194.2151727685508,82.81205840884282z" style="fill:rgb(44,40,171)"/><path d="M201.4796896455468,79.23749823569372L154.41697895291813,-56.10666463904028L201.48041518917537,79.25327549197812z" style="fill:rgb(246,149,167)"/><path d="M146.13785231059373,-52.02460275026188L194.56530358301168,82.97066657422644L194.58159814251601,82.97805192054524z" style="fill:rgb(44,40,171)"/><path d="M154.41697895291813,-56.10666463904028L201.45233173142256,79.5972061707223L201.48041518917537,79.25327549197812z" style="fill:rgb(244,139,175)"/><path d="M194.95579629672508,83.10482370623359L146.53993956387404,-51.8798171882835L194.58159814251601,82.97805192054524z" style="fill:rgb(54,37,179)"/><path d="M201.45233173142256,79.5972061707223L154.36833041695402,-55.73957733613386L201.45101247931686,79.61321284442094z" style="fill:rgb(244,139,175)"/><path d="M146.53993956387404,-51.8798171882835L194.95579629672508,83.10482370623359L194.97321704163366,83.11072349583156z" style="fill:rgb(54,37,179)"/><path d="M154.36833041695402,-55.73957733613386L201.37928721147406,79.95845128886688L201.45101247931686,79.61321284442094z" style="fill:rgb(241,129,183)"/><path d="M195.36762505955488,83.20431274071795L146.9717105263589,-51.77047271159384L194.97321704163366,83.11072349583156z" style="fill:rgb(64,34,187)"/><path d="M201.37928721147406,79.95845128886688L154.26853407980198,-55.36810695635961L201.37595058696488,79.97451864010392z" style="fill:rgb(241,129,183)"/><path d="M146.9717105263589,-51.77047271159384L195.36762505955488,83.20431274071795L195.38598271312313,83.20866702963531z" style="fill:rgb(64,34,187)"/><path d="M154.26853407980198,-55.36810695635961L201.26128134544706,80.31750348677569L201.37595058696488,79.97451864010392z" style="fill:rgb(237,120,191)"/><path d="M195.79656388118758,83.26809482667772L147.42870281144968,-51.69773858907924L195.38598271312313,83.20866702963531z" style="fill:rgb(74,32,194)"/><path d="M201.26128134544706,80.31750348677569L154.118591615072,-54.99608384454703L201.2559433272205,80.33347006980802z" style="fill:rgb(237,120,191)"/><path d="M147.42870281144968,-51.69773858907924L195.79656388118758,83.26809482667772L195.8156712457174,83.27085857845094z" style="fill:rgb(74,32,194)"/><path d="M154.118591615072,-54.99608384454703L201.14485048701079,80.57292695684613L201.2559433272205,80.33347006980802zM154.118591615072,-54.99608384454703L201.09950247255927,80.67065651165545L201.14485048701079,80.57292695684613z" style="fill:rgb(232,110,198)"/><path d="M196.23818721293986,83.29547563222799L147.9062402723212,-51.662394789255266L195.8156712457174,83.27085857845094z" style="fill:rgb(85,32,201)"/><path d="M201.09950247255927,80.67065651165545L153.9200215838008,-54.627360608698865L201.09222189359866,80.68634737226826z" style="fill:rgb(232,110,198)"/><path d="M147.9062402723212,-51.662394789255266L196.23818721293986,83.29547563222799L196.25784354302203,83.29661796731789z" style="fill:rgb(85,32,201)"/><path d="M153.9200215838008,-54.627360608698865L200.89557979647253,81.01425149775771L201.09222189359866,80.68634737226826z" style="fill:rgb(225,101,204)"/><path d="M196.68793035830564,83.28615682713452L148.39938890980582,-51.664830832407695L196.25784354302203,83.29661796731789z" style="fill:rgb(97,32,207)"/><path d="M200.89557979647253,81.01425149775771L153.6748232362536,-54.265747373745555L200.8864316125749,81.0295128213942z" style="fill:rgb(225,101,204)"/><path d="M148.39938890980582,-51.664830832407695L196.68793035830564,83.28615682713452L196.70793772212016,83.28566905023625z" style="fill:rgb(97,32,207)"/><path d="M153.6748232362536,-54.265747373745555L200.65161767815272,81.34473585931315L200.8864316125749,81.0295128213942z" style="fill:rgb(218,92,209)"/><path d="M197.14113723465678,83.24021209931412L148.9030542288594,-51.705060563331855L196.70793772212016,83.28566905023625z" style="fill:rgb(109,33,211)"/><path d="M200.65161767815272,81.34473585931315L153.38552448425452,-53.91500214254709L200.64069432157265,81.35940125056756z" style="fill:rgb(218,92,209)"/><path d="M148.9030542288594,-51.705060563331855L197.14113723465678,83.24021209931412L197.1612992938702,83.23809347006664z" style="fill:rgb(109,33,211)"/><path d="M153.38552448425452,-53.91500214254709L200.3701012401122,81.65867242535381L200.64069432157265,81.35940125056756z" style="fill:rgb(210,83,214)"/><path d="M197.59314516847027,83.1580952798242L149.41202772429196,-51.78267845799873L197.1612992938702,83.23809347006664z" style="fill:rgb(121,35,215)"/><path d="M200.3701012401122,81.65867242535381L153.05507495562446,-53.57876304690528L200.35751130491673,81.67259678851438z" style="fill:rgb(210,83,214)"/><path d="M149.41202772429196,-51.78267845799873L197.59314516847027,83.1580952798242L197.61324042995477,83.15437393040959z" style="fill:rgb(121,35,215)"/><path d="M153.05507495562446,-53.57876304690528L200.05394479056292,81.95280601477117L200.35751130491673,81.67259678851438z" style="fill:rgb(200,75,217)"/><path d="M198.0392403986558,83.04065143439003L149.92103830236084,-51.89690486276064L197.61324042995477,83.15437393040959z" style="fill:rgb(133,39,219)"/><path d="M200.05394479056292,81.95280601477117L152.6869108068573,-53.260519626427524L200.03982742583463,81.96584529981645z" style="fill:rgb(200,75,217)"/><path d="M149.92103830236084,-51.89690486276064L198.0392403986558,83.04065143439003L198.05906351553656,83.03536378896669z" style="fill:rgb(133,39,219)"/><path d="M152.6869108068573,-53.260519626427524L199.7064095347546,82.22408615832859L200.03982742583463,81.96584529981645z" style="fill:rgb(190,67,220)"/><path d="M198.4748369273778,82.88908885715439L150.42478841989504,-52.04657205615862L198.05906351553656,83.03536378896669z" style="fill:rgb(145,43,221)"/><path d="M199.7064095347546,82.22408615832859L152.28480411905423,-52.9635778261796L199.69089385755993,82.23610457917493z" style="fill:rgb(190,67,220)"/><path d="M150.42478841989504,-52.04657205615862L198.4748369273778,82.88908885715439L198.49417197594593,82.88227991024414z" style="fill:rgb(145,43,221)"/><path d="M151.852937610205,-52.691029638301686L199.67415320835326,82.24697301951572L199.69089385755993,82.23610457917493zM199.67415320835326,82.24697301951572L151.852937610205,-52.691029638301686L199.3143357893158,82.48057359035336z" style="fill:rgb(180,60,222)"/><path d="M198.89538589617305,82.7049597456615L150.9180800971066,-52.23013507435958L198.49417197594593,82.88227991024414zM150.9180800971066,-52.23013507435958L198.89538589617305,82.7049597456615L198.9140470478551,82.69671026210332z" style="fill:rgb(157,47,222)"/><path d="M151.39578424051066,-52.44569864444742L199.29654539194883,82.49018145128456L199.3143357893158,82.48057359035336zM199.29654539194883,82.49018145128456L151.39578424051066,-52.44569864444742L198.9140470478551,82.69671026210332z" style="fill:rgb(169,53,222)"/><path d="M192.73894524670487,81.24912329416107L144.70317489268444,-53.215022542641556L144.55177457806408,-53.52902409870459z" style="fill:rgb(10,79,115)"/><path d="M144.70317489268444,-53.215022542641556L193.0715319552648,81.85432836857012L144.90288927646242,-52.92254995620232z" style="fill:rgb(13,71,125)"/><path d="M144.90288927646242,-52.92254995620232L193.30293379797953,82.1331080371528L145.1489041522078,-52.654634341431766z" style="fill:rgb(17,63,134)"/><path d="M145.1489041522078,-52.654634341431766L193.5725521197802,82.38737533164158L145.4387771999725,-52.414050456339154z" style="fill:rgb(22,56,144)"/><path d="M201.39685839661064,78.53744987652875L154.25430989117658,-57.144302138701846L154.3596331106595,-56.81265343315624z" style="fill:rgb(246,167,149)"/><path d="M145.4387771999725,-52.414050456339154L193.87766805009772,82.61447920681945L145.76953201326972,-52.203304998004626z" style="fill:rgb(29,50,153)"/><path d="M201.46111662462556,78.88302917491163L154.3596331106595,-56.81265343315624L154.41405951937668,-56.46558900492839z" style="fill:rgb(247,158,158)"/><path d="M145.76953201326972,-52.203304998004626L194.2151727685508,82.81205840884282L146.13785231059373,-52.02460275026188z" style="fill:rgb(36,45,162)"/><path d="M201.4796896455468,79.23749823569372L154.41405951937668,-56.46558900492839L154.41697895291813,-56.10666463904028z" style="fill:rgb(246,149,167)"/><path d="M146.13785231059373,-52.02460275026188L194.58159814251601,82.97805192054524L146.53993956387404,-51.8798171882835z" style="fill:rgb(44,40,171)"/><path d="M201.45233173142256,79.5972061707223L154.41697895291813,-56.10666463904028L154.36833041695402,-55.73957733613386z" style="fill:rgb(244,139,175)"/><path d="M146.53993956387404,-51.8798171882835L194.97321704163366,83.11072349583156L146.9717105263589,-51.77047271159384z" style="fill:rgb(54,37,179)"/><path d="M201.37928721147406,79.95845128886688L154.36833041695402,-55.73957733613386L154.26853407980198,-55.36810695635961z" style="fill:rgb(241,129,183)"/><path d="M146.9717105263589,-51.77047271159384L195.38598271312313,83.20866702963531L147.42870281144968,-51.69773858907924z" style="fill:rgb(64,34,187)"/><path d="M201.26128134544706,80.31750348677569L154.26853407980198,-55.36810695635961L154.118591615072,-54.99608384454703z" style="fill:rgb(237,120,191)"/><path d="M147.42870281144968,-51.69773858907924L195.8156712457174,83.27085857845094L147.9062402723212,-51.662394789255266z" style="fill:rgb(74,32,194)"/><path d="M201.09950247255927,80.67065651165545L154.118591615072,-54.99608384454703L153.9200215838008,-54.627360608698865z" style="fill:rgb(232,110,198)"/><path d="M147.9062402723212,-51.662394789255266L196.25784354302203,83.29661796731789L148.39938890980582,-51.664830832407695z" style="fill:rgb(85,32,201)"/><path d="M200.89557979647253,81.01425149775771L153.9200215838008,-54.627360608698865L153.6748232362536,-54.265747373745555z" style="fill:rgb(225,101,204)"/><path d="M148.39938890980582,-51.664830832407695L196.70793772212016,83.28566905023625L148.9030542288594,-51.705060563331855z" style="fill:rgb(97,32,207)"/><path d="M200.65161767815272,81.34473585931315L153.6748232362536,-54.265747373745555L153.38552448425452,-53.91500214254709z" style="fill:rgb(218,92,209)"/><path d="M148.9030542288594,-51.705060563331855L197.1612992938702,83.23809347006664L149.41202772429196,-51.78267845799873z" style="fill:rgb(109,33,211)"/><path d="M200.3701012401122,81.65867242535381L153.38552448425452,-53.91500214254709L153.05507495562446,-53.57876304690528z" style="fill:rgb(210,83,214)"/><path d="M149.41202772429196,-51.78267845799873L197.61324042995477,83.15437393040959L149.92103830236084,-51.89690486276064z" style="fill:rgb(121,35,215)"/><path d="M200.05394479056292,81.95280601477117L153.05507495562446,-53.57876304690528L152.6869108068573,-53.260519626427524z" style="fill:rgb(200,75,217)"/><path d="M149.92103830236084,-51.89690486276064L198.05906351553656,83.03536378896669L150.42478841989504,-52.04657205615862z" style="fill:rgb(133,39,219)"/><path d="M199.7064095347546,82.22408615832859L152.6869108068573,-53.260519626427524L152.28480411905423,-52.9635778261796z" style="fill:rgb(190,67,220)"/><path d="M150.42478841989504,-52.04657205615862L198.49417197594593,82.88227991024414L150.9180800971066,-52.23013507435958z" style="fill:rgb(145,43,221)"/><path d="M151.852937610205,-52.691029638301686L199.69089385755993,82.23610457917493L152.28480411905423,-52.9635778261796z" style="fill:rgb(180,60,222)"/><path d="M150.9180800971066,-52.23013507435958L198.9140470478551,82.69671026210332L151.39578424051066,-52.44569864444742z" style="fill:rgb(157,47,222)"/><path d="M151.39578424051066,-52.44569864444742L199.3143357893158,82.48057359035336L151.852937610205,-52.691029638301686z" style="fill:rgb(169,53,222)"/><path d="M147.89273655956526,-58.418291828883234L147.41861585622394,-58.20413206507955L146.96476227054268,-57.960649583238755zM147.89273655956526,-58.418291828883234L146.96476227054268,-57.960649583238755L146.13603688902757,-57.39585647831832zM146.96476227054268,-57.960649583238755L146.53577914359673,-57.69030812909317L146.13603688902757,-57.39585647831832zM148.88237954592103,-58.7502500999925L148.38231230818798,-58.60095478744884L147.89273655956526,-58.418291828883234zM149.89360185587995,-58.943008318868365L148.88237954592103,-58.7502500999925L147.89273655956526,-58.418291828883234zM146.13603688902757,-57.39585647831832L145.76957526094307,-57.08027307372862L145.4401562801204,-56.74675412439463zM147.89273655956526,-58.418291828883234L146.13603688902757,-57.39585647831832L144.9054565293272,-56.03960046026262zM149.89360185587995,-58.943008318868365L149.38784701833006,-58.86466055095371L148.88237954592103,-58.7502500999925zM146.13603688902757,-57.39585647831832L145.4401562801204,-56.74675412439463L144.9054565293272,-56.03960046026262zM145.4401562801204,-56.74675412439463L145.1511164319261,-56.398687086131844L144.9054565293272,-56.03960046026262zM151.81756207539544,-58.885037939704745L149.89360185587995,-58.943008318868365L147.89273655956526,-58.418291828883234zM150.8854314330237,-58.98861837045149L150.39449574564924,-58.98447470045217L149.89360185587995,-58.943008318868365zM151.81756207539544,-58.885037939704745L147.89273655956526,-58.418291828883234L144.9054565293272,-56.03960046026262zM151.81756207539544,-58.885037939704745L150.8854314330237,-58.98861837045149L149.89360185587995,-58.943008318868365zM144.9054565293272,-56.03960046026262L144.70565728197522,-55.67313560728165L144.55382996117393,-55.30302566679253zM151.81756207539544,-58.885037939704745L151.36140499423786,-58.95537154973382L150.8854314330237,-58.98861837045149zM144.9054565293272,-56.03960046026262L144.55382996117393,-55.30302566679253L144.45017998211304,-53.86131289518155zM144.55382996117393,-55.30302566679253L144.45152853870187,-54.933031087441016L144.3998573060531,-54.56693335843667zM152.65196654017103,-58.636236764225764L152.2492145018494,-58.77831080690795L151.81756207539544,-58.885037939704745zM144.55382996117393,-55.30302566679253L144.3998573060531,-54.56693335843667L144.45017998211304,-53.86131289518155zM153.35446262634167,-58.252086460875205L152.65196654017103,-58.636236764225764L151.81756207539544,-58.885037939704745zM144.3998573060531,-54.56693335843667L144.39938626587502,-54.20847018623796L144.45017998211304,-53.86131289518155zM153.35446262634167,-58.252086460875205L153.02164593864384,-58.46024081376442L152.65196654017103,-58.636236764225764zM154.25430989117658,-57.144302138701846L153.35446262634167,-58.252086460875205L151.81756207539544,-58.885037939704745zM144.9054565293272,-56.03960046026262L144.45017998211304,-53.86131289518155L146.53993956387404,-51.8798171882835zM144.45017998211304,-53.86131289518155L144.55177457806408,-53.52902409870459L144.70317489268444,-53.215022542641556zM153.6748232362536,-54.265747373745555L151.81756207539544,-58.885037939704745L144.9054565293272,-56.03960046026262zM153.89608761685759,-57.74798165377257L153.64694962383805,-58.013863110190876L153.35446262634167,-58.252086460875205zM144.45017998211304,-53.86131289518155L144.70317489268444,-53.215022542641556L145.1489041522078,-52.654634341431766zM154.25430989117658,-57.144302138701846L153.89608761685759,-57.74798165377257L153.35446262634167,-58.252086460875205zM144.70317489268444,-53.215022542641556L144.90288927646242,-52.92254995620232L145.1489041522078,-52.654634341431766zM154.25430989117658,-57.144302138701846L154.0992601763107,-57.457141211888505L153.89608761685759,-57.74798165377257zM144.45017998211304,-53.86131289518155L145.1489041522078,-52.654634341431766L146.53993956387404,-51.8798171882835zM153.6748232362536,-54.265747373745555L154.25430989117658,-57.144302138701846L151.81756207539544,-58.885037939704745zM144.9054565293272,-56.03960046026262L146.53993956387404,-51.8798171882835L153.6748232362536,-54.265747373745555zM145.1489041522078,-52.654634341431766L145.4387771999725,-52.414050456339154L145.76953201326972,-52.203304998004626zM154.41405951937668,-56.46558900492839L154.3596331106595,-56.81265343315624L154.25430989117658,-57.144302138701846zM145.1489041522078,-52.654634341431766L145.76953201326972,-52.203304998004626L146.53993956387404,-51.8798171882835zM154.36833041695402,-55.73957733613386L154.41405951937668,-56.46558900492839L154.25430989117658,-57.144302138701846zM145.76953201326972,-52.203304998004626L146.13785231059373,-52.02460275026188L146.53993956387404,-51.8798171882835zM154.36833041695402,-55.73957733613386L154.41697895291813,-56.10666463904028L154.41405951937668,-56.46558900492839zM153.6748232362536,-54.265747373745555L154.36833041695402,-55.73957733613386L154.25430989117658,-57.144302138701846zM146.53993956387404,-51.8798171882835L146.9717105263589,-51.77047271159384L147.42870281144968,-51.69773858907924zM154.118591615072,-54.99608384454703L154.26853407980198,-55.36810695635961L154.36833041695402,-55.73957733613386zM146.53993956387404,-51.8798171882835L147.42870281144968,-51.69773858907924L148.39938890980582,-51.664830832407695zM153.6748232362536,-54.265747373745555L154.118591615072,-54.99608384454703L154.36833041695402,-55.73957733613386zM147.42870281144968,-51.69773858907924L147.9062402723212,-51.662394789255266L148.39938890980582,-51.664830832407695zM146.53993956387404,-51.8798171882835L148.39938890980582,-51.664830832407695L150.42478841989504,-52.04657205615862zM146.53993956387404,-51.8798171882835L150.42478841989504,-52.04657205615862L153.6748232362536,-54.265747373745555zM153.6748232362536,-54.265747373745555L153.9200215838008,-54.627360608698865L154.118591615072,-54.99608384454703zM148.39938890980582,-51.664830832407695L148.9030542288594,-51.705060563331855L149.41202772429196,-51.78267845799873zM153.05507495562446,-53.57876304690528L153.38552448425452,-53.91500214254709L153.6748232362536,-54.265747373745555zM148.39938890980582,-51.664830832407695L149.41202772429196,-51.78267845799873L150.42478841989504,-52.04657205615862zM152.28480411905423,-52.9635778261796L153.05507495562446,-53.57876304690528L153.6748232362536,-54.265747373745555zM150.42478841989504,-52.04657205615862L152.28480411905423,-52.9635778261796L153.6748232362536,-54.265747373745555zM149.41202772429196,-51.78267845799873L149.92103830236084,-51.89690486276064L150.42478841989504,-52.04657205615862zM152.28480411905423,-52.9635778261796L152.6869108068573,-53.260519626427524L153.05507495562446,-53.57876304690528zM150.42478841989504,-52.04657205615862L151.39578424051066,-52.44569864444742L152.28480411905423,-52.9635778261796zM150.42478841989504,-52.04657205615862L150.9180800971066,-52.23013507435958L151.39578424051066,-52.44569864444742zM151.39578424051066,-52.44569864444742L151.852937610205,-52.691029638301686L152.28480411905423,-52.9635778261796z" style="fill:rgb(83,212,212)"/></svg>
