<?xml version="1.0" encoding="UTF-8"?>
<!-- Generated by jsxcad -->
<!DOCTYPE svg PUBLIC "-//W3C//DTD SVG 1.1 Tiny//EN" "http://www.w3.org/Graphics/SVG/1.1/DTD/svg11-tiny.dtd">
<svg viewBox="-250 -250 500 500" width="500" height="500" xmlns="http://www.w3.org/2000/svg"><path d="M36.457339864963686,62.05444484439799L36.3304675116237,61.78758039256194L-29.85677723714591,-67.97685037164968z" style="fill:rgb(241,183,129)"/><path d="M-37.99315783714172,-63.62933476952463L29.15558687779447,65.64567996216574L29.317184020320134,65.8939262699174z" style="fill:rgb(17,63,134)"/><path d="M36.546159596776356,62.33853384555873L36.457339864963686,62.05444484439799L-29.735290627055388,-67.71815073207937z" style="fill:rgb(244,175,139)"/><path d="M-37.832613816541254,-63.3914458821306L29.317184020320134,65.8939262699174L29.514052787337206,66.11996258958135z" style="fill:rgb(22,56,144)"/><path d="M36.59597379072752,62.63693537840527L36.546159596776356,62.33853384555873L-29.656739204178333,-67.43961322002767z" style="fill:rgb(246,167,149)"/><path d="M-37.63183563748933,-63.17816400433384L29.514052787337206,66.11996258958135L29.744203756533018,66.32143410672852z" style="fill:rgb(29,50,153)"/><path d="M36.60624107554788,62.946602037199L36.59597379072752,62.63693537840527L-29.6219704556917,-67.14409014905024z" style="fill:rgb(247,158,158)"/><path d="M-37.39284355264677,-62.99171202514858L29.744203756533018,66.32143410672852L30.005298037855656,66.49626657111776z" style="fill:rgb(36,45,162)"/><path d="M36.57682228766157,63.26434676445522L36.60624107554788,62.946602037199L-29.6313833000908,-66.8345951198869z" style="fill:rgb(246,149,167)"/><path d="M-37.11805944517628,-62.834033297212116L30.005298037855656,66.49626657111776L30.294668989740295,66.64262026862347z" style="fill:rgb(44,40,171)"/><path d="M36.5079841563011,63.5869022584149L36.57682228766157,63.26434676445522L-29.684922518946525,-66.5143109612693z" style="fill:rgb(244,139,175)"/><path d="M-36.81028519184562,-62.7067784600186L30.294668989740295,66.64262026862347L30.60935598683123,66.75896693781071z" style="fill:rgb(54,37,179)"/><path d="M36.40041312085342,63.91095828949184L36.5079841563011,63.5869022584149L-29.782078624957744,-66.18652389258719z" style="fill:rgb(241,129,183)"/><path d="M-36.47266553100133,-62.61129048114708L30.60935598683123,66.75896693781071L30.94613321895293,66.84409405932283z" style="fill:rgb(64,34,187)"/><path d="M36.25518776670873,64.23315364563827L36.40041312085342,63.91095828949184L-29.921889241471032,-65.85461576180563z" style="fill:rgb(237,120,191)"/><path d="M-36.108658793038764,-62.54857064908763L30.94613321895293,66.84409405932283L31.301541445174614,66.89709545380715z" style="fill:rgb(74,32,194)"/><path d="M36.073779934138045,64.55017665660249L36.25518776670873,64.23315364563827L-30.10293944145788,-65.52201154004673z" style="fill:rgb(232,110,198)"/><path d="M-35.72200287668604,-62.51929976331362L31.301541445174614,66.89709545380715L31.671919746966545,66.91739835070297z" style="fill:rgb(85,32,201)"/><path d="M35.858047278196935,64.85874330192942L36.073779934138045,64.55017665660249L-30.323395696397892,-65.19213606562936z" style="fill:rgb(225,101,204)"/><path d="M-35.31668026927659,-62.52380924070429L31.671919746966545,66.91739835070297L32.05345104652763,66.90478610252478z" style="fill:rgb(97,32,207)"/><path d="M35.61019743476046,65.15565648576651L35.858047278196935,64.85874330192942L-30.580998910004357,-64.86840803391955z" style="fill:rgb(218,92,209)"/><path d="M-34.89686969222722,-62.56206156441071L32.05345104652763,66.90478610252478L32.44219439607964,66.8593622234159z" style="fill:rgb(109,33,211)"/><path d="M35.33278543337083,65.43784562372734L35.61019743476046,65.15565648576651L-30.87310730095228,-64.55418433579632z" style="fill:rgb(210,83,214)"/><path d="M-34.46690995166981,-62.633691966659924L32.44219439607964,66.8593622234159L32.834130202847234,66.78158935664347z" style="fill:rgb(121,35,215)"/><path d="M35.028660888224174,65.7023813672109L35.33278543337083,65.43784562372734L-31.196717980820335,-64.25271697596604z" style="fill:rgb(200,75,217)"/><path d="M-34.03124953839249,-62.737966130455334L32.834130202847234,66.78158935664347L33.225206498332064,66.67226102144677z" style="fill:rgb(133,39,219)"/><path d="M34.70097154562862,65.94652268266773L35.028660888224174,65.7023813672109L-31.54849251919748,-63.96713812709634z" style="fill:rgb(190,67,220)"/><path d="M-33.59439327645284,-62.87381757313215L33.225206498332064,66.67226102144677L33.61137781158966,66.53249518676573z" style="fill:rgb(145,43,221)"/><path d="M-32.32172397148776,-63.455299288343234L34.35309936508935,66.16774204910493L34.70097154562862,65.94652268266773z" style="fill:rgb(180,60,222)"/><path d="M-33.160875316610806,-63.039854174812255L33.61137781158966,66.53249518676573L33.98864453078285,66.36374081492137z" style="fill:rgb(157,47,222)"/><path d="M-32.73517948159672,-63.23435177719731L33.98864453078285,66.36374081492137L34.35309936508935,66.16774204910493z" style="fill:rgb(169,53,222)"/><path d="M-29.85677723714591,-67.97685037164968L-29.735290627055388,-67.71815073207937L36.457339864963686,62.05444484439799z" style="fill:rgb(241,183,129)"/><path d="M29.317184020320134,65.8939262699174L-37.832613816541254,-63.3914458821306L-37.99315783714172,-63.62933476952463z" style="fill:rgb(17,63,134)"/><path d="M-29.735290627055388,-67.71815073207937L-29.656739204178333,-67.43961322002767L36.546159596776356,62.33853384555873z" style="fill:rgb(244,175,139)"/><path d="M29.514052787337206,66.11996258958135L-37.63183563748933,-63.17816400433384L-37.832613816541254,-63.3914458821306z" style="fill:rgb(22,56,144)"/><path d="M-29.656739204178333,-67.43961322002767L-29.6219704556917,-67.14409014905024L36.59597379072752,62.63693537840527z" style="fill:rgb(246,167,149)"/><path d="M29.744203756533018,66.32143410672852L-37.39284355264677,-62.99171202514858L-37.63183563748933,-63.17816400433384z" style="fill:rgb(29,50,153)"/><path d="M-29.6219704556917,-67.14409014905024L-29.6313833000908,-66.8345951198869L36.60624107554788,62.946602037199z" style="fill:rgb(247,158,158)"/><path d="M30.005298037855656,66.49626657111776L-37.11805944517628,-62.834033297212116L-37.39284355264677,-62.99171202514858z" style="fill:rgb(36,45,162)"/><path d="M-29.6313833000908,-66.8345951198869L-29.684922518946525,-66.5143109612693L36.57682228766157,63.26434676445522z" style="fill:rgb(246,149,167)"/><path d="M30.294668989740295,66.64262026862347L-36.81028519184562,-62.7067784600186L-37.11805944517628,-62.834033297212116z" style="fill:rgb(44,40,171)"/><path d="M-29.684922518946525,-66.5143109612693L-29.782078624957744,-66.18652389258719L36.5079841563011,63.5869022584149z" style="fill:rgb(244,139,175)"/><path d="M30.60935598683123,66.75896693781071L-36.47266553100133,-62.61129048114708L-36.81028519184562,-62.7067784600186z" style="fill:rgb(54,37,179)"/><path d="M-29.782078624957744,-66.18652389258719L-29.921889241471032,-65.85461576180563L36.40041312085342,63.91095828949184z" style="fill:rgb(241,129,183)"/><path d="M30.94613321895293,66.84409405932283L-36.108658793038764,-62.54857064908763L-36.47266553100133,-62.61129048114708z" style="fill:rgb(64,34,187)"/><path d="M-29.921889241471032,-65.85461576180563L-30.10293944145788,-65.52201154004673L36.25518776670873,64.23315364563827z" style="fill:rgb(237,120,191)"/><path d="M31.301541445174614,66.89709545380715L-35.72200287668604,-62.51929976331362L-36.108658793038764,-62.54857064908763z" style="fill:rgb(74,32,194)"/><path d="M-30.10293944145788,-65.52201154004673L-30.323395696397892,-65.19213606562936L36.073779934138045,64.55017665660249z" style="fill:rgb(232,110,198)"/><path d="M31.671919746966545,66.91739835070297L-35.31668026927659,-62.52380924070429L-35.72200287668604,-62.51929976331362z" style="fill:rgb(85,32,201)"/><path d="M-30.323395696397892,-65.19213606562936L-30.580998910004357,-64.86840803391955L35.858047278196935,64.85874330192942z" style="fill:rgb(225,101,204)"/><path d="M32.05345104652763,66.90478610252478L-34.89686969222722,-62.56206156441071L-35.31668026927659,-62.52380924070429z" style="fill:rgb(97,32,207)"/><path d="M-30.580998910004357,-64.86840803391955L-30.87310730095228,-64.55418433579632L35.61019743476046,65.15565648576651z" style="fill:rgb(218,92,209)"/><path d="M32.44219439607964,66.8593622234159L-34.46690995166981,-62.633691966659924L-34.89686969222722,-62.56206156441071z" style="fill:rgb(109,33,211)"/><path d="M-30.87310730095228,-64.55418433579632L-31.196717980820335,-64.25271697596604L35.33278543337083,65.43784562372734z" style="fill:rgb(210,83,214)"/><path d="M32.834130202847234,66.78158935664347L-34.03124953839249,-62.737966130455334L-34.46690995166981,-62.633691966659924z" style="fill:rgb(121,35,215)"/><path d="M-31.196717980820335,-64.25271697596604L-31.54849251919748,-63.96713812709634L35.028660888224174,65.7023813672109z" style="fill:rgb(200,75,217)"/><path d="M33.225206498332064,66.67226102144677L-33.59439327645284,-62.87381757313215L-34.03124953839249,-62.737966130455334z" style="fill:rgb(133,39,219)"/><path d="M-31.54849251919748,-63.96713812709634L-31.92479066536727,-63.70041114124232L34.70097154562862,65.94652268266773z" style="fill:rgb(190,67,220)"/><path d="M33.61137781158966,66.53249518676573L-33.160875316610806,-63.039854174812255L-33.59439327645284,-62.87381757313215z" style="fill:rgb(145,43,221)"/><path d="M34.70097154562862,65.94652268266773L-31.92479066536727,-63.70041114124232L-32.32172397148776,-63.455299288343234z" style="fill:rgb(180,60,222)"/><path d="M33.98864453078285,66.36374081492137L-32.73517948159672,-63.23435177719731L-33.160875316610806,-63.039854174812255z" style="fill:rgb(157,47,222)"/><path d="M34.35309936508935,66.16774204910493L-32.32172397148776,-63.455299288343234L-32.73517948159672,-63.23435177719731z" style="fill:rgb(169,53,222)"/><path d="M134.45662148505187,-179.31013391975816L-191.41841479074037,-84.15415556421799L-216.03996535023967,38.93693604635081z" style="fill:rgb(83,212,212)"/><path d="M-211.5172496586123,44.922305641802616L-198.21751329434093,-23.358619920090288L-199.41375221467507,-17.223311191618578zM136.77855402297104,-172.2376389065556L136.77492793311237,-172.2625787698059L136.77435199560082,-172.26433207943865z" style="fill:rgb(247,158,158)"/><path d="M-34.68337987635675,-68.54859992933751L-35.106228122267304,-68.35524563259057L-35.51698243142167,-68.13579543090394zM-34.68337987635675,-68.54859992933751L-35.51698243142167,-68.13579543090394L-36.28568253007441,-67.62775623500406zM-35.51698243142167,-68.13579543090394L-35.91147152958991,-67.89247368096915L-36.28568253007441,-67.62775623500406zM-33.8186724523374,-68.8494343479441L-34.25273578875104,-68.71389408277895L-34.68337987635675,-68.54859992933751zM-32.95791860142941,-69.0260430674524L-33.8186724523374,-68.8494343479441L-34.68337987635675,-68.54859992933751zM-36.28568253007441,-67.62775623500406L-36.63580885618786,-67.34432409992374L-36.95828469195101,-67.04505277751666zM-34.68337987635675,-68.54859992933751L-36.28568253007441,-67.62775623500406L-37.507422701785984,-66.41128303600898zM-32.95791860142941,-69.0260430674524L-33.385595735064406,-68.95384130530341L-33.8186724523374,-68.8494343479441zM-36.28568253007441,-67.62775623500406L-36.95828469195101,-67.04505277751666L-37.507422701785984,-66.41128303600898zM-36.95828469195101,-67.04505277751666L-37.24981805183739,-66.73298449156418L-37.507422701785984,-66.41128303600898zM-31.38655649599296,-68.9827728286165L-32.95791860142941,-69.0260430674524L-34.68337987635675,-68.54859992933751zM-32.13606249166895,-69.07115264669817L-32.53998570861607,-69.06528191972767L-32.95791860142941,-69.0260430674524zM-31.38655649599296,-68.9827728286165L-34.68337987635675,-68.54859992933751L-37.507422701785984,-66.41128303600898zM-31.38655649599296,-68.9827728286165L-32.13606249166895,-69.07115264669817L-32.95791860142941,-69.0260430674524zM-37.507422701785984,-66.41128303600898L-37.72845680735223,-66.0832223108057L-37.91064799480032,-65.75214668755882zM-31.38655649599296,-68.9827728286165L-31.75027037342027,-69.04356209834383L-32.13606249166895,-69.07115264669817zM-37.507422701785984,-66.41128303600898L-37.91064799480032,-65.75214668755882L-38.21945073177509,-64.46489937176932zM-37.91064799480032,-65.75214668755882L-38.05210206874084,-65.42141145630829L-38.15134730331751,-65.09441434867048zM-30.740007854476453,-68.76431870284999L-31.04864324636413,-68.88938660037925L-31.38655649599296,-68.9827728286165zM-37.91064799480032,-65.75214668755882L-38.15134730331751,-65.09441434867048L-38.21945073177509,-64.46489937176932zM-30.222962708990128,-68.42445939303751L-30.740007854476453,-68.76431870284999L-31.38655649599296,-68.9827728286165zM-38.15134730331751,-65.09441434867048L-38.207335710761825,-64.77448406858784L-38.21945073177509,-64.46489937176932zM-30.222962708990128,-68.42445939303751L-30.46383034470239,-68.60882252765323L-30.740007854476453,-68.76431870284999zM-29.656739204178333,-67.43961322002767L-30.222962708990128,-68.42445939303751L-31.38655649599296,-68.9827728286165zM-37.507422701785984,-66.41128303600898L-38.21945073177509,-64.46489937176932L-36.81028519184562,-62.7067784600186zM-38.21945073177509,-64.46489937176932L-38.18752644701663,-64.16884676160737L-38.111852011048846,-63.88936108502306zM-30.580998910004357,-64.86840803391955L-31.38655649599296,-68.9827728286165L-37.507422701785984,-66.41128303600898zM-29.85677723714591,-67.97685037164968L-30.019903641706378,-68.21308711460416L-30.222962708990128,-68.42445939303751zM-38.21945073177509,-64.46489937176932L-38.111852011048846,-63.88936108502306L-37.832613816541254,-63.3914458821306zM-29.656739204178333,-67.43961322002767L-29.85677723714591,-67.97685037164968L-30.222962708990128,-68.42445939303751zM-38.111852011048846,-63.88936108502306L-37.99315783714172,-63.62933476952463L-37.832613816541254,-63.3914458821306zM-29.656739204178333,-67.43961322002767L-29.735290627055388,-67.71815073207937L-29.85677723714591,-67.97685037164968zM-38.21945073177509,-64.46489937176932L-37.832613816541254,-63.3914458821306L-36.81028519184562,-62.7067784600186zM-30.580998910004357,-64.86840803391955L-29.656739204178333,-67.43961322002767L-31.38655649599296,-68.9827728286165zM-37.507422701785984,-66.41128303600898L-36.81028519184562,-62.7067784600186L-30.580998910004357,-64.86840803391955zM-37.832613816541254,-63.3914458821306L-37.63183563748933,-63.17816400433384L-37.39284355264677,-62.99171202514858z" style="fill:rgb(83,212,212)"/><path d="M-37.39284355264677,-62.99171202514858L-37.85483526337254,-63.35214220407523L-37.63183563748933,-63.17816400433384z" style="fill:rgb(25,59,161)"/><path d="M145.2534008520759,-118.40362060967959L136.77492793311237,-172.2625787698059L136.77855402297104,-172.2376389065556z" style="fill:rgb(247,158,158)"/><path d="M-29.6313833000908,-66.8345951198869L-29.6219704556917,-67.14409014905024L-29.656739204178333,-67.43961322002767z" style="fill:rgb(83,212,212)"/><path d="M-37.11805944517628,-62.834033297212116L-37.93443348702575,-63.30250140910609L-37.39284355264677,-62.99171202514858z" style="fill:rgb(85,213,211)"/><path d="M-37.832613816541254,-63.3914458821306L-37.39284355264677,-62.99171202514858L-36.81028519184562,-62.7067784600186z" style="fill:rgb(83,212,212)"/><path d="M-38.33557632273887,-61.55184883641098L-38.27538582775715,-63.089858664750366L-38.28191543338694,-62.92301880601407z" style="fill:rgb(255,127,127)"/><path d="M-36.81028519184562,-62.7067784600186L-38.06066164778685,-63.22377822696039L-37.11805944517628,-62.834033297212116z" style="fill:rgb(35,72,196)"/><path d="M-29.782078624957744,-66.18652389258719L-29.6313833000908,-66.8345951198869L-29.656739204178333,-67.43961322002767z" style="fill:rgb(83,212,212)"/><path d="M-38.33557632273887,-61.55184883641098L-38.290107002433665,-62.71369775522371L-38.29883606380348,-62.490656591633616z" style="fill:rgb(255,127,127)"/><path d="M-37.39284355264677,-62.99171202514858L-37.11805944517628,-62.834033297212116L-36.81028519184562,-62.7067784600186z" style="fill:rgb(83,212,212)"/><path d="M-38.33557632273887,-61.55184883641098L-38.29883606380348,-62.490656591633616L-38.30820734832653,-62.251198059165915z" style="fill:rgb(255,127,127)"/><path d="M-29.782078624957744,-66.18652389258719L-29.684922518946525,-66.5143109612693L-29.6313833000908,-66.8345951198869zM-30.580998910004357,-64.86840803391955L-29.782078624957744,-66.18652389258719L-29.656739204178333,-67.43961322002767zM-36.81028519184562,-62.7067784600186L-36.47266553100133,-62.61129048114708L-36.108658793038764,-62.54857064908763z" style="fill:rgb(83,212,212)"/><path d="M-35.31668026927659,-62.52380924070429L-38.29883606380348,-62.490656591633616L-35.72200287668604,-62.51929976331362z" style="fill:rgb(75,188,226)"/><path d="M-30.10293944145788,-65.52201154004673L-29.921889241471032,-65.85461576180563L-29.782078624957744,-66.18652389258719zM-36.81028519184562,-62.7067784600186L-36.108658793038764,-62.54857064908763L-35.31668026927659,-62.52380924070429z" style="fill:rgb(83,212,212)"/><path d="M-29.648483472188246,-66.20203030130986L-30.323395696397892,-65.19213606562936L-30.10293944145788,-65.52201154004673z" style="fill:rgb(238,94,180)"/><path d="M-30.580998910004357,-64.86840803391955L-30.10293944145788,-65.52201154004673L-29.782078624957744,-66.18652389258719zM-36.108658793038764,-62.54857064908763L-35.72200287668604,-62.51929976331362L-35.31668026927659,-62.52380924070429zM-36.81028519184562,-62.7067784600186L-35.31668026927659,-62.52380924070429L-33.59439327645284,-62.87381757313215zM-36.81028519184562,-62.7067784600186L-33.59439327645284,-62.87381757313215L-30.580998910004357,-64.86840803391955zM-30.580998910004357,-64.86840803391955L-30.323395696397892,-65.19213606562936L-30.10293944145788,-65.52201154004673zM-35.31668026927659,-62.52380924070429L-34.89686969222722,-62.56206156441071L-34.46690995166981,-62.633691966659924zM-31.196717980820335,-64.25271697596604L-30.87310730095228,-64.55418433579632L-30.580998910004357,-64.86840803391955z" style="fill:rgb(83,212,212)"/><path d="M-29.670073769813982,-65.49209555450408L-31.54849251919748,-63.96713812709634L-31.196717980820335,-64.25271697596604z" style="fill:rgb(65,223,184)"/><path d="M-35.31668026927659,-62.52380924070429L-34.46690995166981,-62.633691966659924L-33.59439327645284,-62.87381757313215zM-31.92479066536727,-63.70041114124232L-31.196717980820335,-64.25271697596604L-30.580998910004357,-64.86840803391955z" style="fill:rgb(83,212,212)"/><path d="M-29.67608764407837,-65.29433759923607L-31.92479066536727,-63.70041114124232L-31.54849251919748,-63.96713812709634z" style="fill:rgb(204,30,156)"/><path d="M-33.59439327645284,-62.87381757313215L-31.92479066536727,-63.70041114124232L-30.580998910004357,-64.86840803391955z" style="fill:rgb(83,212,212)"/><path d="M-33.98878804344315,-62.74812981892052L-34.46690995166981,-62.633691966659924L-34.03124953839249,-62.737966130455334z" style="fill:rgb(89,240,173)"/><path d="M-34.46690995166981,-62.633691966659924L-34.03124953839249,-62.737966130455334L-33.59439327645284,-62.87381757313215zM-31.92479066536727,-63.70041114124232L-31.54849251919748,-63.96713812709634L-31.196717980820335,-64.25271697596604zM-33.59439327645284,-62.87381757313215L-32.73517948159672,-63.23435177719731L-31.92479066536727,-63.70041114124232zM-33.59439327645284,-62.87381757313215L-33.160875316610806,-63.039854174812255L-32.73517948159672,-63.23435177719731z" style="fill:rgb(83,212,212)"/><path d="M-29.689232668221088,-64.86209704768379L-32.73517948159672,-63.23435177719731L-32.32172397148776,-63.455299288343234z" style="fill:rgb(75,226,187)"/><path d="M-32.73517948159672,-63.23435177719731L-32.32172397148776,-63.455299288343234L-31.92479066536727,-63.70041114124232z" style="fill:rgb(83,212,212)"/><path d="M-29.712991013790234,-64.08086452340125L-34.03124953839249,-62.737966130455334L-33.59439327645284,-62.87381757313215z" style="fill:rgb(116,78,244)"/><path d="M136.77855402297104,-172.2376389065556L145.25280168232553,-118.40539972896646L145.2534008520759,-118.40362060967959zM145.2534008520759,-118.40362060967959L136.77855402297104,-172.2376389065556L145.25280168232553,-118.40539972896646zM136.77855402297104,-172.2376389065556L146.2073240674697,-112.34184309276796L146.20792467088987,-112.34006818697695zM153.41948745841938,-57.76667852186009L136.77855402297104,-172.2376389065556L136.77435199560082,-172.26433207943865zM153.41948745841938,-57.76667852186009L136.77435199560082,-172.26433207943865L134.45662148505187,-179.31013391975816zM146.20792467088987,-112.34006818697695L145.2534008520759,-118.40362060967959L145.25280168232553,-118.40539972896646zM146.20792467088987,-112.34006818697695L145.25280168232553,-118.40539972896646L146.2073240674697,-112.34184309276796z" style="fill:rgb(247,158,158)"/><path d="M-216.03996535023967,38.93693604635081L153.41948745841938,-57.76667852186009L134.45662148505187,-179.31013391975816z" style="fill:rgb(83,212,212)"/><path d="M136.77855402297104,-172.2376389065556L155.93717124640557,-50.53346216330475L146.2073240674697,-112.34184309276796z" style="fill:rgb(0,127,127)"/><path d="M155.93779579000267,-50.5316670289091L-211.52401037941928,44.957018680589826L-211.522888023028,44.958516883645814zM155.83651167079685,-50.50730196778328L-216.03996535023967,38.93693604635081L-211.52401037941928,44.957018680589826z" style="fill:rgb(127,37,217)"/><path d="M155.93717124640557,-50.53346216330475L146.20792467088987,-112.34006818697695L146.2073240674697,-112.34184309276796zM136.77855402297104,-172.2376389065556L153.41948745841938,-57.76667852186009L155.93717124640557,-50.53346216330475z" style="fill:rgb(247,158,158)"/><path d="M155.93779579000267,-50.5316670289091L155.83651167079685,-50.50730196778328L-211.52401037941928,44.957018680589826zM-216.03996535023967,38.93693604635081L155.83651167079685,-50.50730196778328L155.93717124640557,-50.53346216330475zM-216.03996535023967,38.93693604635081L155.93717124640557,-50.53346216330475L153.41948745841938,-57.76667852186009z" style="fill:rgb(127,37,217)"/><path d="M155.93717124640557,-50.53346216330475L155.93779579000267,-50.5316670289091L146.20792467088987,-112.34006818697695z" style="fill:rgb(247,158,158)"/><path d="M155.83651167079685,-50.50730196778328L155.93779579000267,-50.5316670289091L155.93717124640557,-50.53346216330475z" style="fill:rgb(127,37,217)"/></svg>
