<?xml version="1.0" encoding="UTF-8"?>
<!-- Generated by jsxcad -->
<!DOCTYPE svg PUBLIC "-//W3C//DTD SVG 1.1 Tiny//EN" "http://www.w3.org/Graphics/SVG/1.1/DTD/svg11-tiny.dtd">
<svg viewBox="-250 -250 500 500" width="500" height="500" xmlns="http://www.w3.org/2000/svg"><path d="M130.32873714173104,-205.76802225141074L-185.9868206552594,-111.30845072959588L-209.14636895296204,4.473615399100433z" style="fill:rgb(83,212,212)"/><path d="M132.59937028242265,-198.78754923636404L130.32873714173104,-205.76802225141074L148.06832809576534,-92.06519939228056z" style="fill:rgb(247,158,158)"/><path d="M39.6681075460389,159.20981574411596L39.52903113565872,158.8881530340085L-32.86866504432045,30.191411523398305z" style="fill:rgb(241,183,129)"/><path d="M-41.826530392679715,34.995625300441006L31.72287979274719,163.10155772937838L31.899536417674963,163.40300618694587z" style="fill:rgb(17,63,134)"/><path d="M39.765779152658006,159.5500078784556L39.6681075460389,159.20981574411596L-32.73603069617144,30.512467024314304z" style="fill:rgb(244,175,139)"/><path d="M-41.65119444575091,35.293850563421856L31.899536417674963,163.40300618694587L32.114571226113064,163.6799054309144z" style="fill:rgb(22,56,144)"/><path d="M39.8209947818659,159.90525527367637L39.765779152658006,159.5500078784556L-32.65064919859596,30.855127782095693z" style="fill:rgb(246,167,149)"/><path d="M-41.43153272897691,35.564562619747164L32.114571226113064,163.6799054309144L32.36581383324581,163.92939300559732z" style="fill:rgb(29,50,153)"/><path d="M39.83315164780681,160.27190760738057L39.8209947818659,159.90525527367637L-32.613447155652224,31.21588984145111z" style="fill:rgb(247,158,158)"/><path d="M-41.169751231039136,35.80494437670356L32.36581383324581,163.92939300559732L32.6507131758116,164.14888436995926z" style="fill:rgb(36,45,162)"/><path d="M39.80208517249802,160.6462107658477L39.83315164780681,160.27190760738057L-32.62485729854649,31.59106007521134z" style="fill:rgb(246,149,167)"/><path d="M-40.86849987493019,36.01248663535948L32.6507131758116,164.14888436995926L32.966360603420796,164.33609185463067z" style="fill:rgb(44,40,171)"/><path d="M39.728072510398334,161.0243129677004L39.80208517249802,160.6462107658477L-32.684813345713316,31.9767901095793z" style="fill:rgb(244,139,175)"/><path d="M-40.53084780588074,36.18501787674755L32.966360603420796,164.33609185463067L33.30952769112987,164.4890477567235z" style="fill:rgb(54,37,179)"/><path d="M39.61184907948126,161.4023103351176L39.728072510398334,161.0243129677004L-32.79274741412972,32.369113181199204z" style="fill:rgb(241,129,183)"/><path d="M-40.16024271938067,36.32072641095054L33.30952769112987,164.4890477567235L33.67669675488522,164.60613626071384z" style="fill:rgb(64,34,187)"/><path d="M39.45457768497789,161.77630746194998L39.61184907948126,161.4023103351176L-32.94759397982063,32.76398188197523z" style="fill:rgb(237,120,191)"/><path d="M-39.76048042860188,36.41816974202166L33.67669675488522,164.60613626071384L34.06409567311388,164.68615488930527z" style="fill:rgb(74,32,194)"/><path d="M39.257850422433506,162.1424345207372L39.45457768497789,161.77630746194998L-33.14778784779991,33.1573234168216z" style="fill:rgb(232,110,198)"/><path d="M-39.335666332840155,36.4763156224907L34.06409567311388,164.68615488930527L34.467733056954856,164.728226206791z" style="fill:rgb(85,32,201)"/><path d="M39.023681215266556,162.49689649239224L39.257850422433506,162.1424345207372L-33.39130384209783,33.54506275817405z" style="fill:rgb(225,101,204)"/><path d="M-38.89017695707398,36.49452524070986L34.467733056954856,164.728226206791L34.883446977475565,164.73188342532305z" style="fill:rgb(97,32,207)"/><path d="M38.75446588403125,162.83602988900444L39.023681215266556,162.49689649239224L-33.67564793761718,33.92319230760446z" style="fill:rgb(218,92,209)"/><path d="M-38.42860828293376,36.47258550739743L34.883446977475565,164.73188342532305L35.30694104659685,164.69709044967226z" style="fill:rgb(109,33,211)"/><path d="M38.452980219742784,163.15631012853197L38.75446588403125,162.83602988900444L-33.99790328240413,34.28778157673816z" style="fill:rgb(210,83,214)"/><path d="M-37.95573266854143,36.410696216976795L35.30694104659685,164.69709044967226L35.73383386791558,164.62419111169095z" style="fill:rgb(121,35,215)"/><path d="M38.122322213707896,163.45442205062042L38.452980219742784,163.15631012853197L-34.35475599849113,34.63504789974721z" style="fill:rgb(200,75,217)"/><path d="M-37.476447285387565,36.309483326181756L35.73383386791558,164.62419111169095L36.15970861052337,164.51391149624123z" style="fill:rgb(133,39,219)"/><path d="M37.76591578148759,163.7272663193873L38.122322213707896,163.45442205062042L-34.74252347133152,34.9613864507422z" style="fill:rgb(190,67,220)"/><path d="M-36.99571244224109,36.1699752766278L36.15970861052337,164.51391149624123L36.580156551139765,164.36737788898063z" style="fill:rgb(145,43,221)"/><path d="M-35.594465179509015,35.537962232552545L37.387441732052245,163.97201523281745L37.76591578148759,163.7272663193873z" style="fill:rgb(180,60,222)"/><path d="M-36.51852191912437,35.99361106142065L36.580156551139765,164.36737788898063L36.990819886953524,164.186130327049z" style="fill:rgb(157,47,222)"/><path d="M-36.04981641224407,35.78221056145721L36.990819886953524,164.186130327049L37.387441732052245,163.97201523281745z" style="fill:rgb(169,53,222)"/><path d="M-209.14636895296204,4.473615399100433L148.06832809576534,-92.06519939228056L130.32873714173104,-205.76802225141074z" style="fill:rgb(83,212,212)"/><path d="M-209.14636895296204,4.473615399100433L-204.81267777530567,10.504591624691063L150.53335788484213,-84.86302620358524z" style="fill:rgb(127,37,217)"/><path d="M148.06832809576534,-92.06519939228056L150.53335788484213,-84.86302620358524L132.59937028242265,-198.78754923636404z" style="fill:rgb(247,158,158)"/><path d="M150.53335788484213,-84.86302620358524L148.06832809576534,-92.06519939228056L-209.14636895296204,4.473615399100433z" style="fill:rgb(127,37,217)"/><path d="M-32.86866504432045,30.191411523398305L-32.73603069617144,30.512467024314304L39.6681075460389,159.20981574411596z" style="fill:rgb(241,183,129)"/><path d="M31.899536417674963,163.40300618694587L-41.65119444575091,35.293850563421856L-41.826530392679715,34.995625300441006z" style="fill:rgb(17,63,134)"/><path d="M-32.73603069617144,30.512467024314304L-32.65064919859596,30.855127782095693L39.765779152658006,159.5500078784556z" style="fill:rgb(244,175,139)"/><path d="M32.114571226113064,163.6799054309144L-41.43153272897691,35.564562619747164L-41.65119444575091,35.293850563421856z" style="fill:rgb(22,56,144)"/><path d="M-32.65064919859596,30.855127782095693L-32.613447155652224,31.21588984145111L39.8209947818659,159.90525527367637z" style="fill:rgb(246,167,149)"/><path d="M32.36581383324581,163.92939300559732L-41.169751231039136,35.80494437670356L-41.43153272897691,35.564562619747164z" style="fill:rgb(29,50,153)"/><path d="M-32.613447155652224,31.21588984145111L-32.62485729854649,31.59106007521134L39.83315164780681,160.27190760738057z" style="fill:rgb(247,158,158)"/><path d="M32.6507131758116,164.14888436995926L-40.86849987493019,36.01248663535948L-41.169751231039136,35.80494437670356z" style="fill:rgb(36,45,162)"/><path d="M-32.62485729854649,31.59106007521134L-32.684813345713316,31.9767901095793L39.80208517249802,160.6462107658477z" style="fill:rgb(246,149,167)"/><path d="M32.966360603420796,164.33609185463067L-40.53084780588074,36.18501787674755L-40.86849987493019,36.01248663535948z" style="fill:rgb(44,40,171)"/><path d="M-32.684813345713316,31.9767901095793L-32.79274741412972,32.369113181199204L39.728072510398334,161.0243129677004z" style="fill:rgb(244,139,175)"/><path d="M33.30952769112987,164.4890477567235L-40.16024271938067,36.32072641095054L-40.53084780588074,36.18501787674755z" style="fill:rgb(54,37,179)"/><path d="M-32.79274741412972,32.369113181199204L-32.94759397982063,32.76398188197523L39.61184907948126,161.4023103351176z" style="fill:rgb(241,129,183)"/><path d="M33.67669675488522,164.60613626071384L-39.76048042860188,36.41816974202166L-40.16024271938067,36.32072641095054z" style="fill:rgb(64,34,187)"/><path d="M-32.94759397982063,32.76398188197523L-33.14778784779991,33.1573234168216L39.45457768497789,161.77630746194998z" style="fill:rgb(237,120,191)"/><path d="M34.06409567311388,164.68615488930527L-39.335666332840155,36.4763156224907L-39.76048042860188,36.41816974202166z" style="fill:rgb(74,32,194)"/><path d="M-33.14778784779991,33.1573234168216L-33.39130384209783,33.54506275817405L39.257850422433506,162.1424345207372z" style="fill:rgb(232,110,198)"/><path d="M34.467733056954856,164.728226206791L-38.89017695707398,36.49452524070986L-39.335666332840155,36.4763156224907z" style="fill:rgb(85,32,201)"/><path d="M-33.39130384209783,33.54506275817405L-33.67564793761718,33.92319230760446L39.023681215266556,162.49689649239224z" style="fill:rgb(225,101,204)"/><path d="M34.883446977475565,164.73188342532305L-38.42860828293376,36.47258550739743L-38.89017695707398,36.49452524070986z" style="fill:rgb(97,32,207)"/><path d="M-33.67564793761718,33.92319230760446L-33.99790328240413,34.28778157673816L38.75446588403125,162.83602988900444z" style="fill:rgb(218,92,209)"/><path d="M35.30694104659685,164.69709044967226L-37.95573266854143,36.410696216976795L-38.42860828293376,36.47258550739743z" style="fill:rgb(109,33,211)"/><path d="M-33.99790328240413,34.28778157673816L-34.35475599849113,34.63504789974721L38.452980219742784,163.15631012853197z" style="fill:rgb(210,83,214)"/><path d="M35.73383386791558,164.62419111169095L-37.476447285387565,36.309483326181756L-37.95573266854143,36.410696216976795z" style="fill:rgb(121,35,215)"/><path d="M-34.35475599849113,34.63504789974721L-34.74252347133152,34.9613864507422L38.122322213707896,163.45442205062042z" style="fill:rgb(200,75,217)"/><path d="M36.15970861052337,164.51391149624123L-36.99571244224109,36.1699752766278L-37.476447285387565,36.309483326181756z" style="fill:rgb(133,39,219)"/><path d="M-34.74252347133152,34.9613864507422L-35.15718939056526,35.26340647327L37.76591578148759,163.7272663193873z" style="fill:rgb(190,67,220)"/><path d="M36.580156551139765,164.36737788898063L-36.51852191912437,35.99361106142065L-36.99571244224109,36.1699752766278z" style="fill:rgb(145,43,221)"/><path d="M37.76591578148759,163.7272663193873L-35.15718939056526,35.26340647327L-35.594465179509015,35.537962232552545z" style="fill:rgb(180,60,222)"/><path d="M36.990819886953524,164.186130327049L-36.04981641224407,35.78221056145721L-36.51852191912437,35.99361106142065z" style="fill:rgb(157,47,222)"/><path d="M37.387441732052245,163.97201523281745L-35.594465179509015,35.537962232552545L-36.04981641224407,35.78221056145721z" style="fill:rgb(169,53,222)"/><path d="M-38.16987922991738,29.21748455837601L-38.63513497802628,29.427539543709308L-39.08721203319317,29.669959797705616zM-39.08721203319317,29.669959797705616L-39.52152322078749,29.94228178425876L-39.93365556123178,30.24174792264319zM-37.21881370428957,28.902659172112703L-38.16987922991738,29.21748455837601L-39.08721203319317,29.669959797705616zM-37.21881370428957,28.902659172112703L-37.69616890778525,29.041928183254047L-38.16987922991738,29.21748455837601zM-39.08721203319317,29.669959797705616L-39.93365556123178,30.24174792264319L-40.674891195643745,30.90972942456403zM-37.21881370428957,28.902659172112703L-39.08721203319317,29.669959797705616L-40.674891195643745,30.90972942456403zM-39.93365556123178,30.24174792264319L-40.31942027780512,30.56532284380856L-40.674891195643745,30.90972942456403zM-36.27253655972121,28.738304149733537L-36.74265368971216,28.80110109320346L-37.21881370428957,28.902659172112703zM-35.369433231276986,28.731226768508485L-36.27253655972121,28.738304149733537L-37.21881370428957,28.902659172112703zM-40.674891195643745,30.90972942456403L-40.9964412004017,31.271475157223858L-41.28077770904903,31.646893776074894zM-35.369433231276986,28.731226768508485L-35.813235073349084,28.714925611130212L-36.27253655972121,28.738304149733537zM-33.836567622876444,29.18449553506611L-37.21881370428957,28.902659172112703L-40.674891195643745,30.90972942456403zM-40.674891195643745,30.90972942456403L-41.28077770904903,31.646893776074894L-41.9938402870282,33.207725378455535zM-41.28077770904903,31.646893776074894L-41.524985214163564,32.03217249878029L-41.72655291919161,32.423396752948626zM-33.836567622876444,29.18449553506611L-35.369433231276986,28.731226768508485L-37.21881370428957,28.902659172112703zM-34.546240435285966,28.881916077144353L-34.94565629242843,28.78706924413878L-35.369433231276986,28.731226768508485zM-41.28077770904903,31.646893776074894L-41.72655291919161,32.423396752948626L-41.9938402870282,33.207725378455535zM-33.836567622876444,29.18449553506611L-34.546240435285966,28.881916077144353L-35.369433231276986,28.731226768508485zM-41.72655291919161,32.423396752948626L-41.883382336723216,32.81658445403945L-41.9938402870282,33.207725378455535zM-33.836567622876444,29.18449553506611L-34.17527146335045,29.01483233873068L-34.546240435285966,28.881916077144353zM-41.9938402870282,33.207725378455535L-42.05675733266655,33.592825772579864L-42.07143668357428,33.96794268634773zM-40.674891195643745,30.90972942456403L-41.9938402870282,33.207725378455535L-41.169751231039136,35.80494437670356zM-33.26956141220117,29.626920774255833L-33.53362079615131,29.38921042981589L-33.836567622876444,29.18449553506611zM-41.9938402870282,33.207725378455535L-42.07143668357428,33.96794268634773L-41.95578161146859,34.67297293631982zM-32.86866504432045,30.191411523398305L-33.26956141220117,29.626920774255833L-33.836567622876444,29.18449553506611zM-42.07143668357428,33.96794268634773L-42.03767833328536,34.329229948199504L-41.95578161146859,34.67297293631982zM-32.86866504432045,30.191411523398305L-33.04713256549351,29.895226674592646L-33.26956141220117,29.626920774255833zM-34.35475599849113,34.63504789974721L-33.836567622876444,29.18449553506611L-40.674891195643745,30.90972942456403zM-41.9938402870282,33.207725378455535L-41.95578161146859,34.67297293631982L-41.169751231039136,35.80494437670356zM-32.62485729854649,31.59106007521134L-32.86866504432045,30.191411523398305L-33.836567622876444,29.18449553506611zM-41.95578161146859,34.67297293631982L-41.826530392679715,34.995625300441006L-41.65119444575091,35.293850563421856zM-32.65064919859596,30.855127782095693L-32.73603069617144,30.512467024314304L-32.86866504432045,30.191411523398305zM-40.674891195643745,30.90972942456403L-41.169751231039136,35.80494437670356L-34.35475599849113,34.63504789974721zM-41.95578161146859,34.67297293631982L-41.65119444575091,35.293850563421856L-41.169751231039136,35.80494437670356zM-32.62485729854649,31.59106007521134L-32.65064919859596,30.855127782095693L-32.86866504432045,30.191411523398305zM-41.65119444575091,35.293850563421856L-41.43153272897691,35.564562619747164L-41.169751231039136,35.80494437670356zM-32.62485729854649,31.59106007521134L-32.613447155652224,31.21588984145111L-32.65064919859596,30.855127782095693zM-34.35475599849113,34.63504789974721L-32.62485729854649,31.59106007521134L-33.836567622876444,29.18449553506611zM-41.169751231039136,35.80494437670356L-40.86849987493019,36.01248663535948L-40.53084780588074,36.18501787674755zM-32.79274741412972,32.369113181199204L-32.684813345713316,31.9767901095793L-32.62485729854649,31.59106007521134zM-41.169751231039136,35.80494437670356L-40.53084780588074,36.18501787674755L-39.76048042860188,36.41816974202166zM-33.14778784779991,33.1573234168216L-32.79274741412972,32.369113181199204L-32.62485729854649,31.59106007521134zM-40.53084780588074,36.18501787674755L-40.16024271938067,36.32072641095054L-39.76048042860188,36.41816974202166zM-33.14778784779991,33.1573234168216L-32.94759397982063,32.76398188197523L-32.79274741412972,32.369113181199204zM-41.169751231039136,35.80494437670356L-39.76048042860188,36.41816974202166L-37.95573266854143,36.410696216976795zM-34.35475599849113,34.63504789974721L-33.14778784779991,33.1573234168216L-32.62485729854649,31.59106007521134zM-41.169751231039136,35.80494437670356L-37.95573266854143,36.410696216976795L-34.35475599849113,34.63504789974721zM-39.76048042860188,36.41816974202166L-39.335666332840155,36.4763156224907L-38.89017695707398,36.49452524070986zM-33.67564793761718,33.92319230760446L-33.39130384209783,33.54506275817405L-33.14778784779991,33.1573234168216zM-39.76048042860188,36.41816974202166L-38.89017695707398,36.49452524070986L-37.95573266854143,36.410696216976795zM-34.35475599849113,34.63504789974721L-33.67564793761718,33.92319230760446L-33.14778784779991,33.1573234168216zM-38.89017695707398,36.49452524070986L-38.42860828293376,36.47258550739743L-37.95573266854143,36.410696216976795zM-34.35475599849113,34.63504789974721L-33.99790328240413,34.28778157673816L-33.67564793761718,33.92319230760446zM-37.95573266854143,36.410696216976795L-37.476447285387565,36.309483326181756L-36.99571244224109,36.1699752766278zM-37.95573266854143,36.410696216976795L-36.04981641224407,35.78221056145721L-34.35475599849113,34.63504789974721zM-35.15718939056526,35.26340647327L-34.74252347133152,34.9613864507422L-34.35475599849113,34.63504789974721zM-37.95573266854143,36.410696216976795L-36.99571244224109,36.1699752766278L-36.04981641224407,35.78221056145721zM-36.04981641224407,35.78221056145721L-35.15718939056526,35.26340647327L-34.35475599849113,34.63504789974721zM-36.99571244224109,36.1699752766278L-36.51852191912437,35.99361106142065L-36.04981641224407,35.78221056145721zM-36.04981641224407,35.78221056145721L-35.594465179509015,35.537962232552545L-35.15718939056526,35.26340647327z" style="fill:rgb(83,212,212)"/></svg>
