<?xml version="1.0" encoding="UTF-8"?>
<!-- Generated by jsxcad -->
<!DOCTYPE svg PUBLIC "-//W3C//DTD SVG 1.1 Tiny//EN" "http://www.w3.org/Graphics/SVG/1.1/DTD/svg11-tiny.dtd">
<svg viewBox="-250 -250 500 500" width="500" height="500" xmlns="http://www.w3.org/2000/svg"><path d="M-29.691093374478697,-69.16497535036075L36.40948229778336,60.60631156608485L36.28279080750098,60.34022586959323z" style="fill:rgb(241,183,129)"/><path d="M29.11732000884255,64.19305443018158L29.278693875720528,64.44054660747389L-37.77637172381071,-64.84493557706516z" style="fill:rgb(17,63,134)"/><path d="M-29.612644053614492,-68.88733294184097L36.49817156994657,60.88960277192401L36.40948229778336,60.60631156608485z" style="fill:rgb(244,175,139)"/><path d="M29.278693875720528,64.44054660747389L29.475292886707603,64.6658564189636L-37.57587356540805,-64.63245743733715z" style="fill:rgb(22,56,144)"/><path d="M-29.577912619368693,-68.59271510868186L36.54790649715907,61.187200764333596L36.49817156994657,60.88960277192401z" style="fill:rgb(246,167,149)"/><path d="M29.475292886707603,64.6658564189636L29.705130308910896,64.86665517200102L-37.33721870695657,-64.44675117866785z" style="fill:rgb(29,50,153)"/><path d="M-29.5872972800382,-68.28414676265928L36.558146606408265,61.49604779374444L36.54790649715907,61.187200764333596z" style="fill:rgb(247,158,158)"/><path d="M29.705130308910896,64.86665517200102L29.965870941743205,65.0408519556564L-37.06282616487349,-64.28976027923531z" style="fill:rgb(36,45,162)"/><path d="M-29.640743582208074,-67.96478152077971L36.52875375488275,61.81298493197057L36.558146606408265,61.49604779374444z" style="fill:rgb(246,149,167)"/><path d="M29.965870941743205,65.0408519556564L30.254851025316313,65.18663072952778L-36.75549360404243,-64.16312775897794z" style="fill:rgb(44,40,171)"/><path d="M-29.73774207822598,-67.63790133956596L36.459993840444774,62.13475210697801L36.52875375488275,61.81298493197057z" style="fill:rgb(244,139,175)"/><path d="M30.254851025316313,65.18663072952778L30.569114457420124,65.30247040600132L-36.41836127256428,-64.06818300411537z" style="fill:rgb(54,37,179)"/><path d="M-29.877332712056365,-67.30688049223735L36.35255278079378,62.45802901596224L36.459993840444774,62.13475210697801z" style="fill:rgb(241,129,183)"/><path d="M30.569114457420124,65.30247040600132L30.905439589128637,65.3871510042402L-36.054882518094296,-64.00593561630687z" style="fill:rgb(64,34,187)"/><path d="M-30.058102146389015,-66.97512634053221L36.20750789009784,62.7794873484297L36.35255278079378,62.45802901596224z" style="fill:rgb(237,120,191)"/><path d="M30.905439589128637,65.3871510042402L31.260371830666585,65.43977103287615L-35.66878981294126,-63.97706141043288z" style="fill:rgb(74,32,194)"/><path d="M-30.278219668862143,-66.64606891893553L36.02632898749446,63.09580410247335L36.20750789009784,62.7794873484297z" style="fill:rgb(232,110,198)"/><path d="M31.260371830666585,65.43977103287615L31.630255372141253,65.45978074200342L-35.264059825897235,-63.981866522365856z" style="fill:rgb(85,32,201)"/><path d="M-30.53543004842858,-66.32311928571066L35.81087182672082,63.40370336690334L36.02632898749446,63.09580410247335z" style="fill:rgb(225,101,204)"/><path d="M31.630255372141253,65.45978074200342L32.011277885516336,65.44694095909499L-34.84486537372027,-64.02033886626117z" style="fill:rgb(97,32,207)"/><path d="M-30.827095330138278,-66.00960467393287L35.56334101201637,63.7000070127849L35.81087182672082,63.40370336690334z" style="fill:rgb(218,92,209)"/><path d="M32.011277885516336,65.44694095909499L32.39950370369807,65.40138244948744L-34.41553814775922,-64.09208188986229z" style="fill:rgb(109,33,211)"/><path d="M-31.150217194826,-65.70879780382016L35.286288277893064,63.981644589897314L35.56334101201637,63.7000070127849z" style="fill:rgb(210,83,214)"/><path d="M32.39950370369807,65.40138244948744L32.79091920266296,65.3235456320855L-33.980520748817796,-64.19638242633984z" style="fill:rgb(121,35,215)"/><path d="M-31.50146249502314,-65.4238032864164L34.98255974225147,64.24569290939665L35.286288277893064,63.981644589897314z" style="fill:rgb(200,75,217)"/><path d="M32.79091920266296,65.3235456320855L33.181477256700006,65.21424215511928L-33.54431128440373,-64.33217369380222z" style="fill:rgb(133,39,219)"/><path d="M-31.87719607248509,-65.15758452936521L34.65529861002528,64.48941525959845L34.98255974225147,64.24569290939665z" style="fill:rgb(190,67,220)"/><path d="M33.181477256700006,65.21424215511928L33.56713779433795,65.07458975780915L-33.11143644937007,-64.49804178158514z" style="fill:rgb(145,43,221)"/><path d="M34.307882395849745,64.71028850323138L34.65529861002528,64.48941525959845L-31.87719607248509,-65.15758452936521z" style="fill:rgb(180,60,222)"/><path d="M33.56713779433795,65.07458975780915L33.94390714061651,64.90601877888963L-32.68637424972347,-64.6922871062671z" style="fill:rgb(157,47,222)"/><path d="M33.94390714061651,64.90601877888963L34.307882395849745,64.71028850323138L-32.27353535428778,-64.91289947552856z" style="fill:rgb(169,53,222)"/><path d="M36.28279080750098,60.34022586959323L-29.812414268884975,-69.42280623200024L-29.691093374478697,-69.16497535036075z" style="fill:rgb(241,183,129)"/><path d="M-37.77637172381071,-64.84493557706516L-37.93669568620968,-65.08198506621189L29.11732000884255,64.19305443018158z" style="fill:rgb(17,63,134)"/><path d="M36.40948229778336,60.60631156608485L-29.691093374478697,-69.16497535036075L-29.612644053614492,-68.88733294184097z" style="fill:rgb(244,175,139)"/><path d="M-37.57587356540805,-64.63245743733715L-37.77637172381071,-64.84493557706516L29.278693875720528,64.44054660747389z" style="fill:rgb(22,56,144)"/><path d="M36.49817156994657,60.88960277192401L-29.612644053614492,-68.88733294184097L-29.577912619368693,-68.59271510868186z" style="fill:rgb(246,167,149)"/><path d="M-37.33721870695657,-64.44675117866785L-37.57587356540805,-64.63245743733715L29.475292886707603,64.6658564189636z" style="fill:rgb(29,50,153)"/><path d="M36.54790649715907,61.187200764333596L-29.577912619368693,-68.59271510868186L-29.5872972800382,-68.28414676265928z" style="fill:rgb(247,158,158)"/><path d="M-37.06282616487349,-64.28976027923531L-37.33721870695657,-64.44675117866785L29.705130308910896,64.86665517200102z" style="fill:rgb(36,45,162)"/><path d="M36.558146606408265,61.49604779374444L-29.5872972800382,-68.28414676265928L-29.640743582208074,-67.96478152077971z" style="fill:rgb(246,149,167)"/><path d="M-36.75549360404243,-64.16312775897794L-37.06282616487349,-64.28976027923531L29.965870941743205,65.0408519556564z" style="fill:rgb(44,40,171)"/><path d="M36.52875375488275,61.81298493197057L-29.640743582208074,-67.96478152077971L-29.73774207822598,-67.63790133956596z" style="fill:rgb(244,139,175)"/><path d="M-36.41836127256428,-64.06818300411537L-36.75549360404243,-64.16312775897794L30.254851025316313,65.18663072952778z" style="fill:rgb(54,37,179)"/><path d="M36.459993840444774,62.13475210697801L-29.73774207822598,-67.63790133956596L-29.877332712056365,-67.30688049223735z" style="fill:rgb(241,129,183)"/><path d="M-36.054882518094296,-64.00593561630687L-36.41836127256428,-64.06818300411537L30.569114457420124,65.30247040600132z" style="fill:rgb(64,34,187)"/><path d="M36.35255278079378,62.45802901596224L-29.877332712056365,-67.30688049223735L-30.058102146389015,-66.97512634053221z" style="fill:rgb(237,120,191)"/><path d="M-35.66878981294126,-63.97706141043288L-36.054882518094296,-64.00593561630687L30.905439589128637,65.3871510042402z" style="fill:rgb(74,32,194)"/><path d="M36.20750789009784,62.7794873484297L-30.058102146389015,-66.97512634053221L-30.278219668862143,-66.64606891893553z" style="fill:rgb(232,110,198)"/><path d="M-35.264059825897235,-63.981866522365856L-35.66878981294126,-63.97706141043288L31.260371830666585,65.43977103287615z" style="fill:rgb(85,32,201)"/><path d="M36.02632898749446,63.09580410247335L-30.278219668862143,-66.64606891893553L-30.53543004842858,-66.32311928571066z" style="fill:rgb(225,101,204)"/><path d="M-34.84486537372027,-64.02033886626117L-35.264059825897235,-63.981866522365856L31.630255372141253,65.45978074200342z" style="fill:rgb(97,32,207)"/><path d="M35.81087182672082,63.40370336690334L-30.53543004842858,-66.32311928571066L-30.827095330138278,-66.00960467393287z" style="fill:rgb(218,92,209)"/><path d="M-34.41553814775922,-64.09208188986229L-34.84486537372027,-64.02033886626117L32.011277885516336,65.44694095909499z" style="fill:rgb(109,33,211)"/><path d="M35.56334101201637,63.7000070127849L-30.827095330138278,-66.00960467393287L-31.150217194826,-65.70879780382016z" style="fill:rgb(210,83,214)"/><path d="M-33.980520748817796,-64.19638242633984L-34.41553814775922,-64.09208188986229L32.39950370369807,65.40138244948744z" style="fill:rgb(121,35,215)"/><path d="M35.286288277893064,63.981644589897314L-31.150217194826,-65.70879780382016L-31.50146249502314,-65.4238032864164z" style="fill:rgb(200,75,217)"/><path d="M-33.54431128440373,-64.33217369380222L-33.980520748817796,-64.19638242633984L32.79091920266296,65.3235456320855z" style="fill:rgb(133,39,219)"/><path d="M34.98255974225147,64.24569290939665L-31.50146249502314,-65.4238032864164L-31.87719607248509,-65.15758452936521z" style="fill:rgb(190,67,220)"/><path d="M-33.11143644937007,-64.49804178158514L-33.54431128440373,-64.33217369380222L33.181477256700006,65.21424215511928z" style="fill:rgb(145,43,221)"/><path d="M-31.87719607248509,-65.15758452936521L-32.27353535428778,-64.91289947552856L34.307882395849745,64.71028850323138z" style="fill:rgb(180,60,222)"/><path d="M-32.68637424972347,-64.6922871062671L-33.11143644937007,-64.49804178158514L33.56713779433795,65.07458975780915z" style="fill:rgb(157,47,222)"/><path d="M-32.27353535428778,-64.91289947552856L-32.68637424972347,-64.6922871062671L33.94390714061651,64.90601877888963z" style="fill:rgb(169,53,222)"/><path d="M134.45662148505187,-179.31013391975816L-191.41841479074037,-84.15415556421799L-216.03996535023967,38.93693604635081zM-34.632009440488154,-69.98910227592827L-35.05423247926702,-69.79599731472003L-35.464378218635915,-69.57687772309751zM-35.464378218635915,-69.57687772309751L-35.85828055649132,-69.33397662606721L-36.2319332331779,-69.06976003114443zM-33.76857497430283,-70.2897008463308L-34.632009440488154,-69.98910227592827L-35.464378218635915,-69.57687772309751zM-33.76857497430283,-70.2897008463308L-34.20199997053729,-70.15422901671991L-34.632009440488154,-69.98910227592827zM-35.464378218635915,-69.57687772309751L-36.2319332331779,-69.06976003114443L-36.90352578938108,-68.48828407948879zM-33.76857497430283,-70.2897008463308L-35.464378218635915,-69.57687772309751L-36.90352578938108,-68.48828407948879zM-36.2319332331779,-69.06976003114443L-36.581535311801545,-68.78690390985614L-36.90352578938108,-68.48828407948879zM-32.90908260463644,-70.46644911115305L-33.33613389425625,-70.39413905529403L-33.76857497430283,-70.2897008463308zM-32.08842569981744,-70.51206132501763L-32.90908260463644,-70.46644911115305L-33.76857497430283,-70.2897008463308zM-36.90352578938108,-68.48828407948879L-37.19461785240731,-68.1769157143159L-37.45182977214919,-67.85598354087604zM-32.08842569981744,-70.51206132501763L-32.491760126977546,-70.50590163480939L-32.90908260463644,-70.46644911115305zM-30.6943914669275,-70.20722618158355L-33.76857497430283,-70.2897008463308L-36.90352578938108,-68.48828407948879zM-36.90352578938108,-68.48828407948879L-37.45182977214919,-67.85598354087604L-38.094741461899446,-66.54254918011893zM-37.45182977214919,-67.85598354087604L-37.67252348601304,-67.52873228781634L-37.85443063414846,-67.19849903903366zM-30.6943914669275,-70.20722618158355L-32.08842569981744,-70.51206132501763L-33.76857497430283,-70.2897008463308zM-31.340007679648078,-70.42453353065581L-31.703194336462882,-70.48485922776813L-32.08842569981744,-70.51206132501763zM-37.45182977214919,-67.85598354087604L-37.85443063414846,-67.19849903903366L-38.094741461899446,-66.54254918011893zM-30.6943914669275,-70.20722618158355L-31.340007679648078,-70.42453353065581L-32.08842569981744,-70.51206132501763zM-37.85443063414846,-67.19849903903366L-37.995659743692364,-66.8686510971597L-38.094741461899446,-66.54254918011893zM-30.6943914669275,-70.20722618158355L-31.00258272632159,-70.33168136423768L-31.340007679648078,-70.42453353065581zM-38.094741461899446,-66.54254918011893L-38.15062982574666,-66.22353431794582L-38.162708649052895,-65.91487460971327zM-36.90352578938108,-68.48828407948879L-38.094741461899446,-66.54254918011893L-37.33721870695657,-64.44675117866785zM-30.178085216113814,-69.86878426565723L-30.41860994778438,-70.05240961612378L-30.6943914669275,-70.20722618158355zM-38.094741461899446,-66.54254918011893L-38.162708649052895,-65.91487460971327L-38.055232682494086,-65.34113927900168zM-29.812414268884975,-69.42280623200024L-30.178085216113814,-69.86878426565723L-30.6943914669275,-70.20722618158355zM-38.162708649052895,-65.91487460971327L-38.13081327519553,-65.61972740988807L-38.055232682494086,-65.34113927900168zM-29.812414268884975,-69.42280623200024L-29.975312977954488,-69.65820893477252L-30.178085216113814,-69.86878426565723zM-31.150217194826,-65.70879780382016L-30.6943914669275,-70.20722618158355L-36.90352578938108,-68.48828407948879zM-38.094741461899446,-66.54254918011893L-38.055232682494086,-65.34113927900168L-37.33721870695657,-64.44675117866785zM-29.5872972800382,-68.28414676265928L-29.812414268884975,-69.42280623200024L-30.6943914669275,-70.20722618158355zM-38.055232682494086,-65.34113927900168L-37.93669568620968,-65.08198506621189L-37.77637172381071,-64.84493557706516zM-29.612644053614492,-68.88733294184097L-29.691093374478697,-69.16497535036075L-29.812414268884975,-69.42280623200024zM-36.90352578938108,-68.48828407948879L-37.33721870695657,-64.44675117866785L-31.150217194826,-65.70879780382016zM-38.055232682494086,-65.34113927900168L-37.77637172381071,-64.84493557706516L-37.33721870695657,-64.44675117866785zM-29.5872972800382,-68.28414676265928L-29.612644053614492,-68.88733294184097L-29.812414268884975,-69.42280623200024zM-37.77637172381071,-64.84493557706516L-37.57587356540805,-64.63245743733715L-37.33721870695657,-64.44675117866785zM-29.5872972800382,-68.28414676265928L-29.577912619368693,-68.59271510868186L-29.612644053614492,-68.88733294184097zM-31.150217194826,-65.70879780382016L-29.5872972800382,-68.28414676265928L-30.6943914669275,-70.20722618158355zM-37.33721870695657,-64.44675117866785L-37.06282616487349,-64.28976027923531L-36.75549360404243,-64.16312775897794zM-29.73774207822598,-67.63790133956596L-29.640743582208074,-67.96478152077971L-29.5872972800382,-68.28414676265928zM-37.33721870695657,-64.44675117866785L-36.75549360404243,-64.16312775897794L-36.054882518094296,-64.00593561630687zM-30.058102146389015,-66.97512634053221L-29.73774207822598,-67.63790133956596L-29.5872972800382,-68.28414676265928zM-36.75549360404243,-64.16312775897794L-36.41836127256428,-64.06818300411537L-36.054882518094296,-64.00593561630687zM-30.058102146389015,-66.97512634053221L-29.877332712056365,-67.30688049223735L-29.73774207822598,-67.63790133956596zM-37.33721870695657,-64.44675117866785L-36.054882518094296,-64.00593561630687L-34.41553814775922,-64.09208188986229zM-31.150217194826,-65.70879780382016L-30.058102146389015,-66.97512634053221L-29.5872972800382,-68.28414676265928zM-37.33721870695657,-64.44675117866785L-34.41553814775922,-64.09208188986229L-31.150217194826,-65.70879780382016zM-36.054882518094296,-64.00593561630687L-35.66878981294126,-63.97706141043288L-35.264059825897235,-63.981866522365856zM-30.53543004842858,-66.32311928571066L-30.278219668862143,-66.64606891893553L-30.058102146389015,-66.97512634053221zM-36.054882518094296,-64.00593561630687L-35.264059825897235,-63.981866522365856L-34.41553814775922,-64.09208188986229zM-31.150217194826,-65.70879780382016L-30.53543004842858,-66.32311928571066L-30.058102146389015,-66.97512634053221zM-35.264059825897235,-63.981866522365856L-34.84486537372027,-64.02033886626117L-34.41553814775922,-64.09208188986229zM-31.150217194826,-65.70879780382016L-30.827095330138278,-66.00960467393287L-30.53543004842858,-66.32311928571066zM-34.41553814775922,-64.09208188986229L-33.980520748817796,-64.19638242633984L-33.54431128440373,-64.33217369380222zM-34.41553814775922,-64.09208188986229L-32.68637424972347,-64.6922871062671L-31.150217194826,-65.70879780382016zM-31.87719607248509,-65.15758452936521L-31.50146249502314,-65.4238032864164L-31.150217194826,-65.70879780382016zM-34.41553814775922,-64.09208188986229L-33.54431128440373,-64.33217369380222L-32.68637424972347,-64.6922871062671zM-32.68637424972347,-64.6922871062671L-31.87719607248509,-65.15758452936521L-31.150217194826,-65.70879780382016zM-33.54431128440373,-64.33217369380222L-33.11143644937007,-64.49804178158514L-32.68637424972347,-64.6922871062671zM-32.68637424972347,-64.6922871062671L-32.27353535428778,-64.91289947552856L-31.87719607248509,-65.15758452936521z" style="fill:rgb(83,212,212)"/><path d="M136.77492793311237,-172.2625787698059L134.45662148505187,-179.31013391975816L153.41948745841938,-57.76667852186009z" style="fill:rgb(247,158,158)"/><path d="M-216.03996535023967,38.93693604635081L153.41948745841938,-57.76667852186009L134.45662148505187,-179.31013391975816z" style="fill:rgb(83,212,212)"/><path d="M-216.03996535023967,38.93693604635081L-211.522888023028,44.958516883645814L155.93779579000267,-50.5316670289091z" style="fill:rgb(127,37,217)"/><path d="M153.41948745841938,-57.76667852186009L155.93779579000267,-50.5316670289091L136.77492793311237,-172.2625787698059z" style="fill:rgb(247,158,158)"/><path d="M155.93779579000267,-50.5316670289091L153.41948745841938,-57.76667852186009L-216.03996535023967,38.93693604635081z" style="fill:rgb(127,37,217)"/></svg>
