<?xml version="1.0" encoding="UTF-8"?>
<!-- Generated by jsxcad -->
<!DOCTYPE svg PUBLIC "-//W3C//DTD SVG 1.1 Tiny//EN" "http://www.w3.org/Graphics/SVG/1.1/DTD/svg11-tiny.dtd">
<svg viewBox="-250 -250 500 500" width="500" height="500" xmlns="http://www.w3.org/2000/svg"><path d="M134.3528326204448,-179.975370465888L-191.28216486803228,-84.83530978035215L-215.86642702611445,38.06935824824887z" style="fill:rgb(83,212,212)"/><path d="M-31.64427523009475,-5.226661655989432L38.50864610817768,124.12539604353586L38.3739961151961,123.8241170896095z" style="fill:rgb(241,183,129)"/><path d="M30.79579556570816,127.90892779862418L30.966998522623726,128.19056803621984L-40.2618702641347,-0.6110857846311959z" style="fill:rgb(17,63,134)"/><path d="M-31.561354973884402,-4.90809695598034L38.60310199554782,124.44474793880642L38.50864610817768,124.12539604353586z" style="fill:rgb(244,175,139)"/><path d="M30.966998522623726,128.19056803621984L31.175457784938995,128.44851899434926L-40.0490496637405,-0.36203266600154904z" style="fill:rgb(22,56,144)"/><path d="M-31.525015847498285,-4.57182162856328L38.65634814828026,124.77889850674848L38.60310199554782,124.44474793880642z" style="fill:rgb(246,167,149)"/><path d="M31.175457784938995,128.44851899434926L31.419068491284666,128.6801144423323L-39.79553128536811,-0.14201886641002895z" style="fill:rgb(29,50,153)"/><path d="M-31.53567697726703,-4.2212781973643265L38.66780414483378,125.12441404405456L38.65634814828026,124.77889850674848z" style="fill:rgb(247,158,158)"/><path d="M31.419068491284666,128.6801144423323L31.695356233010347,128.88292877766537L-39.50388263095335,0.0466605082801324z" style="fill:rgb(36,45,162)"/><path d="M-31.59327691230771,-3.860063435420289L38.63731506796193,125.47775835452119L38.66780414483378,125.12441404405456z" style="fill:rgb(246,149,167)"/><path d="M31.695356233010347,128.88292877766537L32.00149998493038,129.0548491786786L-39.17707537075928,0.20202965907345186z" style="fill:rgb(44,40,171)"/><path d="M-31.697268475976564,-3.49189166401905L38.565154382397566,125.83529595571744L38.63731506796193,125.47775835452119z" style="fill:rgb(244,139,175)"/><path d="M32.00149998493038,129.0548491786786L32.33436809777628,129.19409351728544L-38.818448225452634,0.3224541928747806z" style="fill:rgb(54,37,179)"/><path d="M-31.84662487044668,-3.1205562732079795L38.45204015486626,126.19333615563646L38.565154382397566,125.83529595571744z" style="fill:rgb(241,129,183)"/><path d="M32.33436809777628,129.19409351728544L32.690548455399096,129.29919021549787L-38.43167399871944,0.40665945953412885z" style="fill:rgb(64,34,187)"/><path d="M-32.03983550543512,-2.7498904233219172L38.29910478205502,126.54818991414218L38.45204015486626,126.19333615563646z" style="fill:rgb(237,120,191)"/><path d="M32.690548455399096,129.29919021549787L33.066382063768906,129.3690227221481L-38.020724592780326,0.45374521091418074z" style="fill:rgb(74,32,194)"/><path d="M-32.27494431032485,-2.383726298573435L38.1078972820005,126.89618750973783L38.29910478205502,126.54818991414218z" style="fill:rgb(232,110,198)"/><path d="M33.066382063768906,129.3690227221481L33.457997035563515,129.40286067703113L-37.589833790891014,0.4631964630399628z" style="fill:rgb(85,32,201)"/><path d="M-32.549543034244536,-2.0258557666559756L37.88037522907525,127.2337222862019L38.1078972820005,126.89618750973783z" style="fill:rgb(225,101,204)"/><path d="M33.457997035563515,129.40286067703113L33.86135615312881,129.40032510308848L-37.14344451221859,0.43488988398536726z" style="fill:rgb(97,32,207)"/><path d="M-32.86081578294946,-1.679988356384456L37.61886667924167,127.5573077936533L37.88037522907525,127.2337222862019z" style="fill:rgb(218,92,209)"/><path d="M33.86135615312881,129.40032510308848L34.27229150196151,129.36141856391103L-36.686173258968694,0.3690963873268985z" style="fill:rgb(109,33,211)"/><path d="M-33.205562008596324,-1.3497129725397734L37.326067685357415,127.8635949389714L37.61886667924167,127.5573077936533z" style="fill:rgb(210,83,214)"/><path d="M34.27229150196151,129.36141856391103L34.68655251593016,129.28652837677362L-36.222752634209485,0.26647896537851395z" style="fill:rgb(121,35,215)"/><path d="M-33.58022377074162,-1.038458910637044L37.00498672809971,128.14938919927624L37.326067685357415,127.8635949389714z" style="fill:rgb(200,75,217)"/><path d="M34.68655251593016,129.28652837677362L35.0998542846995,129.17642940878858L-35.75797722813841,0.12808651995090278z" style="fill:rgb(133,39,219)"/><path d="M-33.980921996107014,-0.7494592093751156L36.6589478024023,128.41173304179983L37.00498672809971,128.14938919927624z" style="fill:rgb(190,67,220)"/><path d="M35.0998542846995,129.17642940878858L35.50791935678632,129.03224650132407L-35.29667441357116,-0.04465677790499432z" style="fill:rgb(145,43,221)"/><path d="M36.29152389934974,128.64790896033108L36.6589478024023,128.41173304179983L-33.980921996107014,-0.7494592093751156z" style="fill:rgb(180,60,222)"/><path d="M35.50791935678632,129.03224650132407L35.906519452974806,128.85545522867022L-34.84361863995219,-0.24996625594697694z" style="fill:rgb(157,47,222)"/><path d="M35.906519452974806,128.85545522867022L36.29152389934974,128.64790896033108L-34.4035138494535,-0.48571549529737645z" style="fill:rgb(169,53,222)"/><path d="M38.3739961151961,123.8241170896095L-31.772877297146756,-5.524263580677423L-31.64427523009475,-5.226661655989432z" style="fill:rgb(241,183,129)"/><path d="M-40.2618702641347,-0.6110857846311959L-40.431854285984706,-0.8865886681963167L30.79579556570816,127.90892779862418z" style="fill:rgb(17,63,134)"/><path d="M38.50864610817768,124.12539604353586L-31.64427523009475,-5.226661655989432L-31.561354973884402,-4.90809695598034z" style="fill:rgb(244,175,139)"/><path d="M-40.0490496637405,-0.36203266600154904L-40.2618702641347,-0.6110857846311959L30.966998522623726,128.19056803621984z" style="fill:rgb(22,56,144)"/><path d="M38.60310199554782,124.44474793880642L-31.561354973884402,-4.90809695598034L-31.525015847498285,-4.57182162856328z" style="fill:rgb(246,167,149)"/><path d="M-39.79553128536811,-0.14201886641002895L-40.0490496637405,-0.36203266600154904L31.175457784938995,128.44851899434926z" style="fill:rgb(29,50,153)"/><path d="M38.65634814828026,124.77889850674848L-31.525015847498285,-4.57182162856328L-31.53567697726703,-4.2212781973643265z" style="fill:rgb(247,158,158)"/><path d="M-39.50388263095335,0.0466605082801324L-39.79553128536811,-0.14201886641002895L31.419068491284666,128.6801144423323z" style="fill:rgb(36,45,162)"/><path d="M38.66780414483378,125.12441404405456L-31.53567697726703,-4.2212781973643265L-31.59327691230771,-3.860063435420289z" style="fill:rgb(246,149,167)"/><path d="M-39.17707537075928,0.20202965907345186L-39.50388263095335,0.0466605082801324L31.695356233010347,128.88292877766537z" style="fill:rgb(44,40,171)"/><path d="M38.63731506796193,125.47775835452119L-31.59327691230771,-3.860063435420289L-31.697268475976564,-3.49189166401905z" style="fill:rgb(244,139,175)"/><path d="M-38.818448225452634,0.3224541928747806L-39.17707537075928,0.20202965907345186L32.00149998493038,129.0548491786786z" style="fill:rgb(54,37,179)"/><path d="M38.565154382397566,125.83529595571744L-31.697268475976564,-3.49189166401905L-31.84662487044668,-3.1205562732079795z" style="fill:rgb(241,129,183)"/><path d="M-38.43167399871944,0.40665945953412885L-38.818448225452634,0.3224541928747806L32.33436809777628,129.19409351728544z" style="fill:rgb(64,34,187)"/><path d="M38.45204015486626,126.19333615563646L-31.84662487044668,-3.1205562732079795L-32.03983550543512,-2.7498904233219172z" style="fill:rgb(237,120,191)"/><path d="M-38.020724592780326,0.45374521091418074L-38.43167399871944,0.40665945953412885L32.690548455399096,129.29919021549787z" style="fill:rgb(74,32,194)"/><path d="M38.29910478205502,126.54818991414218L-32.03983550543512,-2.7498904233219172L-32.27494431032485,-2.383726298573435z" style="fill:rgb(232,110,198)"/><path d="M-37.589833790891014,0.4631964630399628L-38.020724592780326,0.45374521091418074L33.066382063768906,129.3690227221481z" style="fill:rgb(85,32,201)"/><path d="M38.1078972820005,126.89618750973783L-32.27494431032485,-2.383726298573435L-32.549543034244536,-2.0258557666559756z" style="fill:rgb(225,101,204)"/><path d="M-37.14344451221859,0.43488988398536726L-37.589833790891014,0.4631964630399628L33.457997035563515,129.40286067703113z" style="fill:rgb(97,32,207)"/><path d="M37.88037522907525,127.2337222862019L-32.549543034244536,-2.0258557666559756L-32.86081578294946,-1.679988356384456z" style="fill:rgb(218,92,209)"/><path d="M-36.686173258968694,0.3690963873268985L-37.14344451221859,0.43488988398536726L33.86135615312881,129.40032510308848z" style="fill:rgb(109,33,211)"/><path d="M37.61886667924167,127.5573077936533L-32.86081578294946,-1.679988356384456L-33.205562008596324,-1.3497129725397734z" style="fill:rgb(210,83,214)"/><path d="M-36.222752634209485,0.26647896537851395L-36.686173258968694,0.3690963873268985L34.27229150196151,129.36141856391103z" style="fill:rgb(121,35,215)"/><path d="M37.326067685357415,127.8635949389714L-33.205562008596324,-1.3497129725397734L-33.58022377074162,-1.038458910637044z" style="fill:rgb(200,75,217)"/><path d="M-35.75797722813841,0.12808651995090278L-36.222752634209485,0.26647896537851395L34.68655251593016,129.28652837677362z" style="fill:rgb(133,39,219)"/><path d="M37.00498672809971,128.14938919927624L-33.58022377074162,-1.038458910637044L-33.980921996107014,-0.7494592093751156z" style="fill:rgb(190,67,220)"/><path d="M-35.29667441357116,-0.04465677790499432L-35.75797722813841,0.12808651995090278L35.0998542846995,129.17642940878858z" style="fill:rgb(145,43,221)"/><path d="M-33.980921996107014,-0.7494592093751156L-34.4035138494535,-0.48571549529737645L36.29152389934974,128.64790896033108z" style="fill:rgb(180,60,222)"/><path d="M-34.84361863995219,-0.24996625594697694L-35.29667441357116,-0.04465677790499432L35.50791935678632,129.03224650132407z" style="fill:rgb(157,47,222)"/><path d="M-34.4035138494535,-0.48571549529737645L-34.84361863995219,-0.24996625594697694L35.906519452974806,128.85545522867022z" style="fill:rgb(169,53,222)"/><path d="M136.6699585400002,-172.92940057689276L134.3528326204448,-179.975370465888L153.28437410358956,-58.63269445212533z" style="fill:rgb(247,158,158)"/><path d="M-215.86642702611445,38.06935824824887L153.28437410358956,-58.63269445212533L134.3528326204448,-179.975370465888z" style="fill:rgb(83,212,212)"/><path d="M-215.86642702611445,38.06935824824887L-211.35399779144515,44.09133766153704L155.8013676648593,-51.39831810560735z" style="fill:rgb(127,37,217)"/><path d="M-36.90167747718521,-6.344586406547219L-37.35150973430692,-6.140547934388769L-37.78855465692755,-5.906502327898588zM-37.78855465692755,-5.906502327898588L-38.20837762801129,-5.644825183708245L-38.60670978231884,-5.358170611379544zM-35.982012021485914,-6.654667007298251L-36.90167747718521,-6.344586406547219L-37.78855465692755,-5.906502327898588zM-35.982012021485914,-6.654667007298251L-36.44362761617262,-6.516543835143998L-36.90167747718521,-6.344586406547219zM-37.78855465692755,-5.906502327898588L-38.60670978231884,-5.358170611379544L-39.32295826864119,-4.72177487623219zM-35.982012021485914,-6.654667007298251L-37.78855465692755,-5.906502327898588L-39.32295826864119,-4.72177487623219zM-38.60670978231884,-5.358170611379544L-38.97950190086995,-5.049444045019971L-39.32295826864119,-4.72177487623219zM-35.06682288661068,-6.824112984431162L-35.52151437663609,-6.757542953136147L-35.982012021485914,-6.654667007298251zM-34.19324364821135,-6.84592575532796L-35.06682288661068,-6.824112984431162L-35.982012021485914,-6.654667007298251zM-39.32295826864119,-4.72177487623219L-39.633574785808236,-4.378485573754582L-39.908170441523595,-4.023060414277221zM-34.19324364821135,-6.84592575532796L-34.6225550477467,-6.853681226705011L-35.06682288661068,-6.824112984431162zM-32.71006772810182,-6.448371919215086L-35.982012021485914,-6.654667007298251L-39.32295826864119,-4.72177487623219zM-39.32295826864119,-4.72177487623219L-39.908170441523595,-4.023060414277221L-40.595990795248696,-2.5533327555434777zM-39.908170441523595,-4.023060414277221L-40.14392839932792,-3.6591079063437735L-40.33842498419381,-3.290329615320942zM-32.71006772810182,-6.448371919215086L-34.19324364821135,-6.84592575532796L-35.982012021485914,-6.654667007298251zM-33.39681907642697,-6.719035105698714L-33.783267005438674,-6.800899924677614L-34.19324364821135,-6.84592575532796zM-39.908170441523595,-4.023060414277221L-40.33842498419381,-3.290329615320942L-40.595990795248696,-2.5533327555434777zM-32.71006772810182,-6.448371919215086L-33.39681907642697,-6.719035105698714L-34.19324364821135,-6.84592575532796zM-40.33842498419381,-3.290329615320942L-40.489637652361964,-2.920480535383381L-40.595990795248696,-2.5533327555434777zM-32.71006772810182,-6.448371919215086L-33.03785465662687,-6.601135368510434L-33.39681907642697,-6.719035105698714zM-40.595990795248696,-2.5533327555434777L-40.656360070816746,-2.19263832680978L-40.67007795790702,-1.8420896530014115zM-39.32295826864119,-4.72177487623219L-40.595990795248696,-2.5533327555434777L-39.79553128536811,-0.14201886641002895zM-32.16119228058169,-6.04470740360578L-32.4168370612208,-6.2622723636767335L-32.71006772810182,-6.448371919215086zM-40.595990795248696,-2.5533327555434777L-40.67007795790702,-1.8420896530014115L-40.5572947748145,-1.1856853981208861zM-31.772877297146756,-5.524263580677423L-32.16119228058169,-6.04470740360578L-32.71006772810182,-6.448371919215086zM-40.67007795790702,-1.8420896530014115L-40.636957516425156,-1.5052840941668229L-40.5572947748145,-1.1856853981208861zM-31.772877297146756,-5.524263580677423L-31.945786954866023,-5.797871452004956L-32.16119228058169,-6.04470740360578zM-33.205562008596324,-1.3497129725397734L-32.71006772810182,-6.448371919215086L-39.32295826864119,-4.72177487623219zM-40.595990795248696,-2.5533327555434777L-40.5572947748145,-1.1856853981208861L-39.79553128536811,-0.14201886641002895zM-31.53567697726703,-4.2212781973643265L-31.772877297146756,-5.524263580677423L-32.71006772810182,-6.448371919215086zM-40.5572947748145,-1.1856853981208861L-40.431854285984706,-0.8865886681963167L-40.2618702641347,-0.6110857846311959zM-31.561354973884402,-4.90809695598034L-31.64427523009475,-5.226661655989432L-31.772877297146756,-5.524263580677423zM-39.32295826864119,-4.72177487623219L-39.79553128536811,-0.14201886641002895L-33.205562008596324,-1.3497129725397734zM-40.5572947748145,-1.1856853981208861L-40.2618702641347,-0.6110857846311959L-39.79553128536811,-0.14201886641002895zM-31.53567697726703,-4.2212781973643265L-31.561354973884402,-4.90809695598034L-31.772877297146756,-5.524263580677423zM-40.2618702641347,-0.6110857846311959L-40.0490496637405,-0.36203266600154904L-39.79553128536811,-0.14201886641002895zM-31.53567697726703,-4.2212781973643265L-31.525015847498285,-4.57182162856328L-31.561354973884402,-4.90809695598034zM-33.205562008596324,-1.3497129725397734L-31.53567697726703,-4.2212781973643265L-32.71006772810182,-6.448371919215086zM-39.79553128536811,-0.14201886641002895L-39.50388263095335,0.0466605082801324L-39.17707537075928,0.20202965907345186zM-31.697268475976564,-3.49189166401905L-31.59327691230771,-3.860063435420289L-31.53567697726703,-4.2212781973643265zM-39.79553128536811,-0.14201886641002895L-39.17707537075928,0.20202965907345186L-38.43167399871944,0.40665945953412885zM-32.03983550543512,-2.7498904233219172L-31.697268475976564,-3.49189166401905L-31.53567697726703,-4.2212781973643265zM-39.17707537075928,0.20202965907345186L-38.818448225452634,0.3224541928747806L-38.43167399871944,0.40665945953412885zM-32.03983550543512,-2.7498904233219172L-31.84662487044668,-3.1205562732079795L-31.697268475976564,-3.49189166401905zM-39.79553128536811,-0.14201886641002895L-38.43167399871944,0.40665945953412885L-36.686173258968694,0.3690963873268985zM-33.205562008596324,-1.3497129725397734L-32.03983550543512,-2.7498904233219172L-31.53567697726703,-4.2212781973643265zM-39.79553128536811,-0.14201886641002895L-36.686173258968694,0.3690963873268985L-33.205562008596324,-1.3497129725397734zM-38.43167399871944,0.40665945953412885L-38.020724592780326,0.45374521091418074L-37.589833790891014,0.4631964630399628zM-32.549543034244536,-2.0258557666559756L-32.27494431032485,-2.383726298573435L-32.03983550543512,-2.7498904233219172zM-38.43167399871944,0.40665945953412885L-37.589833790891014,0.4631964630399628L-36.686173258968694,0.3690963873268985zM-33.205562008596324,-1.3497129725397734L-32.549543034244536,-2.0258557666559756L-32.03983550543512,-2.7498904233219172zM-37.589833790891014,0.4631964630399628L-37.14344451221859,0.43488988398536726L-36.686173258968694,0.3690963873268985zM-33.205562008596324,-1.3497129725397734L-32.86081578294946,-1.679988356384456L-32.549543034244536,-2.0258557666559756zM-36.686173258968694,0.3690963873268985L-36.222752634209485,0.26647896537851395L-35.75797722813841,0.12808651995090278zM-36.686173258968694,0.3690963873268985L-34.84361863995219,-0.24996625594697694L-33.205562008596324,-1.3497129725397734zM-33.980921996107014,-0.7494592093751156L-33.58022377074162,-1.038458910637044L-33.205562008596324,-1.3497129725397734zM-36.686173258968694,0.3690963873268985L-35.75797722813841,0.12808651995090278L-34.84361863995219,-0.24996625594697694zM-34.84361863995219,-0.24996625594697694L-33.980921996107014,-0.7494592093751156L-33.205562008596324,-1.3497129725397734zM-35.75797722813841,0.12808651995090278L-35.29667441357116,-0.04465677790499432L-34.84361863995219,-0.24996625594697694zM-34.84361863995219,-0.24996625594697694L-34.4035138494535,-0.48571549529737645L-33.980921996107014,-0.7494592093751156z" style="fill:rgb(83,212,212)"/><path d="M153.28437410358956,-58.63269445212533L155.8013676648593,-51.39831810560735L136.6699585400002,-172.92940057689276z" style="fill:rgb(247,158,158)"/><path d="M155.8013676648593,-51.39831810560735L153.28437410358956,-58.63269445212533L-215.86642702611445,38.06935824824887z" style="fill:rgb(127,37,217)"/></svg>
