<?xml version="1.0" encoding="UTF-8"?>
<!-- Generated by jsxcad -->
<!DOCTYPE svg PUBLIC "-//W3C//DTD SVG 1.1 Tiny//EN" "http://www.w3.org/Graphics/SVG/1.1/DTD/svg11-tiny.dtd">
<svg viewBox="-250 -250 500 500" width="500" height="500" xmlns="http://www.w3.org/2000/svg"><path d="M-92.48708484153916,48.42002754268878L-92.60373280245865,48.19430393519407L-169.20919738511196,-72.84912585579501z" style="fill:rgb(237,191,120)"/><path d="M-92.40466701348527,48.66425693765257L-92.48708484153916,48.42002754268878L-169.1019154283639,-72.63314798100359z" style="fill:rgb(241,183,129)"/><path d="M-92.35734645737323,48.92449942185058L-92.40466701348527,48.66425693765257L-169.03308829214944,-72.39650066333274z" style="fill:rgb(244,175,139)"/><path d="M-176.50615840250532,-68.41545658057514L-99.0550067788976,52.22908363797067L-98.90692202698608,52.435344096338916z" style="fill:rgb(22,56,144)"/><path d="M-92.34564723447569,49.19809036237232L-92.35734645737323,48.92449942185058L-169.00347395746837,-72.14160610340276z" style="fill:rgb(246,167,149)"/><path d="M-176.3635472000941,-68.22071121419798L-98.90692202698608,52.435344096338916L-98.72713407518903,52.61887431212767z" style="fill:rgb(29,50,153)"/><path d="M-92.3697137888959,49.48223571452944L-92.34564723447569,49.19809036237232L-169.01341957682612,-71.87106925134837z" style="fill:rgb(247,158,158)"/><path d="M-176.1848310412114,-68.05063742897183L-98.72713407518903,52.61887431212767L-98.5174783904473,52.77776237928116z" style="fill:rgb(36,45,162)"/><path d="M-92.42932409294428,49.774010490550275L-92.3697137888959,49.48223571452944L-169.06284102241582,-71.58764918763659z" style="fill:rgb(246,149,167)"/><path d="M-175.97181880905342,-67.90698639430956L-98.5174783904473,52.77776237928116L-98.28007410411702,52.910360535648664z" style="fill:rgb(44,40,171)"/><path d="M-92.52389748834159,50.07041573173516L-92.42932409294428,49.774010490550275L-169.15126338361847,-71.2942609602246z" style="fill:rgb(244,139,175)"/><path d="M-175.72666928530379,-67.79127884735448L-98.28007410411702,52.910360535648664L-98.01737105155652,53.01526907996344z" style="fill:rgb(54,37,179)"/><path d="M-92.65247674262977,50.368404965347914L-92.52389748834159,50.07041573173516L-169.2778269392579,-70.99392055080851z" style="fill:rgb(241,129,183)"/><path d="M-175.45187040295008,-67.7047274144919L-98.01737105155652,53.01526907996344L-97.73203575904235,53.0914018330197z" style="fill:rgb(64,34,187)"/><path d="M-92.81376103116303,50.664904816870866L-92.65247674262977,50.368404965347914L-169.4412485831552,-70.68970650537864z" style="fill:rgb(237,120,191)"/><path d="M-175.1502460487867,-67.64823746213183L-97.73203575904235,53.0914018330197L-97.4270138685674,53.137949252552325z" style="fill:rgb(74,32,194)"/><path d="M-93.0061102781387,50.95685326322296L-92.81376103116303,50.664904816870866L-169.63985443111952,-70.38477575119249z" style="fill:rgb(232,110,198)"/><path d="M-174.8248956857781,-67.62242026252584L-97.4270138685674,53.137949252552325L-97.10543860929543,53.154409100681036z" style="fill:rgb(85,32,201)"/><path d="M-93.22754523193522,51.241232473962675L-93.0061102781387,50.95685326322296L-169.87164620239412,-70.08225997131872z" style="fill:rgb(225,101,204)"/><path d="M-174.47916061007314,-67.62756775214413L-97.10543860929543,53.154409100681036L-96.77061993754668,53.140605434293185z" style="fill:rgb(97,32,207)"/><path d="M-93.47580383515267,51.515098688029966L-93.22754523193522,51.241232473962675L-170.13421450510833,-69.78529253912386z" style="fill:rgb(218,92,209)"/><path d="M-174.1166003498641,-67.66363297183096L-96.77061993754668,53.140605434293185L-96.42602141099921,53.09665828599327z" style="fill:rgb(109,33,211)"/><path d="M-93.74832558676412,51.77562168779588L-93.47580383515267,51.515098688029966L-170.42489791663803,-69.49695031299422z" style="fill:rgb(210,83,214)"/><path d="M-173.74097114842715,-67.73027012312382L-96.42602141099921,53.09665828599327L-96.07518334830493,53.023015510258766z" style="fill:rgb(121,35,215)"/><path d="M-94.04230026735586,52.020098764936456L-93.74832558676412,51.77562168779588L-170.74067024603426,-69.22021495120346z" style="fill:rgb(200,75,217)"/><path d="M-173.356123143436,-67.8267957809651L-96.07518334830493,53.023015510258766L-95.72174765257348,52.92042898450439z" style="fill:rgb(133,39,219)"/><path d="M-94.35469961681173,52.245997659335956L-94.04230026735586,52.020098764936456L-171.07829937346298,-68.95795945740925z" style="fill:rgb(190,67,220)"/><path d="M-172.9660539655149,-67.95222214701218L-95.72174765257348,52.92042898450439L-95.36936275891426,52.78994839311954z" style="fill:rgb(145,43,221)"/><path d="M-171.80492756745127,-68.48757942849444L-94.68228245438297,52.450983275930966L-94.35469961681173,52.245997659335956z" style="fill:rgb(180,60,222)"/><path d="M-172.57480456088715,-68.1052639880194L-95.36936275891426,52.78994839311954L-95.02168112088155,52.632926340787506z" style="fill:rgb(157,47,222)"/><path d="M-172.1864211359459,-68.2843334052822L-95.02168112088155,52.632926340787506L-94.68228245438297,52.450983275930966z" style="fill:rgb(169,53,222)"/><path d="M-169.20919738511196,-72.84912585579501L-169.1019154283639,-72.63314798100359L-92.48708484153916,48.42002754268878z" style="fill:rgb(237,191,120)"/><path d="M-169.1019154283639,-72.63314798100359L-169.03308829214944,-72.39650066333274L-92.40466701348527,48.66425693765257z" style="fill:rgb(241,183,129)"/><path d="M-169.03308829214944,-72.39650066333274L-169.00347395746837,-72.14160610340276L-92.35734645737323,48.92449942185058z" style="fill:rgb(244,175,139)"/><path d="M-98.90692202698608,52.435344096338916L-176.3635472000941,-68.22071121419798L-176.50615840250532,-68.41545658057514z" style="fill:rgb(22,56,144)"/><path d="M-169.00347395746837,-72.14160610340276L-169.01341957682612,-71.87106925134837L-92.34564723447569,49.19809036237232z" style="fill:rgb(246,167,149)"/><path d="M-98.72713407518903,52.61887431212767L-176.1848310412114,-68.05063742897183L-176.3635472000941,-68.22071121419798z" style="fill:rgb(29,50,153)"/><path d="M-169.01341957682612,-71.87106925134837L-169.06284102241582,-71.58764918763659L-92.3697137888959,49.48223571452944z" style="fill:rgb(247,158,158)"/><path d="M-98.5174783904473,52.77776237928116L-175.97181880905342,-67.90698639430956L-176.1848310412114,-68.05063742897183z" style="fill:rgb(36,45,162)"/><path d="M-169.06284102241582,-71.58764918763659L-169.15126338361847,-71.2942609602246L-92.42932409294428,49.774010490550275z" style="fill:rgb(246,149,167)"/><path d="M-98.28007410411702,52.910360535648664L-175.72666928530379,-67.79127884735448L-175.97181880905342,-67.90698639430956z" style="fill:rgb(44,40,171)"/><path d="M-169.15126338361847,-71.2942609602246L-169.2778269392579,-70.99392055080851L-92.52389748834159,50.07041573173516z" style="fill:rgb(244,139,175)"/><path d="M-98.01737105155652,53.01526907996344L-175.45187040295008,-67.7047274144919L-175.72666928530379,-67.79127884735448z" style="fill:rgb(54,37,179)"/><path d="M-169.2778269392579,-70.99392055080851L-169.4412485831552,-70.68970650537864L-92.65247674262977,50.368404965347914z" style="fill:rgb(241,129,183)"/><path d="M-97.73203575904235,53.0914018330197L-175.1502460487867,-67.64823746213183L-175.45187040295008,-67.7047274144919z" style="fill:rgb(64,34,187)"/><path d="M-169.4412485831552,-70.68970650537864L-169.63985443111952,-70.38477575119249L-92.81376103116303,50.664904816870866z" style="fill:rgb(237,120,191)"/><path d="M-97.4270138685674,53.137949252552325L-174.8248956857781,-67.62242026252584L-175.1502460487867,-67.64823746213183z" style="fill:rgb(74,32,194)"/><path d="M-169.63985443111952,-70.38477575119249L-169.87164620239412,-70.08225997131872L-93.0061102781387,50.95685326322296z" style="fill:rgb(232,110,198)"/><path d="M-97.10543860929543,53.154409100681036L-174.47916061007314,-67.62756775214413L-174.8248956857781,-67.62242026252584z" style="fill:rgb(85,32,201)"/><path d="M-169.87164620239412,-70.08225997131872L-170.13421450510833,-69.78529253912386L-93.22754523193522,51.241232473962675z" style="fill:rgb(225,101,204)"/><path d="M-96.77061993754668,53.140605434293185L-174.1166003498641,-67.66363297183096L-174.47916061007314,-67.62756775214413z" style="fill:rgb(97,32,207)"/><path d="M-170.13421450510833,-69.78529253912386L-170.42489791663803,-69.49695031299422L-93.47580383515267,51.515098688029966z" style="fill:rgb(218,92,209)"/><path d="M-96.42602141099921,53.09665828599327L-173.74097114842715,-67.73027012312382L-174.1166003498641,-67.66363297183096z" style="fill:rgb(109,33,211)"/><path d="M-170.42489791663803,-69.49695031299422L-170.74067024603426,-69.22021495120346L-93.74832558676412,51.77562168779588z" style="fill:rgb(210,83,214)"/><path d="M-96.07518334830493,53.023015510258766L-173.356123143436,-67.8267957809651L-173.74097114842715,-67.73027012312382z" style="fill:rgb(121,35,215)"/><path d="M-170.74067024603426,-69.22021495120346L-171.07829937346298,-68.95795945740925L-94.04230026735586,52.020098764936456z" style="fill:rgb(200,75,217)"/><path d="M-95.72174765257348,52.92042898450439L-172.9660539655149,-67.95222214701218L-173.356123143436,-67.8267957809651z" style="fill:rgb(133,39,219)"/><path d="M-171.07829937346298,-68.95795945740925L-171.43427207015026,-68.71290199525075L-94.35469961681173,52.245997659335956z" style="fill:rgb(190,67,220)"/><path d="M-95.36936275891426,52.78994839311954L-172.57480456088715,-68.1052639880194L-172.9660539655149,-67.95222214701218z" style="fill:rgb(145,43,221)"/><path d="M-94.35469961681173,52.245997659335956L-171.43427207015026,-68.71290199525075L-171.80492756745127,-68.48757942849444z" style="fill:rgb(180,60,222)"/><path d="M-95.02168112088155,52.632926340787506L-172.1864211359459,-68.2843334052822L-172.57480456088715,-68.1052639880194z" style="fill:rgb(157,47,222)"/><path d="M-94.68228245438297,52.450983275930966L-171.80492756745127,-68.48757942849444L-172.1864211359459,-68.2843334052822z" style="fill:rgb(169,53,222)"/><path d="M163.2563316143116,-14.357122732075991L163.3811584472341,-14.098097716071475L114.54380979882629,-152.43361776508888z" style="fill:rgb(10,79,115)"/><path d="M163.3811584472341,-14.098097716071475L163.54412432386383,-13.855991851856253L114.71193144590649,-152.20567607428757z" style="fill:rgb(13,71,125)"/><path d="M163.54412432386383,-13.855991851856253L163.7435725900873,-13.63330593100038L114.92135941865348,-151.99960223778132z" style="fill:rgb(17,63,134)"/><path d="M163.7435725900873,-13.63330593100038L163.97747931646856,-13.432343575243076L115.16999231246808,-151.81752252828306z" style="fill:rgb(22,56,144)"/><path d="M123.12101815300834,-155.75641080657346L171.01333181576484,-16.894625249164832L170.9255276826978,-17.167533808144004z" style="fill:rgb(246,167,149)"/><path d="M163.97747931646856,-13.432343575243076L164.24348489101277,-13.25519142765287L115.45530303584059,-151.66132562892858z" style="fill:rgb(29,50,153)"/><path d="M123.15973322215056,-155.47801516023745L171.06086847241122,-16.609923296800165L171.01333181576484,-16.894625249164832z" style="fill:rgb(247,158,158)"/><path d="M164.24348489101277,-13.25519142765287L164.5388644649414,-13.10368945202647L115.77440062735671,-151.53266226576235z" style="fill:rgb(36,45,162)"/><path d="M123.15290981086973,-155.18784807287096L171.06761350078634,-16.316350721542527L171.06086847241122,-16.609923296800165z" style="fill:rgb(246,149,167)"/><path d="M164.5388644649414,-13.10368945202647L164.86061907692815,-12.979422412415843L116.12402153863114,-151.43288260575792z" style="fill:rgb(44,40,171)"/><path d="M123.10055798042386,-154.8888907750667L171.03347400086483,-16.016924282883988L171.06761350078634,-16.316350721542527z" style="fill:rgb(244,139,175)"/><path d="M164.86061907692815,-12.979422412415843L165.20542759208197,-12.883689383022583L116.50058721533286,-151.36302425279652z" style="fill:rgb(54,37,179)"/><path d="M123.0031864941682,-154.5842266405707L170.95876433274668,-15.71472508843496L171.03347400086483,-16.016924282883988z" style="fill:rgb(241,129,183)"/><path d="M165.20542759208197,-12.883689383022583L165.56977655640216,-12.817499831610322L116.9002350282851,-151.3238431640059z" style="fill:rgb(64,34,187)"/><path d="M122.86178092043075,-154.27699010252655L170.84424243296726,-15.412871285316683L170.95876433274668,-15.71472508843496z" style="fill:rgb(237,120,191)"/><path d="M165.56977655640216,-12.817499831610322L165.94990248789207,-12.781557170045241L117.31886286337954,-151.3157738542155z" style="fill:rgb(74,32,194)"/><path d="M122.67773947744729,-153.97035712138018L170.691037035377,-15.114478729270719L170.84424243296726,-15.412871285316683z" style="fill:rgb(232,110,198)"/><path d="M165.94990248789207,-12.781557170045241L166.3418929664423,-12.776251497655982L117.75214203573091,-151.33890720766462z" style="fill:rgb(85,32,201)"/><path d="M122.45295962785394,-153.66750435362226L170.50073909965786,-14.822631071646073L170.691037035377,-15.114478729270719z" style="fill:rgb(225,101,204)"/><path d="M166.3418929664423,-12.776251497655982L166.74170664539926,-12.801654415094514L118.19559500340551,-151.39303121083364z" style="fill:rgb(97,32,207)"/><path d="M122.18974477295126,-153.3715566896039L170.27526442734862,-14.540350176820462L170.50073909965786,-14.822631071646073z" style="fill:rgb(218,92,209)"/><path d="M166.74170664539926,-12.801654415094514L167.14521238011528,-12.857518201483776L118.64466429737338,-151.47760820237662z" style="fill:rgb(109,33,211)"/><path d="M121.89079341341613,-153.08557546725626L170.01695696317813,-14.270557080989072L170.27526442734862,-14.540350176820462z" style="fill:rgb(210,83,214)"/><path d="M167.14521238011528,-12.857518201483776L167.54822961053202,-12.94327838542416L119.09469484313868,-151.5917762641167z" style="fill:rgb(121,35,215)"/><path d="M121.5591730447254,-152.81254554587775L169.7284526452892,-14.016048535606869L170.01695696317813,-14.270557080989072z" style="fill:rgb(200,75,217)"/><path d="M167.54822961053202,-12.94327838542416L167.94661001055596,-13.058055339135976L119.54102095329095,-151.73435040999988z" style="fill:rgb(133,39,219)"/><path d="M121.19831990960957,-152.5552903884505L169.41275301303244,-13.779461641552324L169.7284526452892,-14.016048535606869z" style="fill:rgb(190,67,220)"/><path d="M167.94661001055596,-13.058055339135976L168.33621355539765,-13.200669508961587L119.97901323704403,-151.90386806853934z" style="fill:rgb(145,43,221)"/><path d="M169.0730988557326,-13.563249179435754L169.41275301303244,-13.779461641552324L121.19831990960957,-152.5552903884505z" style="fill:rgb(180,60,222)"/><path d="M168.33621355539765,-13.200669508961587L168.71301015618764,-13.36965090356712L120.40412364922874,-152.09859042661705z" style="fill:rgb(157,47,222)"/><path d="M168.71301015618764,-13.36965090356712L169.0730988557326,-13.563249179435754L120.81197168921078,-152.31647509774425z" style="fill:rgb(169,53,222)"/><path d="M-176.18702378311335,-72.18810859558135L-172.3593001198175,-73.4233548522704L-172.74714515513,-73.29819695146371z" style="fill:rgb(119,69,240)"/><path d="M-176.2763452914353,-71.696892631889L-173.1360353149663,-73.145787097941L-173.52204653011046,-72.96768737974759z" style="fill:rgb(116,133,254)"/><path d="M-173.1360353149663,-73.145787097941L-173.52204653011046,-72.96768737974759L-173.90123913643424,-72.76570907570168z" style="fill:rgb(83,212,212)"/><path d="M-176.31586834080295,-71.4795350730821L-173.52204653011046,-72.96768737974759L-173.90123913643424,-72.76570907570168z" style="fill:rgb(126,133,254)"/><path d="M-173.90123913643424,-72.76570907570168L-174.26975911126496,-72.54190037865405L-174.62386212290392,-72.29854092007953zM-172.3593001198175,-73.4233548522704L-173.1360353149663,-73.145787097941L-173.90123913643424,-72.76570907570168zM-172.3593001198175,-73.4233548522704L-172.74714515513,-73.29819695146371L-173.1360353149663,-73.145787097941zM-173.90123913643424,-72.76570907570168L-174.62386212290392,-72.29854092007953L-175.27455169162428,-71.76321578112726zM-172.3593001198175,-73.4233548522704L-173.90123913643424,-72.76570907570168L-175.27455169162428,-71.76321578112726z" style="fill:rgb(83,212,212)"/><path d="M-176.38732543889776,-71.08656160707856L-174.26975911126496,-72.54190037865405L-174.62386212290392,-72.29854092007953z" style="fill:rgb(141,144,253)"/><path d="M-174.62386212290392,-72.29854092007953L-174.9599382467794,-72.03809795752295L-175.27455169162428,-71.76321578112726zM-171.602537614457,-73.58710045044032L-171.97646378426444,-73.5199868480163L-172.3593001198175,-73.4233548522704z" style="fill:rgb(83,212,212)"/><path d="M-176.42005818938162,-70.90655329635749L-174.62386212290392,-72.29854092007953L-174.9599382467794,-72.03809795752295z" style="fill:rgb(104,195,232)"/><path d="M-170.89652220874783,-73.63028442181832L-171.602537614457,-73.58710045044032L-172.3593001198175,-73.4233548522704zM-175.27455169162428,-71.76321578112726L-175.5645039193423,-71.47669117146953L-175.8268373605868,-71.18143151241343zM-170.89652220874783,-73.63028442181832L-171.2413277730828,-73.62399287955346L-171.602537614457,-73.58710045044032zM-169.74864561127447,-73.352375067433L-172.3593001198175,-73.4233548522704L-175.27455169162428,-71.76321578112726zM-175.27455169162428,-71.76321578112726L-175.8268373605868,-71.18143151241343L-176.55084349854044,-69.97389002979996zM-175.8268373605868,-71.18143151241343L-176.05886177797296,-70.88045019058941L-176.25817133223723,-70.57679860959867zM-169.74864561127447,-73.352375067433L-170.89652220874783,-73.63028442181832L-172.3593001198175,-73.4233548522704z" style="fill:rgb(83,212,212)"/><path d="M-176.537778648454,-70.2591543822262L-175.8268373605868,-71.18143151241343L-176.05886177797296,-70.88045019058941z" style="fill:rgb(163,180,237)"/><path d="M-170.27002337459723,-73.55102406496734L-170.57164241805202,-73.60588131861839L-170.89652220874783,-73.63028442181832z" style="fill:rgb(83,212,212)"/><path d="M-171.2413277730828,-73.62399287955346L-168.69784754972633,-73.67038426244822L-170.89652220874783,-73.63028442181832z" style="fill:rgb(67,105,237)"/><path d="M-175.8268373605868,-71.18143151241343L-176.25817133223723,-70.57679860959867L-176.55084349854044,-69.97389002979996zM-169.74864561127447,-73.352375067433L-170.27002337459723,-73.55102406496734L-170.89652220874783,-73.63028442181832z" style="fill:rgb(83,212,212)"/><path d="M-168.54950068884747,-74.52111875895874L-168.61899447030936,-74.12258991975263L-168.57432745500515,-74.37874091263058z" style="fill:rgb(255,127,127)"/><path d="M-176.25817133223723,-70.57679860959867L-176.4227388096069,-70.27358174750476L-176.55084349854044,-69.97389002979996zM-169.74864561127447,-73.352375067433L-169.9947389732723,-73.4662379290097L-170.27002337459723,-73.55102406496734z" style="fill:rgb(83,212,212)"/><path d="M-170.57164241805202,-73.60588131861839L-168.76635185777195,-73.2775266102551L-170.27002337459723,-73.55102406496734z" style="fill:rgb(69,26,178)"/><path d="M-168.54950068884747,-74.52111875895874L-168.69784754972633,-73.67038426244822L-168.65995774089086,-73.88767103111392z" style="fill:rgb(255,127,127)"/><path d="M-170.27002337459723,-73.55102406496734L-168.79773230632478,-73.09756478612198L-169.9947389732723,-73.4662379290097z" style="fill:rgb(159,250,136)"/><path d="M-176.55084349854044,-69.97389002979996L-176.64113917587474,-69.68079463478917L-176.69268941484106,-69.3972930731656z" style="fill:rgb(83,212,212)"/><path d="M-168.54950068884747,-74.52111875895874L-168.76635185777195,-73.2775266102551L-168.7331729718003,-73.46779885394093z" style="fill:rgb(255,127,127)"/><path d="M-175.27455169162428,-71.76321578112726L-176.55084349854044,-69.97389002979996L-176.1848310412114,-68.05063742897183zM-169.35382774819394,-73.04225690489585L-169.53425775166397,-73.21057292121705L-169.74864561127447,-73.352375067433zM-176.55084349854044,-69.97389002979996L-176.69268941484106,-69.3972930731656L-176.67768895047448,-68.87060409109937z" style="fill:rgb(83,212,212)"/><path d="M-169.74864561127447,-73.352375067433L-168.85623215324853,-72.76208221169476L-169.53425775166397,-73.21057292121705z" style="fill:rgb(114,233,197)"/><path d="M-168.54950068884747,-74.52111875895874L-168.85623215324853,-72.76208221169476L-168.8276081952436,-72.92623291032722z" style="fill:rgb(255,127,127)"/><path d="M-169.1019154283639,-72.63314798100359L-169.35382774819394,-73.04225690489585L-169.74864561127447,-73.352375067433zM-176.69268941484106,-69.3972930731656L-176.70493214143232,-69.126303723078L-176.67768895047448,-68.87060409109937z" style="fill:rgb(83,212,212)"/><path d="M-168.54950068884747,-74.52111875895874L-168.93670798034358,-72.30057044122594L-168.9105885761339,-72.45035481543414z" style="fill:rgb(255,127,127)"/><path d="M-169.1019154283639,-72.63314798100359L-169.20919738511196,-72.84912585579501L-169.35382774819394,-73.04225690489585zM-170.74067024603426,-69.22021495120346L-169.74864561127447,-73.352375067433L-175.27455169162428,-71.76321578112726z" style="fill:rgb(83,212,212)"/><path d="M-169.35382774819394,-73.04225690489585L-168.9105885761339,-72.45035481543414L-169.20919738511196,-72.84912585579501z" style="fill:rgb(150,237,188)"/><path d="M-176.55084349854044,-69.97389002979996L-176.67768895047448,-68.87060409109937L-176.1848310412114,-68.05063742897183z" style="fill:rgb(83,212,212)"/><path d="M-168.54950068884747,-74.52111875895874L-169.013904021221,-71.85786754789076L-168.98786543543665,-72.00719168459065z" style="fill:rgb(255,127,127)"/><path d="M-169.06284102241582,-71.58764918763659L-169.1019154283639,-72.63314798100359L-169.74864561127447,-73.352375067433zM-176.67768895047448,-68.87060409109937L-176.61121069320956,-68.63283888611058L-176.50615840250532,-68.41545658057514zM-169.00347395746837,-72.14160610340276L-169.03308829214944,-72.39650066333274L-169.1019154283639,-72.63314798100359z" style="fill:rgb(83,212,212)"/><path d="M-169.1019154283639,-72.63314798100359L-168.9623789503237,-72.15335126209054L-169.03308829214944,-72.39650066333274z" style="fill:rgb(188,224,182)"/><path d="M-175.27455169162428,-71.76321578112726L-176.1848310412114,-68.05063742897183L-170.74067024603426,-69.22021495120346zM-176.67768895047448,-68.87060409109937L-176.50615840250532,-68.41545658057514L-176.1848310412114,-68.05063742897183z" style="fill:rgb(83,212,212)"/><path d="M-169.03308829214944,-72.39650066333274L-168.98786543543665,-72.00719168459065L-169.00347395746837,-72.14160610340276z" style="fill:rgb(162,224,202)"/><path d="M-169.06284102241582,-71.58764918763659L-169.00347395746837,-72.14160610340276L-169.1019154283639,-72.63314798100359zM-176.50615840250532,-68.41545658057514L-176.3635472000941,-68.22071121419798L-176.1848310412114,-68.05063742897183zM-169.06284102241582,-71.58764918763659L-169.01341957682612,-71.87106925134837L-169.00347395746837,-72.14160610340276zM-170.74067024603426,-69.22021495120346L-169.06284102241582,-71.58764918763659L-169.74864561127447,-73.352375067433zM-176.1848310412114,-68.05063742897183L-175.97181880905342,-67.90698639430956L-175.72666928530379,-67.79127884735448zM-169.2778269392579,-70.99392055080851L-169.15126338361847,-71.2942609602246L-169.06284102241582,-71.58764918763659z" style="fill:rgb(83,212,212)"/><path d="M-190.5143446369629,-62.910936361815594L-177.1794418607265,-66.73036943014131L-169.5257435891077,-68.92257637166797z" style="fill:rgb(110,78,243)"/><path d="M-176.1848310412114,-68.05063742897183L-175.72666928530379,-67.79127884735448L-175.1502460487867,-67.64823746213183zM-169.63985443111952,-70.38477575119249L-169.2778269392579,-70.99392055080851L-169.06284102241582,-71.58764918763659zM-175.72666928530379,-67.79127884735448L-175.45187040295008,-67.7047274144919L-175.1502460487867,-67.64823746213183zM-169.63985443111952,-70.38477575119249L-169.4412485831552,-70.68970650537864L-169.2778269392579,-70.99392055080851zM-176.1848310412114,-68.05063742897183L-175.1502460487867,-67.64823746213183L-173.74097114842715,-67.73027012312382zM-170.74067024603426,-69.22021495120346L-169.63985443111952,-70.38477575119249L-169.06284102241582,-71.58764918763659zM-176.1848310412114,-68.05063742897183L-173.74097114842715,-67.73027012312382L-170.74067024603426,-69.22021495120346zM-175.1502460487867,-67.64823746213183L-174.8248956857781,-67.62242026252584L-174.47916061007314,-67.62756775214413zM-170.13421450510833,-69.78529253912386L-169.87164620239412,-70.08225997131872L-169.63985443111952,-70.38477575119249zM-175.1502460487867,-67.64823746213183L-174.47916061007314,-67.62756775214413L-173.74097114842715,-67.73027012312382zM-170.74067024603426,-69.22021495120346L-170.13421450510833,-69.78529253912386L-169.63985443111952,-70.38477575119249zM-174.47916061007314,-67.62756775214413L-174.1166003498641,-67.66363297183096L-173.74097114842715,-67.73027012312382zM-170.74067024603426,-69.22021495120346L-170.42489791663803,-69.49695031299422L-170.13421450510833,-69.78529253912386zM-173.74097114842715,-67.73027012312382L-173.356123143436,-67.8267957809651L-172.9660539655149,-67.95222214701218zM-173.74097114842715,-67.73027012312382L-172.1864211359459,-68.2843334052822L-170.74067024603426,-69.22021495120346zM-171.43427207015026,-68.71290199525075L-171.07829937346298,-68.95795945740925L-170.74067024603426,-69.22021495120346zM-173.74097114842715,-67.73027012312382L-172.9660539655149,-67.95222214701218L-172.1864211359459,-68.2843334052822zM-172.1864211359459,-68.2843334052822L-171.43427207015026,-68.71290199525075L-170.74067024603426,-69.22021495120346zM-172.9660539655149,-67.95222214701218L-172.57480456088715,-68.1052639880194L-172.1864211359459,-68.2843334052822zM-172.1864211359459,-68.2843334052822L-171.80492756745127,-68.48757942849444L-171.43427207015026,-68.71290199525075z" style="fill:rgb(83,212,212)"/><path d="M-185.8114273936403,22.153986240415804L-100.61737995516111,142.4599951650772L-100.77762400591271,142.20961690193818z" style="fill:rgb(232,198,110)"/><path d="M-185.699226011833,22.42327667702056L-100.49302445945185,142.7333512212721L-100.61737995516111,142.4599951650772z" style="fill:rgb(237,191,120)"/><path d="M-185.6292683067056,22.71537385217535L-100.40586230075445,143.0269239473717L-100.49302445945185,142.7333512212721z" style="fill:rgb(241,183,129)"/><path d="M-185.60232840878712,23.027304609897065L-100.35681772543988,143.33770613602962L-100.40586230075445,143.0269239473717z" style="fill:rgb(244,175,139)"/><path d="M-185.61873716574138,23.355876834631193L-100.34643635194311,143.66251156271025L-100.35681772543988,143.33770613602962z" style="fill:rgb(246,167,149)"/><path d="M-107.47492983167278,147.16644705274896L-107.28202745933682,147.39314201765137L-193.49751877465695,27.567069184447405z" style="fill:rgb(29,50,153)"/><path d="M-185.67834886263554,23.697731794705128L-100.37485382912132,143.99803983491404L-100.34643635194311,143.66251156271025z" style="fill:rgb(247,158,158)"/><path d="M-107.28202745933682,147.39314201765137L-107.05657782586417,147.59214804515304L-193.26902633811983,27.754977233110186z" style="fill:rgb(36,45,162)"/><path d="M-185.78058936902175,24.049357153221113L-100.44180966942783,144.34081768026462L-100.37485382912132,143.99803983491404z" style="fill:rgb(246,149,167)"/><path d="M-107.05657782586417,147.59214804515304L-106.80085774432692,147.76140689827943L-193.0049791826847,27.910857155163775z" style="fill:rgb(44,40,171)"/><path d="M-185.924465583177,24.407140055974747L-100.54665106529072,144.68731989277202L-100.44180966942783,144.34081768026462z" style="fill:rgb(244,139,175)"/><path d="M-106.80085774432692,147.76140689827943L-106.51750380911754,147.89912754012795L-192.70805366486016,28.033068491414763z" style="fill:rgb(54,37,179)"/><path d="M-186.10852090412007,24.76739067822552L-100.68831854781412,145.0340070620454L-100.54665106529072,144.68731989277202z" style="fill:rgb(241,129,183)"/><path d="M-106.51750380911754,147.89912754012795L-106.2093918869062,148.00389451671208L-192.38129974688496,28.12032525195347z" style="fill:rgb(64,34,187)"/><path d="M-186.33086859784916,25.12639366998603L-100.86538101580926,145.37725783491067L-100.68831854781412,145.0340070620454z" style="fill:rgb(237,120,191)"/><path d="M-106.2093918869062,148.00389451671208L-105.87970281638532,148.07459771063054L-192.0280755245082,28.171696753752087z" style="fill:rgb(74,32,194)"/><path d="M-186.58927477072666,25.48043946043482L-101.0760363070364,145.71356068112848L-100.86538101580926,145.37725783491067z" style="fill:rgb(232,110,198)"/><path d="M-105.87970281638532,148.07459771063054L-105.53182305891013,148.11046074529207L-191.65200713943614,28.1866257694864z" style="fill:rgb(85,32,201)"/><path d="M-186.88105149217316,25.825858657883494L-101.31811958111794,146.03943108044007L-101.0760363070364,145.71356068112848z" style="fill:rgb(225,101,204)"/><path d="M-105.53182305891013,148.11046074529207L-105.16933648110275,148.1111245152911L-191.25696906428325,28.164934972767156z" style="fill:rgb(97,32,207)"/><path d="M-187.2032405169993,26.159077094261644L-101.58915640219847,146.35148020807537L-101.31811958111794,146.03943108044007z" style="fill:rgb(218,92,209)"/><path d="M-105.16933648110275,148.1111245152911L-104.79599118633135,148.0765463790904L-190.84705604676552,28.106828405180597z" style="fill:rgb(109,33,211)"/><path d="M-187.5524864204609,26.476633856265703L-101.88634962664518,146.64647850440008L-101.58915640219847,146.35148020807537z" style="fill:rgb(210,83,214)"/><path d="M-104.79599118633135,148.0765463790904L-104.41562740579644,148.00708278985095L-190.42647033036624,28.01289103981987z" style="fill:rgb(121,35,215)"/><path d="M-187.9252123792426,26.7752372198969L-102.20663444969833,146.92137605402388L-101.88634962664518,146.64647850440008z" style="fill:rgb(200,75,217)"/><path d="M-104.41562740579644,148.00708278985095L-104.03219596306604,147.90342833805187L-189.9995849818633,27.884079837692358z" style="fill:rgb(133,39,219)"/><path d="M-188.31753565663456,27.05178617504197L-102.54671096511643,147.17331722501743L-102.20663444969833,146.92137605402388z" style="fill:rgb(190,67,220)"/><path d="M-104.03219596306604,147.90342833805187L-103.64965542608935,147.76664031541262L-189.57082650092931,27.7217237843368z" style="fill:rgb(145,43,221)"/><path d="M-102.90304524730551,147.39969253475485L-102.54671096511643,147.17331722501743L-188.31753565663456,27.05178617504197z" style="fill:rgb(180,60,222)"/><path d="M-103.64965542608935,147.76664031541262L-103.27197417673368,147.5981566327691L-189.14463119081387,27.527497160189892z" style="fill:rgb(157,47,222)"/><path d="M-103.27197417673368,147.5981566327691L-102.90304524730551,147.39969253475485L-188.72542085906178,27.303409234998256z" style="fill:rgb(169,53,222)"/><path d="M-211.5172496586123,44.922305641802616L-189.42314066330343,-68.51378285173283L-190.51532677804704,-62.91243172405249z" style="fill:rgb(247,158,158)"/><path d="M114.54380979882629,-152.43361776508888L114.41869349447924,-152.6810560457575L163.2563316143116,-14.357122732075991z" style="fill:rgb(10,79,115)"/><path d="M114.71193144590649,-152.20567607428757L114.54380979882629,-152.43361776508888L163.3811584472341,-14.098097716071475z" style="fill:rgb(13,71,125)"/><path d="M114.92135941865348,-151.99960223778132L114.71193144590649,-152.20567607428757L163.54412432386383,-13.855991851856253z" style="fill:rgb(17,63,134)"/><path d="M115.16999231246808,-151.81752252828306L114.92135941865348,-151.99960223778132L163.7435725900873,-13.63330593100038z" style="fill:rgb(22,56,144)"/><path d="M170.9255276826978,-17.167533808144004L123.03720556860065,-156.02019321586482L123.12101815300834,-155.75641080657346z" style="fill:rgb(246,167,149)"/><path d="M115.45530303584059,-151.66132562892858L115.16999231246808,-151.81752252828306L163.97747931646856,-13.432343575243076z" style="fill:rgb(29,50,153)"/><path d="M171.01333181576484,-16.894625249164832L123.12101815300834,-155.75641080657346L123.15973322215056,-155.47801516023745z" style="fill:rgb(247,158,158)"/><path d="M115.77440062735671,-151.53266226576235L115.45530303584059,-151.66132562892858L164.24348489101277,-13.25519142765287z" style="fill:rgb(36,45,162)"/><path d="M171.06086847241122,-16.609923296800165L123.15973322215056,-155.47801516023745L123.15290981086973,-155.18784807287096z" style="fill:rgb(246,149,167)"/><path d="M116.12402153863114,-151.43288260575792L115.77440062735671,-151.53266226576235L164.5388644649414,-13.10368945202647z" style="fill:rgb(44,40,171)"/><path d="M171.06761350078634,-16.316350721542527L123.15290981086973,-155.18784807287096L123.10055798042386,-154.8888907750667z" style="fill:rgb(244,139,175)"/><path d="M116.50058721533286,-151.36302425279652L116.12402153863114,-151.43288260575792L164.86061907692815,-12.979422412415843z" style="fill:rgb(54,37,179)"/><path d="M171.03347400086483,-16.016924282883988L123.10055798042386,-154.8888907750667L123.0031864941682,-154.5842266405707z" style="fill:rgb(241,129,183)"/><path d="M116.9002350282851,-151.3238431640059L116.50058721533286,-151.36302425279652L165.20542759208197,-12.883689383022583z" style="fill:rgb(64,34,187)"/><path d="M170.95876433274668,-15.71472508843496L123.0031864941682,-154.5842266405707L122.86178092043075,-154.27699010252655z" style="fill:rgb(237,120,191)"/><path d="M117.31886286337954,-151.3157738542155L116.9002350282851,-151.3238431640059L165.56977655640216,-12.817499831610322z" style="fill:rgb(74,32,194)"/><path d="M170.84424243296726,-15.412871285316683L122.86178092043075,-154.27699010252655L122.67773947744729,-153.97035712138018z" style="fill:rgb(232,110,198)"/><path d="M117.75214203573091,-151.33890720766462L117.31886286337954,-151.3157738542155L165.94990248789207,-12.781557170045241z" style="fill:rgb(85,32,201)"/><path d="M170.691037035377,-15.114478729270719L122.67773947744729,-153.97035712138018L122.45295962785394,-153.66750435362226z" style="fill:rgb(225,101,204)"/><path d="M118.19559500340551,-151.39303121083364L117.75214203573091,-151.33890720766462L166.3418929664423,-12.776251497655982z" style="fill:rgb(97,32,207)"/><path d="M170.50073909965786,-14.822631071646073L122.45295962785394,-153.66750435362226L122.18974477295126,-153.3715566896039z" style="fill:rgb(218,92,209)"/><path d="M118.64466429737338,-151.47760820237662L118.19559500340551,-151.39303121083364L166.74170664539926,-12.801654415094514z" style="fill:rgb(109,33,211)"/><path d="M170.27526442734862,-14.540350176820462L122.18974477295126,-153.3715566896039L121.89079341341613,-153.08557546725626z" style="fill:rgb(210,83,214)"/><path d="M119.09469484313868,-151.5917762641167L118.64466429737338,-151.47760820237662L167.14521238011528,-12.857518201483776z" style="fill:rgb(121,35,215)"/><path d="M170.01695696317813,-14.270557080989072L121.89079341341613,-153.08557546725626L121.5591730447254,-152.81254554587775z" style="fill:rgb(200,75,217)"/><path d="M119.54102095329095,-151.73435040999988L119.09469484313868,-151.5917762641167L167.54822961053202,-12.94327838542416z" style="fill:rgb(133,39,219)"/><path d="M169.7284526452892,-14.016048535606869L121.5591730447254,-152.81254554587775L121.19831990960957,-152.5552903884505z" style="fill:rgb(190,67,220)"/><path d="M119.97901323704403,-151.90386806853934L119.54102095329095,-151.73435040999988L167.94661001055596,-13.058055339135976z" style="fill:rgb(145,43,221)"/><path d="M121.19831990960957,-152.5552903884505L120.81197168921078,-152.31647509774425L169.0730988557326,-13.563249179435754z" style="fill:rgb(180,60,222)"/><path d="M120.40412364922874,-152.09859042661705L119.97901323704403,-151.90386806853934L168.33621355539765,-13.200669508961587z" style="fill:rgb(157,47,222)"/><path d="M120.81197168921078,-152.31647509774425L120.40412364922874,-152.09859042661705L168.71301015618764,-13.36965090356712z" style="fill:rgb(169,53,222)"/><path d="M-100.77762400591271,142.20961690193818L-185.9647080771543,21.91023935884879L-185.8114273936403,22.153986240415804z" style="fill:rgb(232,198,110)"/><path d="M-100.61737995516111,142.4599951650772L-185.8114273936403,22.153986240415804L-185.699226011833,22.42327667702056z" style="fill:rgb(237,191,120)"/><path d="M-100.49302445945185,142.7333512212721L-185.699226011833,22.42327667702056L-185.6292683067056,22.71537385217535z" style="fill:rgb(241,183,129)"/><path d="M-100.40586230075445,143.0269239473717L-185.6292683067056,22.71537385217535L-185.60232840878712,23.027304609897065z" style="fill:rgb(244,175,139)"/><path d="M-100.35681772543988,143.33770613602962L-185.60232840878712,23.027304609897065L-185.61873716574138,23.355876834631193z" style="fill:rgb(246,167,149)"/><path d="M-193.49751877465695,27.567069184447405L-193.68814352384152,27.349094428559102L-107.47492983167278,147.16644705274896z" style="fill:rgb(29,50,153)"/><path d="M-100.34643635194311,143.66251156271025L-185.61873716574138,23.355876834631193L-185.67834886263554,23.697731794705128z" style="fill:rgb(247,158,158)"/><path d="M-193.26902633811983,27.754977233110186L-193.49751877465695,27.567069184447405L-107.28202745933682,147.39314201765137z" style="fill:rgb(36,45,162)"/><path d="M-100.37485382912132,143.99803983491404L-185.67834886263554,23.697731794705128L-185.78058936902175,24.049357153221113z" style="fill:rgb(246,149,167)"/><path d="M-193.0049791826847,27.910857155163775L-193.26902633811983,27.754977233110186L-107.05657782586417,147.59214804515304z" style="fill:rgb(44,40,171)"/><path d="M-100.44180966942783,144.34081768026462L-185.78058936902175,24.049357153221113L-185.924465583177,24.407140055974747z" style="fill:rgb(244,139,175)"/><path d="M-192.70805366486016,28.033068491414763L-193.0049791826847,27.910857155163775L-106.80085774432692,147.76140689827943z" style="fill:rgb(54,37,179)"/><path d="M-100.54665106529072,144.68731989277202L-185.924465583177,24.407140055974747L-186.10852090412007,24.76739067822552z" style="fill:rgb(241,129,183)"/><path d="M-192.38129974688496,28.12032525195347L-192.70805366486016,28.033068491414763L-106.51750380911754,147.89912754012795z" style="fill:rgb(64,34,187)"/><path d="M-100.68831854781412,145.0340070620454L-186.10852090412007,24.76739067822552L-186.33086859784916,25.12639366998603z" style="fill:rgb(237,120,191)"/><path d="M-192.0280755245082,28.171696753752087L-192.38129974688496,28.12032525195347L-106.2093918869062,148.00389451671208z" style="fill:rgb(74,32,194)"/><path d="M-100.86538101580926,145.37725783491067L-186.33086859784916,25.12639366998603L-186.58927477072666,25.48043946043482z" style="fill:rgb(232,110,198)"/><path d="M-191.65200713943614,28.1866257694864L-192.0280755245082,28.171696753752087L-105.87970281638532,148.07459771063054z" style="fill:rgb(85,32,201)"/><path d="M-101.0760363070364,145.71356068112848L-186.58927477072666,25.48043946043482L-186.88105149217316,25.825858657883494z" style="fill:rgb(225,101,204)"/><path d="M-191.25696906428325,28.164934972767156L-191.65200713943614,28.1866257694864L-105.53182305891013,148.11046074529207z" style="fill:rgb(97,32,207)"/><path d="M-101.31811958111794,146.03943108044007L-186.88105149217316,25.825858657883494L-187.2032405169993,26.159077094261644z" style="fill:rgb(218,92,209)"/><path d="M-190.84705604676552,28.106828405180597L-191.25696906428325,28.164934972767156L-105.16933648110275,148.1111245152911z" style="fill:rgb(109,33,211)"/><path d="M-101.58915640219847,146.35148020807537L-187.2032405169993,26.159077094261644L-187.5524864204609,26.476633856265703z" style="fill:rgb(210,83,214)"/><path d="M-190.42647033036624,28.01289103981987L-190.84705604676552,28.106828405180597L-104.79599118633135,148.0765463790904z" style="fill:rgb(121,35,215)"/><path d="M-101.88634962664518,146.64647850440008L-187.5524864204609,26.476633856265703L-187.9252123792426,26.7752372198969z" style="fill:rgb(200,75,217)"/><path d="M-189.9995849818633,27.884079837692358L-190.42647033036624,28.01289103981987L-104.41562740579644,148.00708278985095z" style="fill:rgb(133,39,219)"/><path d="M-102.20663444969833,146.92137605402388L-187.9252123792426,26.7752372198969L-188.31753565663456,27.05178617504197z" style="fill:rgb(190,67,220)"/><path d="M-189.57082650092931,27.7217237843368L-189.9995849818633,27.884079837692358L-104.03219596306604,147.90342833805187z" style="fill:rgb(145,43,221)"/><path d="M-188.31753565663456,27.05178617504197L-188.72542085906178,27.303409234998256L-102.90304524730551,147.39969253475485z" style="fill:rgb(180,60,222)"/><path d="M-189.14463119081387,27.527497160189892L-189.57082650092931,27.7217237843368L-103.64965542608935,147.76664031541262z" style="fill:rgb(157,47,222)"/><path d="M-188.72542085906178,27.303409234998256L-189.14463119081387,27.527497160189892L-103.27197417673368,147.5981566327691z" style="fill:rgb(169,53,222)"/><path d="M134.45662148505187,-179.31013391975816L-191.41841479074037,-84.15415556421799L-216.03996535023967,38.93693604635081z" style="fill:rgb(83,212,212)"/><path d="M-211.5172496586123,44.922305641802616L-190.5143446369629,-62.910936361815594L-207.869335744923,26.19202985235303zM136.77855402297104,-172.2376389065556L136.77492793311237,-172.2625787698059L136.77435199560082,-172.26433207943865zM138.26139767866033,-162.8198837515632L136.77492793311237,-172.2625787698059L136.77855402297104,-172.2376389065556z" style="fill:rgb(247,158,158)"/><path d="M117.48001549197662,-156.77960122345345L117.05774385055344,-156.5860276756407L116.65252429261925,-156.36959954845054zM116.65252429261925,-156.36959954845054L116.26847963992239,-156.13248907036785L115.90953180741836,-155.8771176346355zM118.35849418101078,-157.09049315068214L117.48001549197662,-156.77960122345345L116.65252429261925,-156.36959954845054zM118.35849418101078,-157.09049315068214L117.91507477593443,-156.94832500101452L117.48001549197662,-156.77960122345345zM116.65252429261925,-156.36959954845054L115.90953180741836,-155.8771176346355L115.2812270765444,-155.32209512353134zM118.35849418101078,-157.09049315068214L116.65252429261925,-156.36959954845054L115.2812270765444,-155.32209512353134zM115.90953180741836,-155.8771176346355L115.57932566988356,-155.6060717161196L115.2812270765444,-155.32209512353134zM119.2523277924793,-157.28963724183308L118.80576218372373,-157.2046581387831L118.35849418101078,-157.09049315068214zM120.12522085158858,-157.36882801448343L119.2523277924793,-157.28963724183308L118.35849418101078,-157.09049315068214zM115.2812270765444,-155.32209512353134L115.0182822770905,-155.02809053836765L114.79319121676214,-154.7270382548632zM120.12522085158858,-157.36882801448343L119.6936373005775,-157.3445505336772L119.2523277924793,-157.28963724183308zM121.66844483858131,-157.15894662173542L118.35849418101078,-157.09049315068214L115.2812270765444,-155.32209512353134zM115.2812270765444,-155.32209512353134L114.79319121676214,-154.7270382548632L114.31141978120257,-153.51400903236507zM114.79319121676214,-154.7270382548632L114.60825756212601,-154.42199103368466L114.46540159839678,-154.1160605773337zM121.66844483858131,-157.15894662173542L120.12522085158858,-157.36882801448343L118.35849418101078,-157.09049315068214zM120.94170735580708,-157.32473285752474L120.54266458321175,-157.36221232234513L120.12522085158858,-157.36882801448343zM114.79319121676214,-154.7270382548632L114.46540159839678,-154.1160605773337L114.31141978120257,-153.51400903236507zM121.66844483858131,-157.15894662173542L120.94170735580708,-157.32473285752474L120.12522085158858,-157.36882801448343z" style="fill:rgb(83,212,212)"/><path d="M138.26139767866033,-162.8198837515632L136.77855402297104,-172.2376389065556L138.260817648097,-162.82164235526767zM136.77855402297104,-172.2376389065556L138.260817648097,-162.82164235526767L138.26139767866033,-162.8198837515632z" style="fill:rgb(247,158,158)"/><path d="M114.46540159839678,-154.1160605773337L114.36610083776972,-153.81236835360016L114.31141978120257,-153.51400903236507zM121.66844483858131,-157.15894662173542L121.3182593403222,-157.25675595920603L120.94170735580708,-157.32473285752474zM114.31141978120257,-153.51400903236507L114.3019357645268,-153.22404249420333L114.33780165314386,-152.94544125128158zM115.2812270765444,-155.32209512353134L114.31141978120257,-153.51400903236507L115.45530303584059,-151.66132562892858zM122.27565362343483,-156.87804840889302L121.98867501805893,-157.0322880708748L121.66844483858131,-157.15894662173542zM114.31141978120257,-153.51400903236507L114.33780165314386,-152.94544125128158L114.54380979882629,-152.43361776508888zM122.7383117392055,-156.49327300629915L122.27565362343483,-156.87804840889302L121.66844483858131,-157.15894662173542zM114.33780165314386,-152.94544125128158L114.41869349447924,-152.6810560457575L114.54380979882629,-152.43361776508888zM122.7383117392055,-156.49327300629915L122.52640892458543,-156.69777245196755L122.27565362343483,-156.87804840889302zM121.89079341341613,-153.08557546725626L121.66844483858131,-157.15894662173542L115.2812270765444,-155.32209512353134zM114.31141978120257,-153.51400903236507L114.54380979882629,-152.43361776508888L115.45530303584059,-151.66132562892858zM123.15973322215056,-155.47801516023745L122.7383117392055,-156.49327300629915L121.66844483858131,-157.15894662173542zM114.54380979882629,-152.43361776508888L114.71193144590649,-152.20567607428757L114.92135941865348,-151.99960223778132zM123.03720556860065,-156.02019321586482L122.90918152586417,-156.26665516026324L122.7383117392055,-156.49327300629915zM115.2812270765444,-155.32209512353134L115.45530303584059,-151.66132562892858L121.89079341341613,-153.08557546725626zM114.54380979882629,-152.43361776508888L114.92135941865348,-151.99960223778132L115.45530303584059,-151.66132562892858zM123.15973322215056,-155.47801516023745L123.03720556860065,-156.02019321586482L122.7383117392055,-156.49327300629915zM114.92135941865348,-151.99960223778132L115.16999231246808,-151.81752252828306L115.45530303584059,-151.66132562892858zM123.15973322215056,-155.47801516023745L123.12101815300834,-155.75641080657346L123.03720556860065,-156.02019321586482zM121.89079341341613,-153.08557546725626L123.15973322215056,-155.47801516023745L121.66844483858131,-157.15894662173542zM115.45530303584059,-151.66132562892858L115.77440062735671,-151.53266226576235L116.12402153863114,-151.43288260575792zM123.10055798042386,-154.8888907750667L123.15290981086973,-155.18784807287096L123.15973322215056,-155.47801516023745zM115.45530303584059,-151.66132562892858L116.12402153863114,-151.43288260575792L116.9002350282851,-151.3238431640059zM122.86178092043075,-154.27699010252655L123.10055798042386,-154.8888907750667L123.15973322215056,-155.47801516023745zM116.12402153863114,-151.43288260575792L116.50058721533286,-151.36302425279652L116.9002350282851,-151.3238431640059zM122.86178092043075,-154.27699010252655L123.0031864941682,-154.5842266405707L123.10055798042386,-154.8888907750667zM115.45530303584059,-151.66132562892858L116.9002350282851,-151.3238431640059L118.64466429737338,-151.47760820237662zM121.89079341341613,-153.08557546725626L122.86178092043075,-154.27699010252655L123.15973322215056,-155.47801516023745z" style="fill:rgb(83,212,212)"/><path d="M136.77855402297104,-172.2376389065556L139.12538327687767,-157.32952462469552L139.12596519758625,-157.32776254717407z" style="fill:rgb(247,158,158)"/><path d="M115.45530303584059,-151.66132562892858L118.64466429737338,-151.47760820237662L121.89079341341613,-153.08557546725626zM116.9002350282851,-151.3238431640059L117.31886286337954,-151.3157738542155L117.75214203573091,-151.33890720766462zM122.45295962785394,-153.66750435362226L122.67773947744729,-153.97035712138018L122.86178092043075,-154.27699010252655zM116.9002350282851,-151.3238431640059L117.75214203573091,-151.33890720766462L118.64466429737338,-151.47760820237662zM121.89079341341613,-153.08557546725626L122.45295962785394,-153.66750435362226L122.86178092043075,-154.27699010252655zM117.75214203573091,-151.33890720766462L118.19559500340551,-151.39303121083364L118.64466429737338,-151.47760820237662zM121.89079341341613,-153.08557546725626L122.18974477295126,-153.3715566896039L122.45295962785394,-153.66750435362226zM118.64466429737338,-151.47760820237662L119.09469484313868,-151.5917762641167L119.54102095329095,-151.73435040999988zM118.64466429737338,-151.47760820237662L120.40412364922874,-152.09859042661705L121.89079341341613,-153.08557546725626zM121.19831990960957,-152.5552903884505L121.5591730447254,-152.81254554587775L121.89079341341613,-153.08557546725626zM118.64466429737338,-151.47760820237662L119.54102095329095,-151.73435040999988L120.40412364922874,-152.09859042661705zM120.40412364922874,-152.09859042661705L121.19831990960957,-152.5552903884505L121.89079341341613,-153.08557546725626zM119.54102095329095,-151.73435040999988L119.97901323704403,-151.90386806853934L120.40412364922874,-152.09859042661705zM120.40412364922874,-152.09859042661705L120.81197168921078,-152.31647509774425L121.19831990960957,-152.5552903884505z" style="fill:rgb(83,212,212)"/><path d="M139.12596519758625,-157.32776254717407L138.26139767866033,-162.8198837515632L138.260817648097,-162.82164235526767zM139.12596519758625,-157.32776254717407L138.260817648097,-162.82164235526767L139.12538327687767,-157.32952462469552z" style="fill:rgb(247,158,158)"/><path d="M178.4087303102331,80.9400721816379L178.54996655203865,81.25345733231117L126.72016781284084,-57.96388668068868z" style="fill:rgb(10,79,115)"/><path d="M126.72016781284084,-57.96388668068868L178.54996655203865,81.25345733231117L178.73293000658262,81.54862400883684z" style="fill:rgb(13,71,125)"/><path d="M126.91063814216422,-57.677026620246956L178.73293000658262,81.54862400883684L178.95576738819793,81.82251391560317z" style="fill:rgb(17,63,134)"/><path d="M127.14681399256025,-57.414394366114095L178.95576738819793,81.82251391560317L179.21621720564363,82.0723109701783z" style="fill:rgb(22,56,144)"/><path d="M186.90840686405966,78.30313657061747L186.8074758697116,77.97511741400001L136.12842248352922,-61.845506088342454z" style="fill:rgb(246,167,149)"/><path d="M127.42632939361958,-57.17871734894482L179.21621720564363,82.0723109701783L179.5116538490434,82.29541134713072z" style="fill:rgb(29,50,153)"/><path d="M186.96519207926718,78.6432326216852L186.90840686405966,78.30313657061747L136.22584334150943,-61.519931151076285z" style="fill:rgb(247,158,158)"/><path d="M127.74634484894351,-56.97245084996879L179.5116538490434,82.29541134713072L179.8390540411869,82.48949609397933z" style="fill:rgb(36,45,162)"/><path d="M186.97720629459346,78.991905493358L186.96519207926718,78.6432326216852L136.27323965489455,-61.179101541751635z" style="fill:rgb(246,149,167)"/><path d="M128.1036222401631,-56.79774103300515L179.8390540411869,82.48949609397933L180.19509257221628,82.6525406924375z" style="fill:rgb(44,40,171)"/><path d="M186.94429497721958,79.34557513453707L186.97720629459346,78.991905493358L136.2700727662425,-60.82651212141521z" style="fill:rgb(244,139,175)"/><path d="M128.49450968127167,-56.65643153746839L180.19509257221628,82.6525406924375L180.5760963083461,82.78284099916009z" style="fill:rgb(54,37,179)"/><path d="M186.86675450080844,79.70059083735437L186.94429497721958,79.34557513453707L136.21630211155238,-60.4657875691571z" style="fill:rgb(241,129,183)"/><path d="M128.9150039930182,-56.55000824879959L180.5760963083461,82.78284099916009L180.97818185846583,82.87901647849218z" style="fill:rgb(64,34,187)"/><path d="M186.745366996257,80.05329522556141L186.86675450080844,79.70059083735437L136.11244221619566,-60.10063939405617z" style="fill:rgb(237,120,191)"/><path d="M129.36079243921637,-56.4795983959645L180.97818185846583,82.87901647849218L181.3971940770059,82.94006181783672z" style="fill:rgb(74,32,194)"/><path d="M186.5813251904713,80.40003385874488L186.745366996257,80.05329522556141L135.95954424725778,-59.73484651697507z" style="fill:rgb(232,110,198)"/><path d="M129.82729910575216,-56.44596854192653L181.3971940770059,82.94006181783672L181.82881976077908,82.96531050449694z" style="fill:rgb(85,32,201)"/><path d="M186.3763331809361,80.73723295613225L186.5813251904713,80.40003385874488L135.75911057239344,-59.37218018496743z" style="fill:rgb(225,101,204)"/><path d="M130.30969508897937,-56.449488808577875L181.82881976077908,82.96531050449694L182.26860504212362,82.95449159274159z" style="fill:rgb(97,32,207)"/><path d="M186.13244922826658,81.06138912876483L186.3763331809361,80.73723295613225L135.51320710122712,-59.01640283075759z" style="fill:rgb(218,92,209)"/><path d="M130.80299619384945,-56.490151739295705L182.26860504212362,82.95449159274159L182.71200279954164,82.90768624837281z" style="fill:rgb(109,33,211)"/><path d="M185.85221240219295,81.36914738112335L186.13244922826658,81.06138912876483L135.22435401514346,-58.67119974242232z" style="fill:rgb(210,83,214)"/><path d="M131.30212450000667,-56.5675551878183L182.71200279954164,82.90768624837281L183.15441747968137,82.82537038791499z" style="fill:rgb(121,35,215)"/><path d="M185.5384817134512,81.6573101531961L185.85221240219295,81.36914738112335L134.89551266171543,-58.34015095810783z" style="fill:rgb(200,75,217)"/><path d="M131.80190274883657,-56.6809235333276L183.15441747968137,82.82537038791499L183.59128980529073,82.70838235608593z" style="fill:rgb(133,39,219)"/><path d="M185.19452168774228,81.92288857959937L185.5384817134512,81.6573101531961L134.5300564234474,-58.02669917694809z" style="fill:rgb(190,67,220)"/><path d="M132.29714571227976,-56.82908610489924L183.59128980529073,82.70838235608593L184.01807633390112,82.55791844892988z" style="fill:rgb(145,43,221)"/><path d="M133.70479845289634,-57.46538808529444L184.82386607211424,82.16313107084918L185.19452168774228,81.92288857959937z" style="fill:rgb(180,60,222)"/><path d="M132.78270926245287,-57.01052729268114L184.01807633390112,82.55791844892988L184.43035969042865,82.37553957054483z" style="fill:rgb(157,47,222)"/><path d="M133.25354549745236,-57.22336229235462L184.43035969042865,82.37553957054483L184.82386607211424,82.16313107084918z" style="fill:rgb(169,53,222)"/><path d="M-190.07449974543852,21.55397208443722L-190.497840112053,21.747062016359283L-190.9142736522734,21.96961024929939zM-190.07449974543852,21.55397208443722L-190.9142736522734,21.96961024929939L-191.70962538918556,22.493759999356126zM-190.9142736522734,21.96961024929939L-191.31957388979734,22.21935360441661L-191.70962538918556,22.493759999356126zM-189.22434848734855,21.26370312386151L-189.64857164331042,21.392303125772116L-190.07449974543852,21.55397208443722zM-188.39827252027936,21.11062876677564L-189.22434848734855,21.26370312386151L-190.07449974543852,21.55397208443722zM-191.70962538918556,22.493759999356126L-192.08045399882113,22.79004515780455L-192.42827285060847,23.10520525162932zM-190.07449974543852,21.55397208443722L-191.70962538918556,22.493759999356126L-193.04100330462242,23.779196802295257zM-188.39827252027936,21.11062876677564L-188.8061619381406,21.169487141605604L-189.22434848734855,21.26370312386151zM-191.70962538918556,22.493759999356126L-192.42827285060847,23.10520525162932L-193.04100330462242,23.779196802295257zM-192.42827285060847,23.10520525162932L-192.7495492031087,23.436041401143846L-193.04100330462242,23.779196802295257zM-186.95036081907972,21.235614451387665L-188.39827252027936,21.11062876677564L-190.07449974543852,21.55397208443722zM-187.62984256695296,21.1010799367322L-188.00482765049534,21.087742033762183L-188.39827252027936,21.11062876677564zM-186.95036081907972,21.235614451387665L-190.07449974543852,21.55397208443722L-193.04100330462242,23.779196802295257zM-186.95036081907972,21.235614451387665L-187.62984256695296,21.1010799367322L-188.39827252027936,21.11062876677564zM-193.04100330462242,23.779196802295257L-193.29965181281582,24.13118338848621L-193.52281118248578,24.488421361833044zM-186.95036081907972,21.235614451387665L-187.2771473761701,21.150530251130053L-187.62984256695296,21.1010799367322zM-193.04100330462242,23.779196802295257L-193.52281118248578,24.488421361833044L-194.02053732484322,25.897004658092463zM-193.52281118248578,24.488421361833044L-193.70821035634916,24.847272900379426L-193.85391148586112,25.204075166657972zM-186.3875978394637,21.50896881467104L-186.65281446225055,21.35549255261464L-186.95036081907972,21.235614451387665zM-193.52281118248578,24.488421361833044L-193.85391148586112,25.204075166657972L-194.02053732484322,25.897004658092463zM-185.9647080771543,21.91023935884879L-186.3875978394637,21.50896881467104L-186.95036081907972,21.235614451387665zM-193.85391148586112,25.204075166657972L-193.9583819324287,25.5551835719765L-194.02053732484322,25.897004658092463zM-185.9647080771543,21.91023935884879L-186.15742106072562,21.694506481166627L-186.3875978394637,21.50896881467104zM-185.60232840878712,23.027304609897065L-185.9647080771543,21.91023935884879L-186.95036081907972,21.235614451387665zM-193.04100330462242,23.779196802295257L-194.02053732484322,25.897004658092463L-193.0049791826847,27.910857155163775zM-194.02053732484322,25.897004658092463L-194.03969934197374,26.226027465288997L-194.01561089594227,26.53887497820762zM-186.88105149217316,25.825858657883494L-186.95036081907972,21.235614451387665L-193.04100330462242,23.779196802295257zM-185.699226011833,22.42327667702056L-185.8114273936403,22.153986240415804L-185.9647080771543,21.91023935884879zM-194.02053732484322,25.897004658092463L-194.01561089594227,26.53887497820762L-193.83897684823444,27.103326164386594zM-185.60232840878712,23.027304609897065L-185.699226011833,22.42327667702056L-185.9647080771543,21.91023935884879z" style="fill:rgb(83,212,212)"/><path d="M-211.5172496586123,44.922305641802616L-207.86823817967138,26.193528128262365L-209.1841443270511,32.94293921403045z" style="fill:rgb(247,158,158)"/><path d="M-194.01561089594227,26.53887497820762L-193.9484822672193,26.832317073337922L-193.83897684823444,27.103326164386594zM-185.60232840878712,23.027304609897065L-185.6292683067056,22.71537385217535L-185.699226011833,22.42327667702056zM-194.02053732484322,25.897004658092463L-193.83897684823444,27.103326164386594L-193.0049791826847,27.910857155163775zM-186.88105149217316,25.825858657883494L-185.60232840878712,23.027304609897065L-186.95036081907972,21.235614451387665zM-193.04100330462242,23.779196802295257L-193.0049791826847,27.910857155163775L-186.88105149217316,25.825858657883494zM-193.83897684823444,27.103326164386594L-193.68814352384152,27.349094428559102L-193.49751877465695,27.567069184447405zM-185.67834886263554,23.697731794705128L-185.61873716574138,23.355876834631193L-185.60232840878712,23.027304609897065zM-193.83897684823444,27.103326164386594L-193.49751877465695,27.567069184447405L-193.0049791826847,27.910857155163775zM-185.924465583177,24.407140055974747L-185.67834886263554,23.697731794705128L-185.60232840878712,23.027304609897065zM-193.49751877465695,27.567069184447405L-193.26902633811983,27.754977233110186L-193.0049791826847,27.910857155163775zM-185.924465583177,24.407140055974747L-185.78058936902175,24.049357153221113L-185.67834886263554,23.697731794705128zM-186.88105149217316,25.825858657883494L-185.924465583177,24.407140055974747L-185.60232840878712,23.027304609897065zM-193.0049791826847,27.910857155163775L-192.70805366486016,28.033068491414763L-192.38129974688496,28.12032525195347zM-186.33086859784916,25.12639366998603L-186.10852090412007,24.76739067822552L-185.924465583177,24.407140055974747zM-193.0049791826847,27.910857155163775L-192.38129974688496,28.12032525195347L-191.65200713943614,28.1866257694864zM-186.88105149217316,25.825858657883494L-186.33086859784916,25.12639366998603L-185.924465583177,24.407140055974747zM-192.38129974688496,28.12032525195347L-192.0280755245082,28.171696753752087L-191.65200713943614,28.1866257694864zM-193.0049791826847,27.910857155163775L-191.65200713943614,28.1866257694864L-189.9995849818633,27.884079837692358zM-193.0049791826847,27.910857155163775L-189.9995849818633,27.884079837692358L-186.88105149217316,25.825858657883494zM-186.88105149217316,25.825858657883494L-186.58927477072666,25.48043946043482L-186.33086859784916,25.12639366998603zM-191.65200713943614,28.1866257694864L-191.25696906428325,28.164934972767156L-190.84705604676552,28.106828405180597zM-187.5524864204609,26.476633856265703L-187.2032405169993,26.159077094261644L-186.88105149217316,25.825858657883494zM-191.65200713943614,28.1866257694864L-190.84705604676552,28.106828405180597L-189.9995849818633,27.884079837692358zM-188.31753565663456,27.05178617504197L-187.5524864204609,26.476633856265703L-186.88105149217316,25.825858657883494zM-189.9995849818633,27.884079837692358L-188.31753565663456,27.05178617504197L-186.88105149217316,25.825858657883494zM-190.84705604676552,28.106828405180597L-190.42647033036624,28.01289103981987L-189.9995849818633,27.884079837692358zM-188.31753565663456,27.05178617504197L-187.9252123792426,26.7752372198969L-187.5524864204609,26.476633856265703zM-189.9995849818633,27.884079837692358L-189.14463119081387,27.527497160189892L-188.31753565663456,27.05178617504197zM-189.9995849818633,27.884079837692358L-189.57082650092931,27.7217237843368L-189.14463119081387,27.527497160189892zM-189.14463119081387,27.527497160189892L-188.72542085906178,27.303409234998256L-188.31753565663456,27.05178617504197z" style="fill:rgb(83,212,212)"/><path d="M153.41948745841938,-57.76667852186009L136.77855402297104,-172.2376389065556L136.77435199560082,-172.26433207943865zM139.12538327687767,-157.32952462469552L152.99025391027985,-69.25574126940026L139.12596519758625,-157.32776254717407zM153.41948745841938,-57.76667852186009L136.77435199560082,-172.26433207943865L134.45662148505187,-179.31013391975816z" style="fill:rgb(247,158,158)"/><path d="M-216.03996535023967,38.93693604635081L153.41948745841938,-57.76667852186009L134.45662148505187,-179.31013391975816z" style="fill:rgb(83,212,212)"/><path d="M126.72016781284084,-57.96388668068868L126.57732305139952,-58.27200477347369L178.4087303102331,80.9400721816379z" style="fill:rgb(10,79,115)"/><path d="M178.73293000658262,81.54862400883684L126.91063814216422,-57.677026620246956L126.72016781284084,-57.96388668068868z" style="fill:rgb(13,71,125)"/><path d="M178.95576738819793,81.82251391560317L127.14681399256025,-57.414394366114095L126.91063814216422,-57.677026620246956z" style="fill:rgb(17,63,134)"/><path d="M179.21621720564363,82.0723109701783L127.42632939361958,-57.17871734894482L127.14681399256025,-57.414394366114095z" style="fill:rgb(22,56,144)"/><path d="M136.12842248352922,-61.845506088342454L136.22584334150943,-61.519931151076285L186.90840686405966,78.30313657061747z" style="fill:rgb(246,167,149)"/><path d="M179.5116538490434,82.29541134713072L127.74634484894351,-56.97245084996879L127.42632939361958,-57.17871734894482z" style="fill:rgb(29,50,153)"/><path d="M136.22584334150943,-61.519931151076285L136.27323965489455,-61.179101541751635L186.96519207926718,78.6432326216852z" style="fill:rgb(247,158,158)"/><path d="M179.8390540411869,82.48949609397933L128.1036222401631,-56.79774103300515L127.74634484894351,-56.97245084996879z" style="fill:rgb(36,45,162)"/><path d="M136.27323965489455,-61.179101541751635L136.2700727662425,-60.82651212141521L186.97720629459346,78.991905493358z" style="fill:rgb(246,149,167)"/><path d="M180.19509257221628,82.6525406924375L128.49450968127167,-56.65643153746839L128.1036222401631,-56.79774103300515z" style="fill:rgb(44,40,171)"/><path d="M136.2700727662425,-60.82651212141521L136.21630211155238,-60.4657875691571L186.94429497721958,79.34557513453707z" style="fill:rgb(244,139,175)"/><path d="M180.5760963083461,82.78284099916009L128.9150039930182,-56.55000824879959L128.49450968127167,-56.65643153746839z" style="fill:rgb(54,37,179)"/><path d="M136.21630211155238,-60.4657875691571L136.11244221619566,-60.10063939405617L186.86675450080844,79.70059083735437z" style="fill:rgb(241,129,183)"/><path d="M180.97818185846583,82.87901647849218L129.36079243921637,-56.4795983959645L128.9150039930182,-56.55000824879959z" style="fill:rgb(64,34,187)"/><path d="M136.11244221619566,-60.10063939405617L135.95954424725778,-59.73484651697507L186.745366996257,80.05329522556141z" style="fill:rgb(237,120,191)"/><path d="M181.3971940770059,82.94006181783672L129.82729910575216,-56.44596854192653L129.36079243921637,-56.4795983959645z" style="fill:rgb(74,32,194)"/><path d="M135.95954424725778,-59.73484651697507L135.75911057239344,-59.37218018496743L186.5813251904713,80.40003385874488z" style="fill:rgb(232,110,198)"/><path d="M181.82881976077908,82.96531050449694L130.30969508897937,-56.449488808577875L129.82729910575216,-56.44596854192653z" style="fill:rgb(85,32,201)"/><path d="M135.75911057239344,-59.37218018496743L135.51320710122712,-59.01640283075759L186.3763331809361,80.73723295613225z" style="fill:rgb(225,101,204)"/><path d="M182.26860504212362,82.95449159274159L130.80299619384945,-56.490151739295705L130.30969508897937,-56.449488808577875z" style="fill:rgb(97,32,207)"/><path d="M135.51320710122712,-59.01640283075759L135.22435401514346,-58.67119974242232L186.13244922826658,81.06138912876483z" style="fill:rgb(218,92,209)"/><path d="M182.71200279954164,82.90768624837281L131.30212450000667,-56.5675551878183L130.80299619384945,-56.490151739295705z" style="fill:rgb(109,33,211)"/><path d="M135.22435401514346,-58.67119974242232L134.89551266171543,-58.34015095810783L185.85221240219295,81.36914738112335z" style="fill:rgb(210,83,214)"/><path d="M183.15441747968137,82.82537038791499L131.80190274883657,-56.6809235333276L131.30212450000667,-56.5675551878183z" style="fill:rgb(121,35,215)"/><path d="M134.89551266171543,-58.34015095810783L134.5300564234474,-58.02669917694809L185.5384817134512,81.6573101531961z" style="fill:rgb(200,75,217)"/><path d="M183.59128980529073,82.70838235608593L132.29714571227976,-56.82908610489924L131.80190274883657,-56.6809235333276z" style="fill:rgb(133,39,219)"/><path d="M134.5300564234474,-58.02669917694809L134.13177594392002,-57.734100003816174L185.19452168774228,81.92288857959937z" style="fill:rgb(190,67,220)"/><path d="M184.01807633390112,82.55791844892988L132.78270926245287,-57.01052729268114L132.29714571227976,-56.82908610489924z" style="fill:rgb(145,43,221)"/><path d="M185.19452168774228,81.92288857959937L134.13177594392002,-57.734100003816174L133.70479845289634,-57.46538808529444z" style="fill:rgb(180,60,222)"/><path d="M184.43035969042865,82.37553957054483L133.25354549745236,-57.22336229235462L132.78270926245287,-57.01052729268114z" style="fill:rgb(157,47,222)"/><path d="M184.82386607211424,82.16313107084918L133.70479845289634,-57.46538808529444L133.25354549745236,-57.22336229235462z" style="fill:rgb(169,53,222)"/><path d="M155.93779579000267,-50.5316670289091L-211.52401037941928,44.957018680589826L-211.522888023028,44.958516883645814zM155.83651167079685,-50.50730196778328L-216.03996535023967,38.93693604635081L-211.52401037941928,44.957018680589826z" style="fill:rgb(127,37,217)"/><path d="M136.77855402297104,-172.2376389065556L152.98963640778922,-69.25753659564255L152.99025391027985,-69.25574126940026zM136.77855402297104,-172.2376389065556L154.04892335153772,-62.528476013071796L154.0495434055604,-62.52668309468222zM139.12538327687767,-157.32952462469552L152.98963640778922,-69.25753659564255L152.99025391027985,-69.25574126940026z" style="fill:rgb(247,158,158)"/><path d="M136.77855402297104,-172.2376389065556L155.93717124640557,-50.53346216330475L154.04892335153772,-62.528476013071796z" style="fill:rgb(0,127,127)"/><path d="M154.0495434055604,-62.52668309468222L-179.93139578556358,25.25601011405334L126.8940719518582,-55.38920641091756z" style="fill:rgb(154,4,145)"/><path d="M136.77855402297104,-172.2376389065556L153.41948745841938,-57.76667852186009L155.93717124640557,-50.53346216330475z" style="fill:rgb(247,158,158)"/><path d="M155.93779579000267,-50.5316670289091L155.83651167079685,-50.50730196778328L-211.52401037941928,44.957018680589826zM-216.03996535023967,38.93693604635081L155.83651167079685,-50.50730196778328L155.93717124640557,-50.53346216330475zM-216.03996535023967,38.93693604635081L155.93717124640557,-50.53346216330475L153.41948745841938,-57.76667852186009z" style="fill:rgb(127,37,217)"/><path d="M129.92718436141567,-63.08286445056838L129.4598277883968,-62.87139750126534L129.01179031624386,-62.63116335098791zM129.92718436141567,-63.08286445056838L129.01179031624386,-62.63116335098791L128.1916602340502,-62.07441703388816zM129.01179031624386,-62.63116335098791L128.58762476801718,-62.36460468368139L128.1916602340502,-62.07441703388816zM130.900813282533,-63.411218776887075L130.40914631301987,-63.26341720997405L129.92718436141567,-63.08286445056838zM131.89322342838386,-63.60285375714714L130.900813282533,-63.411218776887075L129.92718436141567,-63.08286445056838zM128.1916602340502,-62.07441703388816L127.82791408578598,-61.763547677937254L127.50008990062153,-61.435145602690696zM129.92718436141567,-63.08286445056838L128.1916602340502,-62.07441703388816L126.96522353036096,-60.73920264492241zM131.89322342838386,-63.60285375714714L131.3971876086373,-63.524752955406925L130.900813282533,-63.411218776887075zM128.1916602340502,-62.07441703388816L127.50008990062153,-61.435145602690696L126.96522353036096,-60.73920264492241zM127.50008990062153,-61.435145602690696L127.21153835300844,-61.092539345615L126.96522353036096,-60.73920264492241zM133.7741971242246,-63.5502024026482L131.89322342838386,-63.60285375714714L129.92718436141567,-63.08286445056838zM132.86415832780543,-63.64988001294565L132.38387015189014,-63.644713212852935L131.89322342838386,-63.60285375714714zM133.7741971242246,-63.5502024026482L129.92718436141567,-63.08286445056838L126.96522353036096,-60.73920264492241zM133.7741971242246,-63.5502024026482L132.86415832780543,-63.64988001294565L131.89322342838386,-63.60285375714714zM126.96522353036096,-60.73920264492241L126.76366362823616,-60.378730508923105L126.60895539028915,-60.01478029525481zM133.7741971242246,-63.5502024026482L133.32918245236678,-63.6182794717752L132.86415832780543,-63.64988001294565zM126.96522353036096,-60.73920264492241L126.60895539028915,-60.01478029525481L126.48349399871609,-58.598207675430636zM126.60895539028915,-60.01478029525481L126.5027040632237,-59.651065708883245L126.44605279086888,-59.291292926938205zM134.5861943312539,-63.3076328326896L134.19464301097327,-63.44630848057335L133.7741971242246,-63.5502024026482zM126.60895539028915,-60.01478029525481L126.44605279086888,-59.291292926938205L126.48349399871609,-58.598207675430636zM135.26687445612905,-62.93179476075623L134.5861943312539,-63.3076328326896L133.7741971242246,-63.5502024026482zM126.44605279086888,-59.291292926938205L126.43960551938271,-58.93913539498021L126.48349399871609,-58.598207675430636zM135.26687445612905,-62.93179476075623L134.94483568135996,-63.13555339887185L134.5861943312539,-63.3076328326896zM136.12842248352922,-61.845506088342454L135.26687445612905,-62.93179476075623L133.7741971242246,-63.5502024026482zM126.96522353036096,-60.73920264492241L126.48349399871609,-58.598207675430636L128.49450968127167,-56.65643153746839zM126.48349399871609,-58.598207675430636L126.57732305139952,-58.27200477347369L126.72016781284084,-57.96388668068868zM135.51320710122712,-59.01640283075759L133.7741971242246,-63.5502024026482L126.96522353036096,-60.73920264492241zM135.78817591500354,-62.437766087873655L135.5489746819362,-62.698411884394524L135.26687445612905,-62.93179476075623z" style="fill:rgb(83,212,212)"/><path d="M126.91063814216422,-57.677026620246956L126.52473963103158,-58.258229320597444L126.72016781284084,-57.96388668068868z" style="fill:rgb(149,229,201)"/><path d="M126.48349399871609,-58.598207675430636L126.72016781284084,-57.96388668068868L127.14681399256025,-57.414394366114095zM136.12842248352922,-61.845506088342454L135.78817591500354,-62.437766087873655L135.26687445612905,-62.93179476075623zM126.72016781284084,-57.96388668068868L126.91063814216422,-57.677026620246956L127.14681399256025,-57.414394366114095zM136.12842248352922,-61.845506088342454L135.98201109479078,-62.15249591770304L135.78817591500354,-62.437766087873655z" style="fill:rgb(83,212,212)"/><path d="M127.42632939361958,-57.17871734894482L126.57085153961695,-57.90003065811507L127.14681399256025,-57.414394366114095z" style="fill:rgb(31,156,206)"/><path d="M126.48349399871609,-58.598207675430636L127.14681399256025,-57.414394366114095L128.49450968127167,-56.65643153746839zM135.51320710122712,-59.01640283075759L136.12842248352922,-61.845506088342454L133.7741971242246,-63.5502024026482z" style="fill:rgb(83,212,212)"/><path d="M135.78545866676168,-64.70496874640463L136.39843171802636,-60.297180469970876L136.37267238851516,-60.482415589401356z" style="fill:rgb(0,127,127)"/><path d="M126.96522353036096,-60.73920264492241L128.49450968127167,-56.65643153746839L135.51320710122712,-59.01640283075759z" style="fill:rgb(83,212,212)"/><path d="M135.78545866676168,-64.70496874640463L136.42501058612905,-60.106056039358755L136.39843171802636,-60.297180469970876z" style="fill:rgb(0,127,127)"/><path d="M127.14681399256025,-57.414394366114095L127.42632939361958,-57.17871734894482L127.74634484894351,-56.97245084996879zM136.27323965489455,-61.179101541751635L136.22584334150943,-61.519931151076285L136.12842248352922,-61.845506088342454z" style="fill:rgb(83,212,212)"/><path d="M135.78545866676168,-64.70496874640463L136.4814209921708,-59.70041774454216L136.45260235284354,-59.90765574183217z" style="fill:rgb(0,127,127)"/><path d="M127.14681399256025,-57.414394366114095L127.74634484894351,-56.97245084996879L128.49450968127167,-56.65643153746839z" style="fill:rgb(83,212,212)"/><path d="M128.49450968127167,-56.65643153746839L126.64486070087622,-57.3251075733359L128.1036222401631,-56.79774103300515z" style="fill:rgb(56,24,152)"/><path d="M135.78545866676168,-64.70496874640463L136.5117153573959,-59.48257189767539L136.4814209921708,-59.70041774454216z" style="fill:rgb(0,127,127)"/><path d="M136.21630211155238,-60.4657875691571L136.27323965489455,-61.179101541751635L136.12842248352922,-61.845506088342454z" style="fill:rgb(83,212,212)"/><path d="M128.9150039930182,-56.55000824879959L126.6715471041567,-57.11781228674437L128.49450968127167,-56.65643153746839z" style="fill:rgb(58,169,226)"/><path d="M127.74634484894351,-56.97245084996879L128.1036222401631,-56.79774103300515L128.49450968127167,-56.65643153746839z" style="fill:rgb(83,212,212)"/><path d="M135.78545866676168,-64.70496874640463L136.57793633160784,-59.00638735920041L136.5437753886828,-59.25204488747127z" style="fill:rgb(0,127,127)"/><path d="M136.21630211155238,-60.4657875691571L136.2700727662425,-60.82651212141521L136.27323965489455,-61.179101541751635zM135.51320710122712,-59.01640283075759L136.21630211155238,-60.4657875691571L136.12842248352922,-61.845506088342454z" style="fill:rgb(83,212,212)"/><path d="M135.78545866676168,-64.70496874640463L136.6543084583238,-58.457211359649826L136.61461547918174,-58.742645021299374z" style="fill:rgb(0,127,127)"/><path d="M129.82729910575216,-56.44596854192653L126.72928199262726,-56.6693134380803L129.36079243921637,-56.4795983959645z" style="fill:rgb(106,241,180)"/><path d="M135.78545866676168,-64.70496874640463L136.69763842175195,-58.14562858559221L136.6543084583238,-58.457211359649826z" style="fill:rgb(0,127,127)"/><path d="M128.49450968127167,-56.65643153746839L128.9150039930182,-56.55000824879959L129.36079243921637,-56.4795983959645zM135.95954424725778,-59.73484651697507L136.11244221619566,-60.10063939405617L136.21630211155238,-60.4657875691571zM128.49450968127167,-56.65643153746839L129.36079243921637,-56.4795983959645L130.30969508897937,-56.449488808577875z" style="fill:rgb(83,212,212)"/><path d="M136.37267238851516,-60.482415589401356L135.75911057239344,-59.37218018496743L135.95954424725778,-59.73484651697507z" style="fill:rgb(93,210,218)"/><path d="M130.80299619384945,-56.490151739295705L126.79487589595249,-56.159772583907476L130.30969508897937,-56.449488808577875z" style="fill:rgb(131,0,137)"/><path d="M135.51320710122712,-59.01640283075759L135.95954424725778,-59.73484651697507L136.21630211155238,-60.4657875691571zM129.36079243921637,-56.4795983959645L129.82729910575216,-56.44596854192653L130.30969508897937,-56.449488808577875z" style="fill:rgb(83,212,212)"/><path d="M136.39843171802636,-60.297180469970876L135.51320710122712,-59.01640283075759L135.75911057239344,-59.37218018496743z" style="fill:rgb(53,216,181)"/><path d="M128.49450968127167,-56.65643153746839L130.30969508897937,-56.449488808577875L132.29714571227976,-56.82908610489924zM128.49450968127167,-56.65643153746839L132.29714571227976,-56.82908610489924L135.51320710122712,-59.01640283075759zM135.51320710122712,-59.01640283075759L135.75911057239344,-59.37218018496743L135.95954424725778,-59.73484651697507zM130.30969508897937,-56.449488808577875L130.80299619384945,-56.490151739295705L131.30212450000667,-56.5675551878183zM134.89551266171543,-58.34015095810783L135.22435401514346,-58.67119974242232L135.51320710122712,-59.01640283075759z" style="fill:rgb(83,212,212)"/><path d="M136.4814209921708,-59.70041774454216L134.5300564234474,-58.02669917694809L134.89551266171543,-58.34015095810783z" style="fill:rgb(160,136,250)"/><path d="M130.30969508897937,-56.449488808577875L131.30212450000667,-56.5675551878183L132.29714571227976,-56.82908610489924z" style="fill:rgb(83,212,212)"/><path d="M131.48538944059965,-56.59597729252356L130.80299619384945,-56.490151739295705L131.30212450000667,-56.5675551878183z" style="fill:rgb(97,246,163)"/><path d="M134.13177594392002,-57.734100003816174L134.89551266171543,-58.34015095810783L135.51320710122712,-59.01640283075759z" style="fill:rgb(83,212,212)"/><path d="M136.5117153573959,-59.48257189767539L134.13177594392002,-57.734100003816174L134.5300564234474,-58.02669917694809z" style="fill:rgb(146,138,253)"/><path d="M132.29714571227976,-56.82908610489924L134.13177594392002,-57.734100003816174L135.51320710122712,-59.01640283075759zM131.30212450000667,-56.5675551878183L131.80190274883657,-56.6809235333276L132.29714571227976,-56.82908610489924zM134.13177594392002,-57.734100003816174L134.5300564234474,-58.02669917694809L134.89551266171543,-58.34015095810783zM132.29714571227976,-56.82908610489924L133.25354549745236,-57.22336229235462L134.13177594392002,-57.734100003816174zM132.29714571227976,-56.82908610489924L132.78270926245287,-57.01052729268114L133.25354549745236,-57.22336229235462zM133.25354549745236,-57.22336229235462L133.70479845289634,-57.46538808529444L134.13177594392002,-57.734100003816174z" style="fill:rgb(83,212,212)"/><path d="M136.69763842175195,-58.14562858559221L131.80190274883657,-56.6809235333276L132.29714571227976,-56.82908610489924z" style="fill:rgb(83,223,199)"/><path d="M152.99025391027985,-69.25574126940026L152.98963640778922,-69.25753659564255L154.04892335153772,-62.528476013071796z" style="fill:rgb(247,158,158)"/><path d="M154.0495434055604,-62.52668309468222L131.80190274883657,-56.6809235333276L131.85061687808096,-56.69197342373644z" style="fill:rgb(83,212,212)"/><path d="M152.99025391027985,-69.25574126940026L154.04892335153772,-62.528476013071796L154.0495434055604,-62.52668309468222zM154.04892335153772,-62.528476013071796L155.93779579000267,-50.5316670289091L154.0495434055604,-62.52668309468222zM154.04892335153772,-62.528476013071796L155.93717124640557,-50.53346216330475L155.93779579000267,-50.5316670289091z" style="fill:rgb(247,158,158)"/><path d="M155.83651167079685,-50.50730196778328L155.93779579000267,-50.5316670289091L155.93717124640557,-50.53346216330475z" style="fill:rgb(127,37,217)"/></svg>
