<?xml version="1.0" encoding="UTF-8"?>
<!-- Generated by jsxcad -->
<!DOCTYPE svg PUBLIC "-//W3C//DTD SVG 1.1 Tiny//EN" "http://www.w3.org/Graphics/SVG/1.1/DTD/svg11-tiny.dtd">
<svg viewBox="-250 -250 500 500" width="500" height="500" xmlns="http://www.w3.org/2000/svg"><path d="M134.45662148505187,-179.31013391975816L-191.41841479074037,-84.15415556421799L-216.03996535023967,38.93693604635081z" style="fill:rgb(83,212,212)"/><path d="M178.4087303102331,80.9400721816379L178.54996655203865,81.25345733231117L126.72016781284084,-57.96388668068868z" style="fill:rgb(10,79,115)"/><path d="M178.54996655203865,81.25345733231117L178.73293000658262,81.54862400883684L126.91063814216422,-57.677026620246956z" style="fill:rgb(13,71,125)"/><path d="M178.73293000658262,81.54862400883684L178.95576738819793,81.82251391560317L127.14681399256025,-57.414394366114095z" style="fill:rgb(17,63,134)"/><path d="M178.95576738819793,81.82251391560317L179.21621720564363,82.0723109701783L127.42632939361958,-57.17871734894482z" style="fill:rgb(22,56,144)"/><path d="M136.22584334150943,-61.519931151076285L186.90840686405966,78.30313657061747L186.8074758697116,77.97511741400001z" style="fill:rgb(246,167,149)"/><path d="M179.21621720564363,82.0723109701783L179.5116538490434,82.29541134713072L127.74634484894351,-56.97245084996879z" style="fill:rgb(29,50,153)"/><path d="M136.27323965489455,-61.179101541751635L186.96519207926718,78.6432326216852L186.90840686405966,78.30313657061747z" style="fill:rgb(247,158,158)"/><path d="M179.5116538490434,82.29541134713072L179.8390540411869,82.48949609397933L128.1036222401631,-56.79774103300515z" style="fill:rgb(36,45,162)"/><path d="M136.2700727662425,-60.82651212141521L186.97720629459346,78.991905493358L186.96519207926718,78.6432326216852z" style="fill:rgb(246,149,167)"/><path d="M179.8390540411869,82.48949609397933L180.19509257221628,82.6525406924375L128.49450968127167,-56.65643153746839z" style="fill:rgb(44,40,171)"/><path d="M136.21630211155238,-60.4657875691571L186.94429497721958,79.34557513453707L186.97720629459346,78.991905493358z" style="fill:rgb(244,139,175)"/><path d="M180.19509257221628,82.6525406924375L180.5760963083461,82.78284099916009L128.9150039930182,-56.55000824879959z" style="fill:rgb(54,37,179)"/><path d="M136.11244221619566,-60.10063939405617L186.86675450080844,79.70059083735437L186.94429497721958,79.34557513453707z" style="fill:rgb(241,129,183)"/><path d="M180.5760963083461,82.78284099916009L180.97818185846583,82.87901647849218L129.36079243921637,-56.4795983959645z" style="fill:rgb(64,34,187)"/><path d="M135.95954424725778,-59.73484651697507L186.745366996257,80.05329522556141L186.86675450080844,79.70059083735437z" style="fill:rgb(237,120,191)"/><path d="M180.97818185846583,82.87901647849218L181.3971940770059,82.94006181783672L129.82729910575216,-56.44596854192653z" style="fill:rgb(74,32,194)"/><path d="M135.75911057239344,-59.37218018496743L186.5813251904713,80.40003385874488L186.745366996257,80.05329522556141z" style="fill:rgb(232,110,198)"/><path d="M181.3971940770059,82.94006181783672L181.82881976077908,82.96531050449694L130.30969508897937,-56.449488808577875z" style="fill:rgb(85,32,201)"/><path d="M135.51320710122712,-59.01640283075759L186.3763331809361,80.73723295613225L186.5813251904713,80.40003385874488z" style="fill:rgb(225,101,204)"/><path d="M181.82881976077908,82.96531050449694L182.26860504212362,82.95449159274159L130.80299619384945,-56.490151739295705z" style="fill:rgb(97,32,207)"/><path d="M135.22435401514346,-58.67119974242232L186.13244922826658,81.06138912876483L186.3763331809361,80.73723295613225z" style="fill:rgb(218,92,209)"/><path d="M182.26860504212362,82.95449159274159L182.71200279954164,82.90768624837281L131.30212450000667,-56.5675551878183z" style="fill:rgb(109,33,211)"/><path d="M134.89551266171543,-58.34015095810783L185.85221240219295,81.36914738112335L186.13244922826658,81.06138912876483z" style="fill:rgb(210,83,214)"/><path d="M182.71200279954164,82.90768624837281L183.15441747968137,82.82537038791499L131.80190274883657,-56.6809235333276z" style="fill:rgb(121,35,215)"/><path d="M134.5300564234474,-58.02669917694809L185.5384817134512,81.6573101531961L185.85221240219295,81.36914738112335z" style="fill:rgb(200,75,217)"/><path d="M183.15441747968137,82.82537038791499L183.59128980529073,82.70838235608593L132.29714571227976,-56.82908610489924z" style="fill:rgb(133,39,219)"/><path d="M134.13177594392002,-57.734100003816174L185.19452168774228,81.92288857959937L185.5384817134512,81.6573101531961z" style="fill:rgb(190,67,220)"/><path d="M183.59128980529073,82.70838235608593L184.01807633390112,82.55791844892988L132.78270926245287,-57.01052729268114z" style="fill:rgb(145,43,221)"/><path d="M184.82386607211424,82.16313107084918L185.19452168774228,81.92288857959937L134.13177594392002,-57.734100003816174z" style="fill:rgb(180,60,222)"/><path d="M184.01807633390112,82.55791844892988L184.43035969042865,82.37553957054483L133.25354549745236,-57.22336229235462z" style="fill:rgb(157,47,222)"/><path d="M184.43035969042865,82.37553957054483L184.82386607211424,82.16313107084918L133.70479845289634,-57.46538808529444z" style="fill:rgb(169,53,222)"/><path d="M136.77492793311237,-172.2625787698059L134.45662148505187,-179.31013391975816L153.41948745841938,-57.76667852186009z" style="fill:rgb(247,158,158)"/><path d="M-216.03996535023967,38.93693604635081L153.41948745841938,-57.76667852186009L134.45662148505187,-179.31013391975816z" style="fill:rgb(83,212,212)"/><path d="M126.72016781284084,-57.96388668068868L126.57732305139952,-58.27200477347369L178.4087303102331,80.9400721816379z" style="fill:rgb(10,79,115)"/><path d="M126.91063814216422,-57.677026620246956L126.72016781284084,-57.96388668068868L178.54996655203865,81.25345733231117z" style="fill:rgb(13,71,125)"/><path d="M127.14681399256025,-57.414394366114095L126.91063814216422,-57.677026620246956L178.73293000658262,81.54862400883684z" style="fill:rgb(17,63,134)"/><path d="M127.42632939361958,-57.17871734894482L127.14681399256025,-57.414394366114095L178.95576738819793,81.82251391560317z" style="fill:rgb(22,56,144)"/><path d="M186.8074758697116,77.97511741400001L136.12842248352922,-61.845506088342454L136.22584334150943,-61.519931151076285z" style="fill:rgb(246,167,149)"/><path d="M127.74634484894351,-56.97245084996879L127.42632939361958,-57.17871734894482L179.21621720564363,82.0723109701783z" style="fill:rgb(29,50,153)"/><path d="M186.90840686405966,78.30313657061747L136.22584334150943,-61.519931151076285L136.27323965489455,-61.179101541751635z" style="fill:rgb(247,158,158)"/><path d="M128.1036222401631,-56.79774103300515L127.74634484894351,-56.97245084996879L179.5116538490434,82.29541134713072z" style="fill:rgb(36,45,162)"/><path d="M186.96519207926718,78.6432326216852L136.27323965489455,-61.179101541751635L136.2700727662425,-60.82651212141521z" style="fill:rgb(246,149,167)"/><path d="M128.49450968127167,-56.65643153746839L128.1036222401631,-56.79774103300515L179.8390540411869,82.48949609397933z" style="fill:rgb(44,40,171)"/><path d="M186.97720629459346,78.991905493358L136.2700727662425,-60.82651212141521L136.21630211155238,-60.4657875691571z" style="fill:rgb(244,139,175)"/><path d="M128.9150039930182,-56.55000824879959L128.49450968127167,-56.65643153746839L180.19509257221628,82.6525406924375z" style="fill:rgb(54,37,179)"/><path d="M186.94429497721958,79.34557513453707L136.21630211155238,-60.4657875691571L136.11244221619566,-60.10063939405617z" style="fill:rgb(241,129,183)"/><path d="M129.36079243921637,-56.4795983959645L128.9150039930182,-56.55000824879959L180.5760963083461,82.78284099916009z" style="fill:rgb(64,34,187)"/><path d="M186.86675450080844,79.70059083735437L136.11244221619566,-60.10063939405617L135.95954424725778,-59.73484651697507z" style="fill:rgb(237,120,191)"/><path d="M129.82729910575216,-56.44596854192653L129.36079243921637,-56.4795983959645L180.97818185846583,82.87901647849218z" style="fill:rgb(74,32,194)"/><path d="M186.745366996257,80.05329522556141L135.95954424725778,-59.73484651697507L135.75911057239344,-59.37218018496743z" style="fill:rgb(232,110,198)"/><path d="M130.30969508897937,-56.449488808577875L129.82729910575216,-56.44596854192653L181.3971940770059,82.94006181783672z" style="fill:rgb(85,32,201)"/><path d="M186.5813251904713,80.40003385874488L135.75911057239344,-59.37218018496743L135.51320710122712,-59.01640283075759z" style="fill:rgb(225,101,204)"/><path d="M130.80299619384945,-56.490151739295705L130.30969508897937,-56.449488808577875L181.82881976077908,82.96531050449694z" style="fill:rgb(97,32,207)"/><path d="M186.3763331809361,80.73723295613225L135.51320710122712,-59.01640283075759L135.22435401514346,-58.67119974242232z" style="fill:rgb(218,92,209)"/><path d="M131.30212450000667,-56.5675551878183L130.80299619384945,-56.490151739295705L182.26860504212362,82.95449159274159z" style="fill:rgb(109,33,211)"/><path d="M186.13244922826658,81.06138912876483L135.22435401514346,-58.67119974242232L134.89551266171543,-58.34015095810783z" style="fill:rgb(210,83,214)"/><path d="M131.80190274883657,-56.6809235333276L131.30212450000667,-56.5675551878183L182.71200279954164,82.90768624837281z" style="fill:rgb(121,35,215)"/><path d="M185.85221240219295,81.36914738112335L134.89551266171543,-58.34015095810783L134.5300564234474,-58.02669917694809z" style="fill:rgb(200,75,217)"/><path d="M132.29714571227976,-56.82908610489924L131.80190274883657,-56.6809235333276L183.15441747968137,82.82537038791499z" style="fill:rgb(133,39,219)"/><path d="M185.5384817134512,81.6573101531961L134.5300564234474,-58.02669917694809L134.13177594392002,-57.734100003816174z" style="fill:rgb(190,67,220)"/><path d="M132.78270926245287,-57.01052729268114L132.29714571227976,-56.82908610489924L183.59128980529073,82.70838235608593z" style="fill:rgb(145,43,221)"/><path d="M134.13177594392002,-57.734100003816174L133.70479845289634,-57.46538808529444L184.82386607211424,82.16313107084918z" style="fill:rgb(180,60,222)"/><path d="M133.25354549745236,-57.22336229235462L132.78270926245287,-57.01052729268114L184.01807633390112,82.55791844892988z" style="fill:rgb(157,47,222)"/><path d="M133.70479845289634,-57.46538808529444L133.25354549745236,-57.22336229235462L184.43035969042865,82.37553957054483z" style="fill:rgb(169,53,222)"/><path d="M-216.03996535023967,38.93693604635081L-211.522888023028,44.958516883645814L155.93779579000267,-50.5316670289091z" style="fill:rgb(127,37,217)"/><path d="M153.41948745841938,-57.76667852186009L155.93779579000267,-50.5316670289091L136.77492793311237,-172.2625787698059z" style="fill:rgb(247,158,158)"/><path d="M155.93779579000267,-50.5316670289091L153.41948745841938,-57.76667852186009L-216.03996535023967,38.93693604635081z" style="fill:rgb(127,37,217)"/><path d="M129.92718436141567,-63.08286445056838L129.4598277883968,-62.87139750126534L129.01179031624386,-62.63116335098791zM129.01179031624386,-62.63116335098791L128.58762476801718,-62.36460468368139L128.1916602340502,-62.07441703388816zM130.900813282533,-63.411218776887075L129.92718436141567,-63.08286445056838L129.01179031624386,-62.63116335098791zM130.900813282533,-63.411218776887075L130.40914631301987,-63.26341720997405L129.92718436141567,-63.08286445056838zM129.01179031624386,-62.63116335098791L128.1916602340502,-62.07441703388816L127.50008990062153,-61.435145602690696zM130.900813282533,-63.411218776887075L129.01179031624386,-62.63116335098791L127.50008990062153,-61.435145602690696zM128.1916602340502,-62.07441703388816L127.82791408578598,-61.763547677937254L127.50008990062153,-61.435145602690696zM131.89322342838386,-63.60285375714714L131.3971876086373,-63.524752955406925L130.900813282533,-63.411218776887075zM132.86415832780543,-63.64988001294565L131.89322342838386,-63.60285375714714L130.900813282533,-63.411218776887075zM127.50008990062153,-61.435145602690696L127.21153835300844,-61.092539345615L126.96522353036096,-60.73920264492241zM132.86415832780543,-63.64988001294565L132.38387015189014,-63.644713212852935L131.89322342838386,-63.60285375714714zM134.5861943312539,-63.3076328326896L130.900813282533,-63.411218776887075L127.50008990062153,-61.435145602690696zM127.50008990062153,-61.435145602690696L126.96522353036096,-60.73920264492241L126.44605279086888,-59.291292926938205zM126.96522353036096,-60.73920264492241L126.76366362823616,-60.378730508923105L126.60895539028915,-60.01478029525481zM134.5861943312539,-63.3076328326896L132.86415832780543,-63.64988001294565L130.900813282533,-63.411218776887075zM133.7741971242246,-63.5502024026482L133.32918245236678,-63.6182794717752L132.86415832780543,-63.64988001294565zM126.96522353036096,-60.73920264492241L126.60895539028915,-60.01478029525481L126.44605279086888,-59.291292926938205zM134.5861943312539,-63.3076328326896L133.7741971242246,-63.5502024026482L132.86415832780543,-63.64988001294565zM126.60895539028915,-60.01478029525481L126.5027040632237,-59.651065708883245L126.44605279086888,-59.291292926938205zM134.5861943312539,-63.3076328326896L134.19464301097327,-63.44630848057335L133.7741971242246,-63.5502024026482zM126.44605279086888,-59.291292926938205L126.43960551938271,-58.93913539498021L126.48349399871609,-58.598207675430636zM127.50008990062153,-61.435145602690696L126.44605279086888,-59.291292926938205L127.74634484894351,-56.97245084996879zM135.26687445612905,-62.93179476075623L134.94483568135996,-63.13555339887185L134.5861943312539,-63.3076328326896zM126.44605279086888,-59.291292926938205L126.48349399871609,-58.598207675430636L126.72016781284084,-57.96388668068868zM135.78817591500354,-62.437766087873655L135.26687445612905,-62.93179476075623L134.5861943312539,-63.3076328326896zM126.48349399871609,-58.598207675430636L126.57732305139952,-58.27200477347369L126.72016781284084,-57.96388668068868zM135.78817591500354,-62.437766087873655L135.5489746819362,-62.698411884394524L135.26687445612905,-62.93179476075623zM134.89551266171543,-58.34015095810783L134.5861943312539,-63.3076328326896L127.50008990062153,-61.435145602690696zM126.44605279086888,-59.291292926938205L126.72016781284084,-57.96388668068868L127.74634484894351,-56.97245084996879zM136.27323965489455,-61.179101541751635L135.78817591500354,-62.437766087873655L134.5861943312539,-63.3076328326896zM126.72016781284084,-57.96388668068868L126.91063814216422,-57.677026620246956L127.14681399256025,-57.414394366114095zM136.12842248352922,-61.845506088342454L135.98201109479078,-62.15249591770304L135.78817591500354,-62.437766087873655zM127.50008990062153,-61.435145602690696L127.74634484894351,-56.97245084996879L134.89551266171543,-58.34015095810783zM126.72016781284084,-57.96388668068868L127.14681399256025,-57.414394366114095L127.74634484894351,-56.97245084996879zM136.27323965489455,-61.179101541751635L136.12842248352922,-61.845506088342454L135.78817591500354,-62.437766087873655zM127.14681399256025,-57.414394366114095L127.42632939361958,-57.17871734894482L127.74634484894351,-56.97245084996879zM136.27323965489455,-61.179101541751635L136.22584334150943,-61.519931151076285L136.12842248352922,-61.845506088342454zM134.89551266171543,-58.34015095810783L136.27323965489455,-61.179101541751635L134.5861943312539,-63.3076328326896zM127.74634484894351,-56.97245084996879L128.1036222401631,-56.79774103300515L128.49450968127167,-56.65643153746839zM136.21630211155238,-60.4657875691571L136.2700727662425,-60.82651212141521L136.27323965489455,-61.179101541751635zM127.74634484894351,-56.97245084996879L128.49450968127167,-56.65643153746839L129.36079243921637,-56.4795983959645zM135.95954424725778,-59.73484651697507L136.21630211155238,-60.4657875691571L136.27323965489455,-61.179101541751635zM128.49450968127167,-56.65643153746839L128.9150039930182,-56.55000824879959L129.36079243921637,-56.4795983959645zM135.95954424725778,-59.73484651697507L136.11244221619566,-60.10063939405617L136.21630211155238,-60.4657875691571zM127.74634484894351,-56.97245084996879L129.36079243921637,-56.4795983959645L131.30212450000667,-56.5675551878183zM134.89551266171543,-58.34015095810783L135.95954424725778,-59.73484651697507L136.27323965489455,-61.179101541751635zM127.74634484894351,-56.97245084996879L131.30212450000667,-56.5675551878183L134.89551266171543,-58.34015095810783zM129.36079243921637,-56.4795983959645L129.82729910575216,-56.44596854192653L130.30969508897937,-56.449488808577875zM135.51320710122712,-59.01640283075759L135.75911057239344,-59.37218018496743L135.95954424725778,-59.73484651697507zM129.36079243921637,-56.4795983959645L130.30969508897937,-56.449488808577875L131.30212450000667,-56.5675551878183zM134.89551266171543,-58.34015095810783L135.51320710122712,-59.01640283075759L135.95954424725778,-59.73484651697507zM130.30969508897937,-56.449488808577875L130.80299619384945,-56.490151739295705L131.30212450000667,-56.5675551878183zM134.89551266171543,-58.34015095810783L135.22435401514346,-58.67119974242232L135.51320710122712,-59.01640283075759zM131.30212450000667,-56.5675551878183L131.80190274883657,-56.6809235333276L132.29714571227976,-56.82908610489924zM131.30212450000667,-56.5675551878183L133.25354549745236,-57.22336229235462L134.89551266171543,-58.34015095810783zM134.13177594392002,-57.734100003816174L134.5300564234474,-58.02669917694809L134.89551266171543,-58.34015095810783zM131.30212450000667,-56.5675551878183L132.29714571227976,-56.82908610489924L133.25354549745236,-57.22336229235462zM133.25354549745236,-57.22336229235462L134.13177594392002,-57.734100003816174L134.89551266171543,-58.34015095810783zM132.29714571227976,-56.82908610489924L132.78270926245287,-57.01052729268114L133.25354549745236,-57.22336229235462zM133.25354549745236,-57.22336229235462L133.70479845289634,-57.46538808529444L134.13177594392002,-57.734100003816174z" style="fill:rgb(83,212,212)"/></svg>
