<?xml version="1.0" encoding="UTF-8"?>
<!-- Generated by jsxcad -->
<!DOCTYPE svg PUBLIC "-//W3C//DTD SVG 1.1 Tiny//EN" "http://www.w3.org/Graphics/SVG/1.1/DTD/svg11-tiny.dtd">
<svg viewBox="-250 -250 500 500" width="500" height="500" xmlns="http://www.w3.org/2000/svg"><path d="M59.78138234973377,101.10934131915643L59.55334240716678,100.63474027473359L-59.097680377927354,-133.65240900298244z" style="fill:rgb(241,183,129)"/><path d="M-74.40568934015569,-125.4983755992543L47.32774946974517,107.22163770660683L47.61244024697584,107.66587067042549z" style="fill:rgb(17,63,134)"/><path d="M59.944532819817795,101.61337371464158L59.78138234973377,101.10934131915643L-58.88765823811862,-133.20731400119598z" style="fill:rgb(244,175,139)"/><path d="M-74.12665159393211,-125.08987736430399L47.61244024697584,107.66587067042549L47.95729555834201,108.07214037273575z" style="fill:rgb(22,56,144)"/><path d="M60.041026449170175,102.14169141195191L59.944532819817795,101.61337371464158L-58.75814986571669,-132.72437541241604z" style="fill:rgb(246,167,149)"/><path d="M-73.77146217506366,-124.72697558753546L47.95729555834201,108.07214037273575L48.3588608744316,108.43621925971058z" style="fill:rgb(29,50,153)"/><path d="M60.069762944855384,102.6888712609263L60.041026449170175,102.14169141195191L-58.71062730047543,-132.2084572595613z" style="fill:rgb(247,158,158)"/><path d="M-73.3436498380582,-124.41347717260346L48.3588608744316,108.43621925971058L48.813065522096416,108.75428667319692z" style="fill:rgb(36,45,162)"/><path d="M60.03034983027007,103.24931404024252L60.069762944855384,102.6888712609263L-58.74574128894926,-131.66485220934823z" style="fill:rgb(246,149,167)"/><path d="M-72.84749788250485,-124.15272061877111L48.813065522096416,108.75428667319692L49.31530233606025,109.02299213167849z" style="fill:rgb(44,40,171)"/><path d="M59.92310753997728,103.81724462302061L60.03034983027007,103.24931404024252L-58.86327813362379,-131.0991079097858z" style="fill:rgb(244,139,175)"/><path d="M-72.28801076808136,-123.94749248655353L49.31530233606025,109.02299213167849L49.86043854877665,109.23949863197603z" style="fill:rgb(54,37,179)"/><path d="M59.74904776322247,104.38678613468059L59.92310753997728,103.81724462302061L-59.06215140504917,-130.51703918806163z" style="fill:rgb(241,129,183)"/><path d="M-71.6708841600367,-123.80000453239488L49.86043854877665,109.23949863197603L50.442892121390706,109.40149332648001z" style="fill:rgb(64,34,187)"/><path d="M59.509901864251255,104.95205220174401L59.74904776322247,104.38678613468059L-59.340445465295595,-129.9246713645484z" style="fill:rgb(237,120,191)"/><path d="M-71.00242030845146,-123.71188410758201L50.442892121390706,109.40149332648001L51.05666254904272,109.50722317504487z" style="fill:rgb(74,32,194)"/><path d="M59.208065796733806,105.50717091424289L59.509901864251255,104.95205220174401L-59.69537934304571,-129.32812392413098z" style="fill:rgb(232,110,198)"/><path d="M-70.28949966571913,-123.68414835419748L51.05666254904272,109.50722317504487L51.69541772316649,109.55555452662948z" style="fill:rgb(85,32,201)"/><path d="M58.84661868168534,106.04636159739387L59.208065796733806,105.50717091424289L-60.12337609501061,-128.73359777062046z" style="fill:rgb(225,101,204)"/><path d="M-69.53947596449238,-123.71713577637865L51.69541772316649,109.55555452662948L52.3525451538949,109.54590576142652z" style="fill:rgb(97,32,207)"/><path d="M58.42925985633303,106.56402277515012L58.84661868168534,106.04636159739387L-60.62008269483307,-128.14729824683735z" style="fill:rgb(218,92,209)"/><path d="M-68.76012147390419,-123.8106075446346L52.3525451538949,109.54590576142652L53.02123772242012,109.4783529047785z" style="fill:rgb(109,33,211)"/><path d="M57.96028097185229,107.05475357450433L58.42925985633303,106.56402277515012L-61.18038173066156,-127.57531075924116z" style="fill:rgb(210,83,214)"/><path d="M-67.95952007419258,-123.96361793682195L53.02123772242012,109.4783529047785L53.69454156375479,109.3535290235754z" style="fill:rgb(121,35,215)"/><path d="M57.44453457105135,107.51342424409616L57.96028097185229,107.05475357450433L-61.798502511724756,-127.02365856337202z" style="fill:rgb(200,75,217)"/><path d="M-67.14601294239542,-124.17465056264965L53.69454156375479,109.3535290235754L54.36545991308703,109.17272894386116z" style="fill:rgb(133,39,219)"/><path d="M56.887358428618825,107.93524560875608L57.44453457105135,107.51342424409616L-62.46803103359256,-126.49808736629986z" style="fill:rgb(190,67,220)"/><path d="M-66.32809645110319,-124.44154575402214L54.36545991308703,109.17272894386116L55.02699961769221,108.93780184639176z" style="fill:rgb(145,43,221)"/><path d="M-63.932997814215504,-125.54690530097822L56.294547397881075,108.31581815630005L56.887358428618825,107.93524560875608z" style="fill:rgb(180,60,222)"/><path d="M-65.51430108627768,-124.76151206881075L55.02699961769221,108.93780184639176L55.67226749785253,108.651162818169z" style="fill:rgb(157,47,222)"/><path d="M-64.71314637399745,-125.13125139687092L55.67226749785253,108.651162818169L56.294547397881075,108.31581815630005z" style="fill:rgb(169,53,222)"/><path d="M-59.097680377927354,-133.65240900298244L-58.88765823811862,-133.20731400119598L59.78138234973377,101.10934131915643z" style="fill:rgb(241,183,129)"/><path d="M47.61244024697584,107.66587067042549L-74.12665159393211,-125.08987736430399L-74.40568934015569,-125.4983755992543z" style="fill:rgb(17,63,134)"/><path d="M-58.88765823811862,-133.20731400119598L-58.75814986571669,-132.72437541241604L59.944532819817795,101.61337371464158z" style="fill:rgb(244,175,139)"/><path d="M47.95729555834201,108.07214037273575L-73.77146217506366,-124.72697558753546L-74.12665159393211,-125.08987736430399z" style="fill:rgb(22,56,144)"/><path d="M-58.75814986571669,-132.72437541241604L-58.71062730047543,-132.2084572595613L60.041026449170175,102.14169141195191z" style="fill:rgb(246,167,149)"/><path d="M48.3588608744316,108.43621925971058L-73.3436498380582,-124.41347717260346L-73.77146217506366,-124.72697558753546z" style="fill:rgb(29,50,153)"/><path d="M-58.71062730047543,-132.2084572595613L-58.74574128894926,-131.66485220934823L60.069762944855384,102.6888712609263z" style="fill:rgb(247,158,158)"/><path d="M48.813065522096416,108.75428667319692L-72.84749788250485,-124.15272061877111L-73.3436498380582,-124.41347717260346z" style="fill:rgb(36,45,162)"/><path d="M-58.74574128894926,-131.66485220934823L-58.86327813362379,-131.0991079097858L60.03034983027007,103.24931404024252z" style="fill:rgb(246,149,167)"/><path d="M49.31530233606025,109.02299213167849L-72.28801076808136,-123.94749248655353L-72.84749788250485,-124.15272061877111z" style="fill:rgb(44,40,171)"/><path d="M-58.86327813362379,-131.0991079097858L-59.06215140504917,-130.51703918806163L59.92310753997728,103.81724462302061z" style="fill:rgb(244,139,175)"/><path d="M49.86043854877665,109.23949863197603L-71.6708841600367,-123.80000453239488L-72.28801076808136,-123.94749248655353z" style="fill:rgb(54,37,179)"/><path d="M-59.06215140504917,-130.51703918806163L-59.340445465295595,-129.9246713645484L59.74904776322247,104.38678613468059z" style="fill:rgb(241,129,183)"/><path d="M50.442892121390706,109.40149332648001L-71.00242030845146,-123.71188410758201L-71.6708841600367,-123.80000453239488z" style="fill:rgb(64,34,187)"/><path d="M-59.340445465295595,-129.9246713645484L-59.69537934304571,-129.32812392413098L59.509901864251255,104.95205220174401z" style="fill:rgb(237,120,191)"/><path d="M51.05666254904272,109.50722317504487L-70.28949966571913,-123.68414835419748L-71.00242030845146,-123.71188410758201z" style="fill:rgb(74,32,194)"/><path d="M-59.69537934304571,-129.32812392413098L-60.12337609501061,-128.73359777062046L59.208065796733806,105.50717091424289z" style="fill:rgb(232,110,198)"/><path d="M51.69541772316649,109.55555452662948L-69.53947596449238,-123.71713577637865L-70.28949966571913,-123.68414835419748z" style="fill:rgb(85,32,201)"/><path d="M-60.12337609501061,-128.73359777062046L-60.62008269483307,-128.14729824683735L58.84661868168534,106.04636159739387z" style="fill:rgb(225,101,204)"/><path d="M52.3525451538949,109.54590576142652L-68.76012147390419,-123.8106075446346L-69.53947596449238,-123.71713577637865z" style="fill:rgb(97,32,207)"/><path d="M-60.62008269483307,-128.14729824683735L-61.18038173066156,-127.57531075924116L58.42925985633303,106.56402277515012z" style="fill:rgb(218,92,209)"/><path d="M53.02123772242012,109.4783529047785L-67.95952007419258,-123.96361793682195L-68.76012147390419,-123.8106075446346z" style="fill:rgb(109,33,211)"/><path d="M-61.18038173066156,-127.57531075924116L-61.798502511724756,-127.02365856337202L57.96028097185229,107.05475357450433z" style="fill:rgb(210,83,214)"/><path d="M53.69454156375479,109.3535290235754L-67.14601294239542,-124.17465056264965L-67.95952007419258,-123.96361793682195z" style="fill:rgb(121,35,215)"/><path d="M-61.798502511724756,-127.02365856337202L-62.46803103359256,-126.49808736629986L57.44453457105135,107.51342424409616z" style="fill:rgb(200,75,217)"/><path d="M54.36545991308703,109.17272894386116L-66.32809645110319,-124.44154575402214L-67.14601294239542,-124.17465056264965z" style="fill:rgb(133,39,219)"/><path d="M-62.46803103359256,-126.49808736629986L-63.1820138807387,-126.00411425663663L56.887358428618825,107.93524560875608z" style="fill:rgb(190,67,220)"/><path d="M55.02699961769221,108.93780184639176L-65.51430108627768,-124.76151206881075L-66.32809645110319,-124.44154575402214z" style="fill:rgb(145,43,221)"/><path d="M56.887358428618825,107.93524560875608L-63.1820138807387,-126.00411425663663L-63.932997814215504,-125.54690530097822z" style="fill:rgb(180,60,222)"/><path d="M55.67226749785253,108.651162818169L-64.71314637399745,-125.13125139687092L-65.51430108627768,-124.76151206881075z" style="fill:rgb(157,47,222)"/><path d="M56.294547397881075,108.31581815630005L-63.932997814215504,-125.54690530097822L-64.71314637399745,-125.13125139687092z" style="fill:rgb(169,53,222)"/><path d="M-67.97149203859152,-134.33145260570643L-68.76261930408626,-133.96581755835703L-69.53320591556431,-133.55544502093534zM-67.97149203859152,-134.33145260570643L-69.53320591556431,-133.55544502093534L-70.98197603370187,-132.61734970966864zM-69.53320591556431,-133.55544502093534L-70.27548480665311,-133.10443898250895L-70.98197603370187,-132.61734970966864zM-66.35957976764706,-134.91413626118282L-67.16777912345297,-134.6486205836049L-67.97149203859152,-134.33145260570643zM-64.76229279434237,-135.2799284606804L-66.35957976764706,-134.91413626118282L-67.97149203859152,-134.33145260570643zM-70.98197603370187,-132.61734970966864L-71.6455331306988,-132.09906144256166L-72.2594469858405,-131.55477978336296zM-67.97149203859152,-134.33145260570643L-70.98197603370187,-132.61734970966864L-73.31393553993743,-130.41037529199986zM-64.76229279434237,-135.2799284606804L-65.55504870943706,-135.12530866111507L-66.35957976764706,-134.91413626118282zM-70.98197603370187,-132.61734970966864L-72.2594469858405,-131.55477978336296L-73.31393553993743,-130.41037529199986zM-72.2594469858405,-131.55477978336296L-72.81747594162415,-130.989987979334L-73.31393553993743,-130.41037529199986zM-61.86620488580749,-135.30965684013165L-64.76229279434237,-135.2799284606804L-67.97149203859152,-134.33145260570643zM-63.24401025160277,-135.4137381054351L-63.98933846101221,-135.37642647858422L-64.76229279434237,-135.2799284606804zM-61.86620488580749,-135.30965684013165L-67.97149203859152,-134.33145260570643L-73.31393553993743,-130.41037529199986zM-61.86620488580749,-135.30965684013165L-63.24401025160277,-135.4137381054351L-64.76229279434237,-135.2799284606804zM-73.31393553993743,-130.41037529199986L-73.74373799755537,-129.8217668650724L-74.10243696053445,-129.23012565309992zM-61.86620488580749,-135.30965684013165L-62.53388565664994,-135.39144235122325L-63.24401025160277,-135.4137381054351zM-73.31393553993743,-130.41037529199986L-74.10243696053445,-129.23012565309992L-74.76283679146488,-126.95261212056094zM-74.10243696053445,-129.23012565309992L-74.38630688692675,-128.64145003185268L-74.59234106120316,-128.06171332293528zM-60.68507284776159,-134.9712300290276L-61.24781621315204,-135.1691393141454L-61.86620488580749,-135.30965684013165zM-74.10243696053445,-129.23012565309992L-74.59234106120316,-128.06171332293528L-74.76283679146488,-126.95261212056094zM-59.74922111138241,-134.41146728220048L-60.68507284776159,-134.9712300290276L-61.86620488580749,-135.30965684013165zM-74.59234106120316,-128.06171332293528L-74.71832831806259,-127.49684037170597L-74.76283679146488,-126.95261212056094zM-59.74922111138241,-134.41146728220048L-60.18380612722826,-134.7178461329903L-60.68507284776159,-134.9712300290276zM-58.75814986571669,-132.72437541241604L-59.74922111138241,-134.41146728220048L-61.86620488580749,-135.30965684013165zM-73.31393553993743,-130.41037529199986L-74.76283679146488,-126.95261212056094L-72.28801076808136,-123.94749248655353zM-74.76283679146488,-126.95261212056094L-74.72526850366576,-126.4346017152043L-74.60586664588315,-125.9481741594419zM-60.62008269483307,-128.14729824683735L-61.86620488580749,-135.30965684013165L-73.31393553993743,-130.41037529199986zM-59.097680377927354,-133.65240900298244L-59.38589843089922,-134.05514237691798L-59.74922111138241,-134.41146728220048zM-74.76283679146488,-126.95261212056094L-74.60586664588315,-125.9481741594419L-74.12665159393211,-125.08987736430399zM-58.75814986571669,-132.72437541241604L-59.097680377927354,-133.65240900298244L-59.74922111138241,-134.41146728220048zM-74.60586664588315,-125.9481741594419L-74.40568934015569,-125.4983755992543L-74.12665159393211,-125.08987736430399zM-58.75814986571669,-132.72437541241604L-58.88765823811862,-133.20731400119598L-59.097680377927354,-133.65240900298244zM-74.76283679146488,-126.95261212056094L-74.12665159393211,-125.08987736430399L-72.28801076808136,-123.94749248655353zM-60.62008269483307,-128.14729824683735L-58.75814986571669,-132.72437541241604L-61.86620488580749,-135.30965684013165zM-73.31393553993743,-130.41037529199986L-72.28801076808136,-123.94749248655353L-60.62008269483307,-128.14729824683735zM-74.12665159393211,-125.08987736430399L-73.77146217506366,-124.72697558753546L-73.3436498380582,-124.41347717260346zM-58.74574128894926,-131.66485220934823L-58.71062730047543,-132.2084572595613L-58.75814986571669,-132.72437541241604zM-74.12665159393211,-125.08987736430399L-73.3436498380582,-124.41347717260346L-72.28801076808136,-123.94749248655353zM-59.06215140504917,-130.51703918806163L-58.74574128894926,-131.66485220934823L-58.75814986571669,-132.72437541241604zM-73.3436498380582,-124.41347717260346L-72.84749788250485,-124.15272061877111L-72.28801076808136,-123.94749248655353zM-59.06215140504917,-130.51703918806163L-58.86327813362379,-131.0991079097858L-58.74574128894926,-131.66485220934823zM-60.62008269483307,-128.14729824683735L-59.06215140504917,-130.51703918806163L-58.75814986571669,-132.72437541241604zM-72.28801076808136,-123.94749248655353L-71.6708841600367,-123.80000453239488L-71.00242030845146,-123.71188410758201zM-59.69537934304571,-129.32812392413098L-59.340445465295595,-129.9246713645484L-59.06215140504917,-130.51703918806163zM-72.28801076808136,-123.94749248655353L-71.00242030845146,-123.71188410758201L-69.53947596449238,-123.71713577637865zM-60.62008269483307,-128.14729824683735L-59.69537934304571,-129.32812392413098L-59.06215140504917,-130.51703918806163zM-71.00242030845146,-123.71188410758201L-70.28949966571913,-123.68414835419748L-69.53947596449238,-123.71713577637865zM-72.28801076808136,-123.94749248655353L-69.53947596449238,-123.71713577637865L-66.32809645110319,-124.44154575402214zM-72.28801076808136,-123.94749248655353L-66.32809645110319,-124.44154575402214L-60.62008269483307,-128.14729824683735zM-60.62008269483307,-128.14729824683735L-60.12337609501061,-128.73359777062046L-59.69537934304571,-129.32812392413098zM-69.53947596449238,-123.71713577637865L-68.76012147390419,-123.8106075446346L-67.95952007419258,-123.96361793682195zM-61.798502511724756,-127.02365856337202L-61.18038173066156,-127.57531075924116L-60.62008269483307,-128.14729824683735zM-69.53947596449238,-123.71713577637865L-67.95952007419258,-123.96361793682195L-66.32809645110319,-124.44154575402214zM-63.1820138807387,-126.00411425663663L-61.798502511724756,-127.02365856337202L-60.62008269483307,-128.14729824683735zM-66.32809645110319,-124.44154575402214L-63.1820138807387,-126.00411425663663L-60.62008269483307,-128.14729824683735zM-67.95952007419258,-123.96361793682195L-67.14601294239542,-124.17465056264965L-66.32809645110319,-124.44154575402214zM-63.1820138807387,-126.00411425663663L-62.46803103359256,-126.49808736629986L-61.798502511724756,-127.02365856337202zM-66.32809645110319,-124.44154575402214L-64.71314637399745,-125.13125139687092L-63.1820138807387,-126.00411425663663zM-66.32809645110319,-124.44154575402214L-65.51430108627768,-124.76151206881075L-64.71314637399745,-125.13125139687092zM-64.71314637399745,-125.13125139687092L-63.932997814215504,-125.54690530097822L-63.1820138807387,-126.00411425663663z" style="fill:rgb(83,212,212)"/></svg>
